<svg width="310" height="284" xmlns="http://www.w3.org/2000/svg" xmlns:xlink="http://www.w3.org/1999/xlink">
  <defs>
    <path id="a" d="M0 .17h56.15v72.55H0z"/>
    <path id="c" d="M.34.44h48.42v88.62H.34z"/>
    <path d="M31.38 0c-8.1 0-16.62 5.88-18.92 13.06L.95 49.03C-1.35 56.21 3.4 62.1 11.5 62.1h107.95c8.11 0 16.63-5.88 18.92-13.06l11.52-35.97C152.2 5.88 147.45 0 139.34 0H31.38z" id="e"/>
    <path d="M2.24 0C1.35 0 .44.65.19 1.43c-.25.78.26 1.4 1.14 1.4h66.13c.88 0 1.8-.62 2.05-1.4C69.76.64 69.25 0 68.37 0H2.24z" id="f"/>
    <path d="M.41 2.83v.02C-.1 4.37.9 5.6 2.64 5.6c1.72 0 3.5-1.23 4-2.75v-.02C7.13 1.3 6.13.07 4.4.07S.9 1.3.4 2.83z" id="h"/>
    <path d="M.51 3.16v.02C0 4.7 1 5.93 2.74 5.93c1.71 0 3.5-1.23 4-2.75v-.02C7.23 1.63 6.23.4 4.5.4S1 1.63.5 3.16z" id="j"/>
    <path d="M.46 3.23v.02c-.5 1.53.5 2.76 2.23 2.76 1.72 0 3.5-1.23 4-2.76v-.02C7.18 1.71 6.18.47 4.46.47S.95 1.71.46 3.23z" id="l"/>
    <path d="M.2 3.21l-.01.02c-.5 1.52.5 2.76 2.23 2.76 1.71 0 3.5-1.24 4-2.76v-.02C6.9 1.69 5.9.45 4.19.45S.68 1.7.19 3.21z" id="n"/>
    <path d="M.2 2.79l-.01.02C-.3 4.33.7 5.57 2.42 5.57s3.5-1.24 4-2.76v-.02C6.91 1.26 5.92.03 4.2.03 2.47.03.7 1.26.2 2.79z" id="p"/>
    <path d="M.4 2.77v.02C-.08 4.3.91 5.54 2.63 5.54s3.51-1.23 4-2.75v-.02C7.13 1.24 6.13 0 4.4 0 2.7 0 .9 1.24.4 2.77z" id="r"/>
    <path d="M.25 3.2l-.01.01c-.49 1.53.51 2.76 2.23 2.76s3.5-1.23 4-2.76V3.2C6.96 1.67 5.97.44 4.24.44c-1.72 0-3.5 1.23-4 2.75z" id="t"/>
    <path d="M.46 3.17v.02c-.5 1.53.5 2.76 2.22 2.76 1.72 0 3.51-1.23 4-2.76v-.02c.5-1.52-.5-2.76-2.23-2.76-1.71 0-3.5 1.24-4 2.76z" id="v"/>
    <path d="M.36 2.83v.02c-.5 1.52.5 2.75 2.23 2.75 1.71 0 3.5-1.23 4-2.75v-.02C7.08 1.3 6.08.07 4.36.07S.85 1.3.36 2.83z" id="x"/>
    <path d="M.46 3.16v.02c-.5 1.52.5 2.75 2.23 2.75 1.71 0 3.5-1.23 4-2.75v-.02C7.17 1.63 6.18.4 4.46.4S.95 1.63.46 3.16z" id="z"/>
    <path d="M.41 3.23v.02c-.5 1.53.5 2.76 2.23 2.76 1.71 0 3.5-1.23 4-2.76v-.02C7.13 1.71 6.13.47 4.4.47S.9 1.71.4 3.23z" id="B"/>
    <path d="M.14 3.21v.02c-.5 1.52.5 2.76 2.23 2.76 1.71 0 3.5-1.24 4-2.76v-.02C6.85 1.69 5.86.45 4.14.45S.63 1.7.14 3.21z" id="D"/>
    <path d="M.15 2.79l-.01.02c-.49 1.52.51 2.76 2.23 2.76s3.5-1.24 4-2.76v-.02C6.86 1.26 5.87.03 4.14.03c-1.72 0-3.5 1.23-4 2.76z" id="F"/>
    <path d="M.36 2.77v.02c-.5 1.52.5 2.75 2.22 2.75 1.72 0 3.51-1.23 4-2.75v-.02C7.08 1.24 6.08 0 4.35 0c-1.72 0-3.5 1.23-4 2.76z" id="H"/>
    <path d="M.2 3.2l-.01.01C-.3 4.74.7 5.97 2.42 5.97s3.5-1.23 4-2.76V3.2C6.91 1.67 5.92.44 4.2.44 2.47.44.7 1.67.2 3.19z" id="J"/>
    <path d="M.4 3.17v.02c-.49 1.53.51 2.76 2.23 2.76s3.5-1.23 4-2.76v-.02C7.13 1.65 6.13.41 4.4.41 2.68.41.9 1.65.4 3.17z" id="L"/>
    <path d="M.39 2.83v.02C-.12 4.37.88 5.6 2.6 5.6c1.72 0 3.5-1.23 4-2.75v-.02C7.11 1.3 6.11.07 4.38.07 2.66.07.88 1.3.38 2.83z" id="N"/>
    <path d="M.49 3.16l-.01.02C-.01 4.7.99 5.93 2.71 5.93s3.5-1.23 4-2.75v-.02C7.2 1.63 6.21.4 4.48.4 2.76.4.98 1.63.48 3.16z" id="P"/>
    <path d="M.44 3.23v.02c-.5 1.53.5 2.76 2.22 2.76 1.72 0 3.5-1.23 4-2.76v-.02C7.15 1.71 6.16.47 4.43.47c-1.72 0-3.5 1.24-4 2.76z" id="R"/>
    <path d="M.17 3.21v.02c-.5 1.52.5 2.76 2.22 2.76 1.72 0 3.5-1.24 4-2.76v-.02C6.9 1.69 5.9.45 4.16.45 2.44.45.66 1.7.16 3.21z" id="T"/>
    <path d="M.17 2.79v.02c-.5 1.52.5 2.76 2.22 2.76 1.72 0 3.51-1.24 4-2.76v-.02C6.9 1.26 5.9.03 4.18.03 2.45.03.66 1.26.17 2.79z" id="V"/>
    <path d="M.38 2.77v.02C-.11 4.3.88 5.54 2.6 5.54c1.72 0 3.5-1.23 4-2.75v-.02C7.1 1.24 6.1 0 4.38 0s-3.5 1.23-4 2.76z" id="X"/>
    <path d="M.22 3.2v.01c-.5 1.53.5 2.76 2.22 2.76 1.72 0 3.51-1.23 4-2.76V3.2c.5-1.52-.5-2.75-2.22-2.75C2.5.44.7 1.67.22 3.19z" id="Z"/>
    <path d="M.43 3.17v.02c-.5 1.53.5 2.76 2.23 2.76 1.72 0 3.5-1.23 4-2.76v-.02C7.15 1.65 6.15.41 4.43.41s-3.5 1.24-4 2.76z" id="ab"/>
    <path d="M.34 2.83l-.01.02C-.16 4.37.84 5.6 2.56 5.6s3.5-1.23 4-2.75v-.02C7.05 1.3 6.06.07 4.33.07 2.61.07.83 1.3.33 2.83z" id="ad"/>
    <path d="M.44 3.16l-.01.02C-.06 4.7.94 5.93 2.66 5.93s3.5-1.23 4-2.75v-.02C7.15 1.63 6.16.4 4.43.4 2.71.4.93 1.63.43 3.16z" id="af"/>
    <path d="M.3 3.23l-.02.02C-.2 4.78.8 6.01 2.51 6.01s3.51-1.23 4-2.76v-.02C7.02 1.71 6.02.47 4.3.47 2.57.47.78 1.71.29 3.23z" id="ah"/>
    <path d="M.6 3.21v.02c-.5 1.52.5 2.76 2.22 2.76 1.72 0 3.51-1.24 4-2.76v-.02C7.32 1.69 6.32.45 4.6.45 2.88.45 1.1 1.7.6 3.21z" id="aj"/>
    <path d="M.6 2.79v.02c-.5 1.52.5 2.76 2.23 2.76 1.72 0 3.5-1.24 4-2.76v-.02C7.32 1.26 6.32.03 4.6.03S1.1 1.26.6 2.79z" id="al"/>
    <path d="M.33 2.77v.02c-.5 1.52.5 2.75 2.23 2.75 1.72 0 3.5-1.23 4-2.75v-.02C7.05 1.24 6.05 0 4.33 0S.82 1.24.33 2.77z" id="an"/>
    <path d="M.17 3.2v.01c-.5 1.53.5 2.76 2.22 2.76 1.72 0 3.51-1.23 4-2.76V3.2C6.9 1.67 5.9.44 4.18.44 2.45.44.66 1.67.17 3.19z" id="ap"/>
    <path d="M.38 3.17v.02c-.5 1.53.5 2.76 2.23 2.76 1.71 0 3.5-1.23 4-2.76v-.02C7.1 1.65 6.1.41 4.38.41S.87 1.65.38 3.17z" id="ar"/>
    <path d="M.6 2.83v.02C.1 4.37 1.1 5.6 2.81 5.6c1.72 0 3.51-1.23 4-2.75v-.02C7.33 1.3 6.33.07 4.6.07 2.88.07 1.09 1.3.6 2.83z" id="at"/>
    <path d="M.22 3.16l-.01.02C-.28 4.7.72 5.93 2.44 5.93s3.5-1.23 4-2.75v-.02C6.93 1.63 5.94.4 4.21.4 2.5.4.71 1.63.21 3.16z" id="av"/>
    <path d="M.17 3.23v.02c-.5 1.53.5 2.76 2.22 2.76 1.72 0 3.5-1.23 4-2.76v-.02C6.88 1.71 5.9.47 4.16.47c-1.72 0-3.5 1.24-4 2.76z" id="ax"/>
    <path d="M.38 3.21v.02c-.5 1.52.5 2.76 2.22 2.76 1.72 0 3.51-1.24 4-2.76v-.02C7.1 1.69 6.1.45 4.38.45 2.66.45.87 1.7.38 3.21z" id="az"/>
    <path d="M.38 2.79v.02c-.5 1.52.5 2.76 2.23 2.76 1.72 0 3.5-1.24 4-2.76v-.02C7.1 1.26 6.1.03 4.38.03s-3.5 1.23-4 2.76z" id="aB"/>
    <path d="M.6 2.77l-.01.02C.1 4.3 1.1 5.54 2.82 5.54s3.5-1.23 4-2.75v-.02C7.31 1.24 6.32 0 4.6 0 2.87 0 1.1 1.24.6 2.77z" id="aD"/>
    <path d="M.43 3.2v.01c-.5 1.53.5 2.76 2.23 2.76 1.72 0 3.5-1.23 4-2.76V3.2C7.15 1.67 6.15.44 4.43.44S.92 1.67.43 3.19z" id="aF"/>
    <path d="M.16 3.17v.02c-.5 1.53.5 2.76 2.23 2.76 1.72 0 3.5-1.23 4-2.76v-.02C6.88 1.65 5.88.41 4.16.41s-3.5 1.24-4 2.76z" id="aH"/>
    <path d="M.55 2.83v.02c-.5 1.52.5 2.75 2.22 2.75 1.72 0 3.51-1.23 4-2.75v-.02C7.27 1.3 6.27.07 4.54.07c-1.71 0-3.5 1.23-4 2.76z" id="aJ"/>
    <path d="M.17 3.16l-.01.02C-.33 4.7.67 5.93 2.39 5.93s3.5-1.23 4-2.75v-.02C6.88 1.63 5.9.4 4.16.4 2.44.4.66 1.63.16 3.16z" id="aL"/>
    <path d="M.56 3.23v.02c-.5 1.53.5 2.76 2.22 2.76 1.72 0 3.51-1.23 4-2.76v-.02c.5-1.52-.5-2.76-2.23-2.76-1.72 0-3.5 1.24-4 2.76z" id="aN"/>
    <path d="M.33 3.21v.02c-.5 1.52.5 2.76 2.22 2.76 1.72 0 3.51-1.24 4-2.76v-.02c.5-1.52-.5-2.76-2.23-2.76C2.6.45.82 1.7.32 3.21z" id="aP"/>
    <path d="M.33 2.79v.02c-.5 1.52.5 2.76 2.23 2.76 1.71 0 3.5-1.24 4-2.76v-.02C7.05 1.26 6.05.03 4.33.03S.82 1.26.33 2.79z" id="aR"/>
    <path d="M.54 2.77v.02c-.49 1.52.5 2.75 2.23 2.75 1.72 0 3.5-1.23 4-2.75v-.02C7.26 1.24 6.26 0 4.54 0s-3.5 1.23-4 2.76z" id="aT"/>
    <path d="M.38 3.2v.01c-.5 1.53.5 2.76 2.23 2.76 1.71 0 3.5-1.23 4-2.76V3.2C7.1 1.67 6.1.44 4.38.44S.87 1.67.38 3.19z" id="aV"/>
    <path d="M.6 3.17l-.01.02c-.49 1.53.5 2.76 2.23 2.76 1.72 0 3.5-1.23 4-2.76v-.02C7.31 1.65 6.31.41 4.59.41s-3.5 1.24-4 2.76z" id="aX"/>
    <path d="M.57 2.83v.02C.08 4.37 1.07 5.6 2.8 5.6c1.72 0 3.5-1.23 4-2.75v-.02C7.29 1.3 6.29.07 4.57.07s-3.5 1.23-4 2.76z" id="aZ"/>
    <path d="M.2 3.16l-.02.02C-.3 4.7.7 5.93 2.41 5.93c1.72 0 3.51-1.23 4-2.75v-.02C6.92 1.63 5.92.4 4.2.4 2.47.4.68 1.63.19 3.16z" id="bb"/>
    <path d="M.14 3.23v.02c-.5 1.53.5 2.76 2.22 2.76 1.72 0 3.51-1.23 4-2.76v-.02c.5-1.52-.5-2.76-2.22-2.76-1.72 0-3.51 1.24-4 2.76z" id="bd"/>
    <path d="M.35 3.21v.02c-.5 1.52.5 2.76 2.23 2.76 1.72 0 3.5-1.24 4-2.76v-.02C7.07 1.69 6.07.45 4.35.45S.85 1.7.35 3.21z" id="bf"/>
    <path d="M.36 2.79v.02c-.5 1.52.5 2.76 2.22 2.76 1.72 0 3.51-1.24 4-2.76v-.02c.5-1.53-.5-2.76-2.23-2.76-1.72 0-3.5 1.23-4 2.76z" id="bh"/>
    <path d="M.57 2.77v.02c-.5 1.52.5 2.75 2.22 2.75 1.72 0 3.51-1.23 4-2.75v-.02C7.3 1.24 6.3 0 4.58 0c-1.72 0-3.51 1.23-4 2.76z" id="bj"/>
    <path d="M.4 3.2v.01c-.49 1.53.51 2.76 2.23 2.76s3.5-1.23 4-2.76V3.2C7.12 1.67 6.13.44 4.4.44 2.68.44.9 1.67.4 3.19z" id="bl"/>
    <path d="M.14 3.17v.02c-.5 1.53.5 2.76 2.22 2.76 1.72 0 3.5-1.23 4-2.76v-.02c.5-1.52-.5-2.76-2.23-2.76-1.72 0-3.5 1.24-4 2.76z" id="bn"/>
    <path d="M.52 2.83v.02c-.5 1.52.5 2.75 2.23 2.75 1.72 0 3.5-1.23 4-2.75v-.02C7.24 1.3 6.24.07 4.52.07s-3.5 1.23-4 2.76z" id="bp"/>
    <path d="M.14 3.16v.02c-.5 1.52.5 2.75 2.22 2.75 1.72 0 3.51-1.23 4-2.75v-.02C6.87 1.63 5.87.4 4.15.4 2.42.4.63 1.63.14 3.16z" id="br"/>
    <path d="M.57 3.23v.02c-.5 1.53.5 2.76 2.23 2.76 1.72 0 3.5-1.23 4-2.76v-.02C7.29 1.71 6.29.47 4.57.47s-3.5 1.24-4 2.76z" id="bt"/>
    <path d="M.3 3.21v.02c-.5 1.52.5 2.76 2.23 2.76 1.72 0 3.5-1.24 4-2.76v-.02C7.02 1.69 6.02.45 4.3.45S.8 1.7.3 3.21z" id="bv"/>
    <path d="M.3 2.79v.02c-.49 1.52.51 2.76 2.23 2.76s3.5-1.24 4-2.76v-.02C7.03 1.26 6.03.03 4.3.03 2.58.03.8 1.26.3 2.79z" id="bx"/>
    <path d="M.52 2.77v.02c-.5 1.52.5 2.75 2.22 2.75 1.72 0 3.51-1.23 4-2.75v-.02C7.24 1.24 6.24 0 4.52 0 2.8 0 1 1.24.52 2.77z" id="bz"/>
    <path d="M.36 3.2l-.01.01c-.49 1.53.51 2.76 2.23 2.76s3.5-1.23 4-2.76V3.2C7.07 1.67 6.08.44 4.35.44c-1.72 0-3.5 1.23-4 2.75z" id="bB"/>
    <path d="M.57 3.17v.02c-.5 1.53.5 2.76 2.22 2.76 1.72 0 3.51-1.23 4-2.76v-.02C7.3 1.65 6.3.41 4.56.41c-1.71 0-3.5 1.24-4 2.76z" id="bD"/>
    <path d="M.27 2.83l-.01.02C-.23 4.37.76 5.6 2.49 5.6c1.72 0 3.5-1.23 4-2.75v-.02C6.98 1.3 5.98.07 4.26.07S.76 1.3.26 2.83z" id="bF"/>
    <path d="M.36 3.16v.02c-.49 1.52.5 2.75 2.23 2.75 1.72 0 3.5-1.23 4-2.75v-.02C7.08 1.63 6.08.4 4.36.4s-3.5 1.23-4 2.76z" id="bH"/>
    <path d="M.31 3.23v.02c-.49 1.53.5 2.76 2.23 2.76 1.72 0 3.5-1.23 4-2.76v-.02C7.03 1.71 6.03.47 4.31.47s-3.5 1.24-4 2.76z" id="bJ"/>
    <path d="M.53 3.21l-.01.02c-.49 1.52.51 2.76 2.23 2.76s3.5-1.24 4-2.76v-.02c.5-1.52-.5-2.76-2.23-2.76-1.72 0-3.5 1.24-4 2.76z" id="bL"/>
    <path d="M.53 2.79v.02c-.5 1.52.5 2.76 2.22 2.76 1.72 0 3.51-1.24 4-2.76v-.02c.5-1.53-.5-2.76-2.22-2.76-1.72 0-3.51 1.23-4 2.76z" id="bN"/>
    <path d="M.26 2.77v.02c-.5 1.52.5 2.75 2.22 2.75 1.72 0 3.51-1.23 4-2.75v-.02C6.99 1.24 5.99 0 4.27 0 2.54 0 .75 1.24.26 2.77z" id="bP"/>
    <path d="M.58 3.2v.01c-.5 1.53.5 2.76 2.22 2.76 1.72 0 3.51-1.23 4-2.76V3.2C7.3 1.67 6.3.44 4.59.44c-1.72 0-3.51 1.23-4 2.75z" id="bR"/>
    <path d="M.31 3.17v.02c-.5 1.53.5 2.76 2.22 2.76 1.72 0 3.51-1.23 4-2.76v-.02c.5-1.52-.5-2.76-2.22-2.76C2.59.41.8 1.65.3 3.17z" id="bT"/>
    <path d="M.21 2.83v.02C-.28 4.37.7 5.6 2.44 5.6c1.72 0 3.5-1.23 4-2.75v-.02C6.93 1.3 5.93.07 4.21.07S.71 1.3.21 2.83z" id="bV"/>
    <path d="M.31 3.16v.02C-.18 4.7.8 5.93 2.54 5.93c1.72 0 3.5-1.23 4-2.75v-.02C7.03 1.63 6.03.4 4.31.4S.8 1.63.3 3.16z" id="bX"/>
    <path d="M.26 3.23v.02c-.5 1.53.5 2.76 2.23 2.76 1.72 0 3.5-1.23 4-2.76v-.02C6.98 1.71 5.98.47 4.26.47s-3.5 1.24-4 2.76z" id="bZ"/>
    <path d="M.48 3.21l-.01.02C-.02 4.75.98 5.99 2.7 5.99s3.5-1.24 4-2.76v-.02C7.2 1.69 6.2.45 4.47.45 2.75.45.97 1.7.47 3.21z" id="cb"/>
    <path d="M.48 2.79v.02c-.5 1.52.5 2.76 2.22 2.76 1.72 0 3.51-1.24 4-2.76v-.02C7.2 1.26 6.2.03 4.49.03 2.76.03.97 1.26.48 2.79z" id="cd"/>
    <path d="M.21 2.77v.02C-.3 4.3.7 5.54 2.42 5.54c1.72 0 3.51-1.23 4-2.75v-.02C6.94 1.24 5.94 0 4.22 0 2.49 0 .7 1.24.2 2.77z" id="cf"/>
    <path d="M.53 3.2v.01c-.5 1.53.5 2.76 2.22 2.76 1.72 0 3.51-1.23 4-2.76V3.2c.5-1.52-.5-2.75-2.22-2.75-1.72 0-3.51 1.23-4 2.75z" id="ch"/>
    <path d="M.26 3.17v.02c-.5 1.53.5 2.76 2.22 2.76 1.72 0 3.51-1.23 4-2.76v-.02c.5-1.52-.5-2.76-2.22-2.76-1.72 0-3.51 1.24-4 2.76z" id="cj"/>
    <path d="M.24 2.83v.02c-.5 1.52.5 2.75 2.22 2.75 1.72 0 3.51-1.23 4-2.75v-.02C6.96 1.3 5.96.07 4.24.07 2.52.07.73 1.3.24 2.83z" id="cl"/>
    <path d="M.34 3.16v.02c-.5 1.52.5 2.75 2.22 2.75 1.72 0 3.51-1.23 4-2.75v-.02C7.06 1.63 6.06.4 4.34.4 2.62.4.83 1.63.34 3.16z" id="cn"/>
    <path d="M.29 3.23v.02c-.5 1.53.5 2.76 2.22 2.76 1.72 0 3.51-1.23 4-2.76v-.02C7.02 1.71 6.02.47 4.3.47 2.57.47.78 1.71.29 3.23z" id="cp"/>
    <path d="M.5 3.21v.02C0 4.75 1 5.99 2.73 5.99c1.71 0 3.5-1.24 4-2.76v-.02C7.2 1.69 6.22.45 4.5.45S.99 1.7.5 3.21z" id="cr"/>
    <path d="M.5 2.79v.02C0 4.33 1 5.57 2.73 5.57s3.5-1.24 4-2.76v-.02C7.22 1.26 6.22.03 4.5.03S1 1.26.5 2.79z" id="ct"/>
    <path d="M.24 2.77l-.01.02C-.26 4.3.74 5.54 2.46 5.54s3.5-1.23 4-2.75v-.02C6.95 1.24 5.96 0 4.23 0c-1.72 0-3.5 1.23-4 2.76z" id="cv"/>
    <path d="M.56 3.2l-.01.01c-.49 1.53.5 2.76 2.23 2.76 1.72 0 3.5-1.23 4-2.76V3.2C7.27 1.67 6.28.44 4.55.44c-1.72 0-3.5 1.23-4 2.75z" id="cx"/>
    <path d="M.29 3.17l-.01.02c-.49 1.53.5 2.76 2.23 2.76 1.72 0 3.5-1.23 4-2.76v-.02C7 1.65 6 .41 4.28.41s-3.5 1.24-4 2.76z" id="cz"/>
    <path d="M.19 2.83v.02C-.32 4.37.68 5.6 2.4 5.6c1.72 0 3.51-1.23 4-2.75v-.02C6.91 1.3 5.91.07 4.18.07 2.47.07.68 1.3.18 2.83z" id="cB"/>
    <path d="M.29 3.16v.02c-.5 1.52.5 2.75 2.22 2.75 1.72 0 3.51-1.23 4-2.75v-.02C7.01 1.63 6.01.4 4.28.4 2.56.4.78 1.63.28 3.16z" id="cD"/>
    <path d="M.58 3.23v.02c-.5 1.53.5 2.76 2.22 2.76 1.72 0 3.5-1.23 4-2.76v-.02C7.3 1.71 6.3.47 4.57.47c-1.72 0-3.5 1.24-4 2.76z" id="cF"/>
    <path d="M.45 3.21v.02c-.5 1.52.5 2.76 2.22 2.76 1.72 0 3.51-1.24 4-2.76v-.02c.5-1.52-.5-2.76-2.22-2.76C2.73.45.94 1.7.45 3.21z" id="cH"/>
    <path d="M.45 2.79v.02c-.49 1.52.5 2.76 2.23 2.76 1.72 0 3.5-1.24 4-2.76v-.02C7.17 1.26 6.17.03 4.45.03s-3.5 1.23-4 2.76z" id="cJ"/>
    <path d="M.18 2.77v.02C-.31 4.3.68 5.54 2.4 5.54c1.72 0 3.5-1.23 4-2.75v-.02C6.9 1.24 5.9 0 4.18 0s-3.5 1.23-4 2.76z" id="cL"/>
    <path d="M.5 3.2v.01C0 4.74 1 5.97 2.73 5.97c1.72 0 3.5-1.23 4-2.76V3.2C7.22 1.67 6.22.44 4.5.44S1 1.67.5 3.19z" id="cN"/>
    <path d="M.23 3.17v.02c-.49 1.53.5 2.76 2.23 2.76 1.72 0 3.5-1.23 4-2.76v-.02C6.95 1.65 5.95.41 4.23.41s-3.5 1.24-4 2.76z" id="cP"/>
    <path d="M.54 2.83l-.01.02c-.49 1.52.5 2.75 2.23 2.75 1.72 0 3.5-1.23 4-2.75v-.02C7.25 1.3 6.26.07 4.53.07c-1.72 0-3.5 1.23-4 2.76z" id="cR"/>
    <path d="M.15 3.16v.02c-.5 1.52.5 2.75 2.23 2.75 1.71 0 3.5-1.23 4-2.75v-.02C6.87 1.63 5.87.4 4.15.4S.64 1.63.15 3.16z" id="cT"/>
    <path d="M.59 3.23l-.01.02c-.49 1.53.5 2.76 2.23 2.76 1.72 0 3.5-1.23 4-2.76v-.02C7.3 1.71 6.3.47 4.58.47s-3.5 1.24-4 2.76z" id="cV"/>
    <path d="M.31 3.21v.02c-.49 1.52.5 2.76 2.23 2.76 1.72 0 3.5-1.24 4-2.76v-.02C7.03 1.69 6.03.45 4.31.45S.81 1.7.31 3.21z" id="cX"/>
    <path d="M.32 2.79v.02c-.5 1.52.5 2.76 2.22 2.76 1.72 0 3.51-1.24 4-2.76v-.02c.5-1.53-.5-2.76-2.22-2.76C2.6.03.8 1.26.32 2.79z" id="cZ"/>
    <path d="M.53 2.77v.02c-.5 1.52.5 2.75 2.22 2.75 1.72 0 3.51-1.23 4-2.75v-.02C7.26 1.24 6.26 0 4.54 0 2.8 0 1.02 1.24.53 2.77z" id="db"/>
    <path d="M.37 3.2v.01c-.5 1.53.5 2.76 2.22 2.76 1.72 0 3.51-1.23 4-2.76V3.2C7.1 1.67 6.1.44 4.36.44c-1.71 0-3.5 1.23-4 2.75z" id="dd"/>
    <path d="M.58 3.17v.02c-.5 1.53.5 2.76 2.22 2.76 1.72 0 3.51-1.23 4-2.76v-.02C7.3 1.65 6.3.41 4.59.41c-1.72 0-3.51 1.24-4 2.76z" id="df"/>
    <path d="M.48 2.83v.02C-.01 4.37.98 5.6 2.7 5.6c1.72 0 3.5-1.23 4-2.75v-.02C7.2 1.3 6.2.07 4.48.07S.98 1.3.48 2.83z" id="dh"/>
    <path d="M.58 3.16v.02c-.49 1.52.5 2.75 2.23 2.75 1.72 0 3.5-1.23 4-2.75v-.02C7.3 1.63 6.3.4 4.58.4s-3.5 1.23-4 2.76z" id="dj"/>
    <path d="M.49 3.23l-.01.02c-.49 1.53.51 2.76 2.23 2.76s3.5-1.23 4-2.76v-.02C7.2 1.71 6.21.47 4.48.47c-1.72 0-3.5 1.24-4 2.76z" id="dl"/>
    <path d="M.26 3.21v.02c-.49 1.52.5 2.76 2.23 2.76 1.72 0 3.5-1.24 4-2.76v-.02C6.98 1.69 5.98.45 4.26.45S.76 1.7.26 3.21z" id="dn"/>
    <path d="M.27 2.79v.02c-.5 1.52.5 2.76 2.22 2.76 1.72 0 3.51-1.24 4-2.76v-.02C7 1.26 6 .03 4.26.03c-1.71 0-3.5 1.23-4 2.76z" id="dp"/>
    <path d="M.48 2.77v.02c-.5 1.52.5 2.75 2.22 2.75 1.72 0 3.51-1.23 4-2.75v-.02C7.2 1.24 6.2 0 4.49 0 2.76 0 .97 1.24.48 2.77z" id="dr"/>
    <path d="M.32 3.2v.01c-.5 1.53.5 2.76 2.22 2.76 1.72 0 3.51-1.23 4-2.76V3.2c.5-1.52-.5-2.75-2.23-2.75-1.72 0-3.5 1.23-4 2.75z" id="dt"/>
    <path d="M.53 3.17v.02c-.5 1.53.5 2.76 2.22 2.76 1.72 0 3.51-1.23 4-2.76v-.02c.5-1.52-.5-2.76-2.22-2.76-1.72 0-3.51 1.24-4 2.76z" id="dv"/>
    <path d="M.51 2.83v.02C0 4.37 1 5.6 2.72 5.6c1.72 0 3.51-1.23 4-2.75v-.02C7.24 1.3 6.24.07 4.52.07 2.79.07 1 1.3.5 2.83z" id="dx"/>
    <path d="M.6 3.16v.02c-.48 1.52.51 2.75 2.23 2.75s3.51-1.23 4-2.75v-.02C7.33 1.63 6.33.4 4.61.4 2.89.4 1.1 1.63.6 3.16z" id="dz"/>
    <path d="M.56 3.23v.02c-.5 1.53.5 2.76 2.22 2.76 1.72 0 3.51-1.23 4-2.76v-.02c.5-1.52-.5-2.76-2.22-2.76-1.72 0-3.51 1.24-4 2.76z" id="dB"/>
    <path d="M.29 3.21v.02c-.5 1.52.5 2.76 2.22 2.76 1.72 0 3.51-1.24 4-2.76v-.02C7.02 1.69 6.02.45 4.3.45 2.57.45.78 1.7.29 3.21z" id="dD"/>
    <path d="M.3 2.79l-.01.02c-.5 1.52.5 2.76 2.23 2.76 1.72 0 3.5-1.24 4-2.76v-.02C7 1.26 6 .03 4.29.03s-3.5 1.23-4 2.76z" id="dF"/>
    <path d="M.5 2.77v.02c-.49 1.52.51 2.75 2.23 2.75s3.5-1.23 4-2.75v-.02C7.22 1.24 6.23 0 4.5 0 2.78 0 1 1.24.5 2.77z" id="dH"/>
    <path d="M.34 3.2v.01c-.49 1.53.5 2.76 2.23 2.76 1.72 0 3.5-1.23 4-2.76V3.2C7.06 1.67 6.06.44 4.34.44s-3.5 1.23-4 2.75z" id="dJ"/>
    <path d="M.56 3.17l-.01.02c-.49 1.53.51 2.76 2.23 2.76s3.5-1.23 4-2.76v-.02C7.27 1.65 6.28.41 4.55.41c-1.72 0-3.5 1.24-4 2.76z" id="dL"/>
    <path d="M.46 2.83v.02c-.5 1.52.5 2.75 2.22 2.75 1.72 0 3.51-1.23 4-2.75v-.02C7.19 1.3 6.19.07 4.47.07 2.74.07.95 1.3.46 2.83z" id="dN"/>
    <path d="M.56 3.16v.02c-.5 1.52.5 2.75 2.22 2.75 1.72 0 3.51-1.23 4-2.75v-.02C7.28 1.63 6.28.4 4.55.4c-1.71 0-3.5 1.23-4 2.76z" id="dP"/>
    <path d="M.5 3.23v.02c-.49 1.53.51 2.76 2.23 2.76s3.51-1.23 4-2.76v-.02C7.23 1.71 6.23.47 4.5.47 2.8.47 1 1.71.5 3.23z" id="dR"/>
    <path d="M.24 3.21v.02c-.5 1.52.5 2.76 2.22 2.76 1.72 0 3.51-1.24 4-2.76v-.02c.5-1.52-.5-2.76-2.23-2.76-1.71 0-3.5 1.24-4 2.76z" id="dT"/>
    <path d="M.24 2.79v.02c-.5 1.52.5 2.76 2.23 2.76 1.72 0 3.5-1.24 4-2.76v-.02C6.96 1.26 5.96.03 4.24.03s-3.5 1.23-4 2.76z" id="dV"/>
    <path d="M.46 2.77l-.01.02c-.49 1.52.5 2.75 2.23 2.75 1.72 0 3.5-1.23 4-2.75v-.02C7.17 1.24 6.18 0 4.45 0c-1.72 0-3.5 1.23-4 2.76z" id="dX"/>
    <path d="M.3 3.2l-.01.01c-.5 1.53.5 2.76 2.23 2.76 1.72 0 3.5-1.23 4-2.76V3.2C7 1.67 6 .44 4.29.44S.78 1.67.29 3.19z" id="dZ"/>
    <path d="M.5 3.17v.02C0 4.72 1 5.95 2.73 5.95c1.72 0 3.5-1.23 4-2.76v-.02C7.22 1.65 6.22.41 4.5.41S1 1.65.5 3.17z" id="eb"/>
  </defs>
  <g fill="none" fill-rule="evenodd">
    <path d="M10 32h290a10 10 0 0110 10v231.28a10 10 0 01-10 10H10a10 10 0 01-10-10V42a10 10 0 0110-10z" fill="#9B9B9B"/>
    <path fill="#7C7C7C" d="M65.43 89.63l150.33.44-15.8 60.36H48.85z"/>
    <path d="M66.57 89.17l-7.53-4.13-14.84 45.82s11.95 1.86 11.67 1.25c-.28-.6 10.7-42.94 10.7-42.94" fill="#6B6B6B"/>
    <path d="M232.61 29.26L197.87 143.6c-1.83 6.31-7.05 10.58-12.94 10.58 0 0-122.01-.15-123.41-.59-5.56-1.72-12.81-8.84-15.61-18.02-1.17-3.83-.43-10.42 1.06-15.26L79.84 19c1.77-6.4 7.03-10.77 13-10.77l126.62.58c9.25 0 16.03 10.53 13.15 20.44" fill="#BFBFBF"/>
    <path d="M211.4.93s20.84-1.57 23.94 13.1c1.13 5.36-5.75 25.92-5.75 25.92l-15.06-9.06L211.41.93z" fill="#3D3D3D"/>
    <path d="M217.19 26.39l-31.57 102.63c-1.83 5.96-7.06 10-12.96 10H55.89c-12.36 0-10.85-9.59-8-18.94L79.05 17.44c1.82-5.98 5.09-9.07 12.98-9.07h112.19c10.96 0 15.84 8.66 12.96 18.02" fill="#DDD"/>
    <path d="M171.45 11.31L210.47 1.2c1.13-.4 7.47-.65 9.57 1.24 2.3 2.06 3.48 6.74 2.37 9.67l-6.34 19.72-44.62-20.52zM134.71 19.38L102.75 3.35C97.98.95 94.47-.6 88.76 2.39c-5.7 3-9.64 16.8-9.64 16.8l55.6.19z" fill="#232323"/>
    <path d="M213.3 25.3l-30.57 98.15c-1.77 5.7-6.84 9.55-12.55 9.55H57.09c-11.97 0-10.5-9.16-7.75-18.1l30.2-98.16c1.75-5.72 4.92-8.67 12.56-8.67h108.65c10.62 0 15.35 8.27 12.56 17.23" fill="#FFF"/>
    <path d="M204.82 29.78l-14.17 44.69a13.24 13.24 0 01-12.62 8.84H79.26c-8.94 0-15.33-7-12.67-15.26l14.88-46.06a13.23 13.23 0 0112.67-9.02h99c9.02 0 14.48 8.52 11.68 16.81" fill="#6B6B6B"/>
    <path d="M137.12 91.17l-3.5 10.14c-.41 1.2-1.6 2.01-2.92 2.01h-23.18c-2.07 0-3.55-1.9-2.94-3.78l3.33-10.15a3.06 3.06 0 012.94-2.04h23.35c2.09 0 3.57 1.93 2.92 3.82M123.22 121.63h-19.44c-3.1 0-4.48-2.54-3.81-5.1.66-2.55 3.46-4.64 6.22-4.64h19.44c2.76 0 4.48 2.1 3.82 4.64-.67 2.56-2.86 5.1-6.23 5.1M159.84 90.32c6.56.53 11.44 6.77 10.9 13.93-.54 7.17-6.29 12.56-12.84 12.03-6.56-.53-11.44-6.76-10.9-13.93.54-7.17 6.29-12.55 12.84-12.03M74.15 113.7c-5.8-2.34-8.64-9.4-6.34-15.76 2.3-6.37 8.87-9.63 14.67-7.28 5.8 2.34 8.64 9.4 6.34 15.77-2.3 6.36-8.86 9.62-14.67 7.28" fill="#DBDBDB"/>
    <path d="M222.15 62.4c-1.01 3.99-4.65 6.45-8.12 5.5-3.47-.94-5.46-4.93-4.45-8.9 1.01-3.99 4.65-6.45 8.11-5.5 3.47.93 5.47 4.93 4.46 8.9" fill="#ADADAD"/>
    <path d="M223.71 44.74c0 1.66-1.17 3-2.62 3-1.44 0-2.61-1.34-2.61-3s1.17-3 2.61-3c1.45 0 2.62 1.34 2.62 3" fill="#8E8E8E"/>
    <path fill="#B2B2B2" d="M157.71 186.8l3.55 29.22-23.48-.1-.89-42.97z"/>
    <path d="M141.67 200.7c0-19.86-13.47-36.11-29.92-36.11h25.79c16.45 0 29.92 16.25 29.92 36.1 0 19.86-13.47 36.1-29.92 36.1h-25.79c16.45 0 29.92-16.24 29.92-36.1" fill="#333"/>
    <path d="M131.43 236.8H41.37A33.44 33.44 0 018 203.49v-5.59a33.44 33.44 0 0133.37-33.31h90.06a33.44 33.44 0 0133.38 33.31v5.59a33.44 33.44 0 01-33.38 33.3" fill="#3D3D3D"/>
    <g transform="translate(8 164.08)">
      <mask id="b" fill="#fff">
        <use xlink:href="#a"/>
      </mask>
      <path d="M25.79 36.62C25.79 16.76 39.25.52 56.15.17H30.36C13.46.5 0 16.77 0 36.62c0 19.86 13.46 36.1 29.92 36.1H55.7c-16.46 0-29.92-16.24-29.92-36.1" fill="#333" mask="url(#b)"/>
    </g>
    <path d="M129.48 224c-3.8-5.5-5.96-13.71-5.96-22.89 0-9.17 2.16-17.38 5.96-22.87 1.63-2.36.65-6.9-1.48-6.9H71.55c-2.13 0-3.11 4.54-1.48 6.9 3.8 5.5 5.97 13.7 5.97 22.87 0 9.18-2.17 17.38-5.97 22.88-1.63 2.36-.65 6.9 1.48 6.9H128c2.13 0 3.11-4.54 1.48-6.9" fill="#545454"/>
    <path d="M72.89 200.43c0 16.55-7.86 29.97-17.56 29.97-9.69 0-17.55-13.42-17.55-29.97 0-16.55 7.86-29.97 17.55-29.97 9.7 0 17.56 13.42 17.56 29.97M161.7 200.56c0 16.55-7.86 29.97-17.55 29.97-9.7 0-17.56-13.42-17.56-29.97 0-16.55 7.86-29.97 17.56-29.97 9.69 0 17.55 13.42 17.55 29.97" fill="#545454"/>
    <path fill="#333" d="M51.2 167.92h94.95l-4.83-3.22H55.4zM147.04 233.43H50.75l4.22 2.81c.4.27.86.41 1.34.41h84.06c.74 0 1.46-.25 2.06-.7l4.61-2.52z"/>
    <path d="M142.15 191.48l12.74-1.35.22 24.19c.03 2.9-3.07 5.32-7.01 5.46-6.15.21-14.08.36-14.08-.3 0-1.08 5.9-28 5.9-28h2.23z" fill="#B2B2B2"/>
    <path d="M282.08 202.53c0-19.86-13.47-36.1-29.92-36.1h25.8c16.44 0 29.9 16.24 29.9 36.1 0 19.85-13.46 36.1-29.9 36.1h-25.8c16.45 0 29.92-16.25 29.92-36.1" fill="#333"/>
    <path d="M271.54 238.01H181.2c-18.03 0-32.78-15.13-32.78-33.62v-4.35c0-18.49 14.75-33.62 32.78-33.62h90.35c18.03 0 32.78 12.38 32.78 35.8 0 23.37-14.75 35.8-32.78 35.8" fill="#3D3D3D"/>
    <path d="M174.2 202.45c0-19.82 13.46-36.03 30.36-36.37h-25.79c-16.9.34-30.36 16.55-30.36 36.37 0 19.8 13.46 36.02 29.92 36.02h25.79c-16.46 0-29.92-16.21-29.92-36.02" fill="#333"/>
    <path d="M268.98 224.03c-3.72-5.1-5.83-12.73-5.83-21.24 0-8.52 2.11-16.14 5.83-21.24 1.6-2.2.64-6.41-1.45-6.41h-55.17c-2.1 0-3.05 4.22-1.46 6.4 3.72 5.1 5.84 12.73 5.84 21.25 0 8.51-2.12 16.13-5.84 21.24-1.59 2.18-.63 6.4 1.46 6.4h55.17c2.09 0 3.04-4.22 1.45-6.4" fill="#EAEAEA"/>
    <path d="M268.08 224.03c-3.75-5.1-5.89-12.73-5.89-21.24 0-8.52 2.14-16.14 5.9-21.24 1.6-2.2.64-6.41-1.47-6.41H214.02c-2.1 0-3.07 4.22-1.46 6.4 3.75 5.1 5.89 12.73 5.89 21.25 0 8.51-2.14 16.13-5.9 21.24-1.6 2.18-.64 6.4 1.47 6.4H266.62c2.1 0 3.07-4.22 1.46-6.4" fill="#FFF"/>
    <path d="M213.3 202.15c0 15.37-7.86 27.83-17.56 27.83-9.69 0-17.55-12.46-17.55-27.83 0-15.37 7.86-27.83 17.55-27.83 9.7 0 17.56 12.46 17.56 27.83" fill="#EAEAEA"/>
    <path d="M211.58 202.15c0 13.1-6.7 23.7-14.95 23.7-8.26 0-14.95-10.6-14.95-23.7 0-13.09 6.7-23.7 14.95-23.7 8.26 0 14.95 10.61 14.95 23.7" fill="#FFF"/>
    <path d="M302.1 202.27c0 15.37-7.85 27.83-17.54 27.83-9.7 0-17.56-12.46-17.56-27.83 0-15.37 7.86-27.83 17.56-27.83 9.69 0 17.55 12.46 17.55 27.83" fill="#EAEAEA"/>
    <path d="M300.22 202.27c0 12.94-6.62 23.43-14.78 23.43s-14.78-10.49-14.78-23.43 6.62-23.43 14.78-23.43 14.78 10.49 14.78 23.43" fill="#FFF"/>
    <path fill="#333" d="M280.4 167.45l-90.35.37v-1.89l89.91.63z"/>
    <path d="M273.24 129.88h-30.76c-6.57 0-5.49-23.2-4.8-32.34a8.11 8.11 0 00-2.46-6.5c-18.11-17.15-37.1-4.98-40.41-1.72l-15.15 43.35c-.89 2.4-4.72 6.36-7.87 6.36l-112.84-2.05c-4.73 0-12.03-1.68-10.7-5.27l11.21-44.65c1.05-4.42-2.2-3.86-4.5 1.27l-22.73 53.15-5.65 13.2c-1.9 4.6-4.33 9.37-8.48 11.95-6.16 3.83-8.04 9.35-9.41 20.05-.65 5.05 2.8 9.18 7.72 9.18h140.5c4.4 0 11.83 1.18 16.56-3.35 4.72-4.52 4.23-26.17 4.23-26.17.9-2.22 0 0 2.32 0H282.9c6.52 0 13.51 7.56 16.99 11.9.61.77 1.82.2 1.66-.8-2.08-12.98-10.25-47.56-28.3-47.56" fill="#FFF"/>
    <path d="M301.37 176.37c-.34.45-1.05.57-1.49.03-3.47-4.34-10.46-11.9-16.98-11.9H180.02c-2.32 0-2.63 1.43-3.53 3.65l-2.63 17.41c-.5 3.3-2.83 6-5.94 6.9a45.75 45.75 0 01-11.02 1.57H16.27c-4 0-7.07-2.12-7.53-5.57-.54 4.51 2.86 7.4 7.53 7.4H156.9c4.36.64 10.09.08 13.34-1.04 3.89-1.33 6.59-5.5 6.84-9.73.42-7.2 1.34-18.75 2.94-18.75H282.9c6.52 0 13.51 7.56 16.98 11.9.62.77 1.83.2 1.67-.8l-.18-1.07" fill="#BFBFBF"/>
    <path d="M119.13 212.26H44.37a14.19 14.19 0 01-14.16-14.13v-.51c0-7.77 6.37-14.13 14.16-14.13h74.76c7.79 0 14.16 6.36 14.16 14.13v.5c0 7.78-6.37 14.14-14.16 14.14" fill="#B2B2B2"/>
    <path d="M143.71 185.83c.8-2.08-.02-5.2-.9-6.08-3.1-3.15-4.02-2.96-10.26-2.96h-93.2c-11.88 0-21.6 9.71-21.6 21.58a21.65 21.65 0 0021.6 21.57h93.2c3.5 0 8.03.1 10.83 0 1.1-.04 1.8-1.27 1.27-2.27-4.5-8.48-4.49-22.5-.94-31.84" fill="#FFF"/>
    <path d="M198.72 101.84l-10.53 32.81c-2 6.22 3.33 27.3 8.27 27.3h79.9c5.48 0 9.93-4.23 9.93-9.45v-4.23c0-2.66-1.18-5.2-3.25-7l-3.29-2.84a10.2 10.2 0 00-6.67-2.46H245c-4.5 0-8.53-2.86-9.6-7.03a6.14 6.14 0 01-.2-1.5c0-2.4 1.13-17.42 1.13-18.94 0-7.86-12.95-14.5-26.14-13.16-5.1.52-9.98 1.84-11.48 6.5" fill="#F4F4F4"/>
    <path d="M227.7 206.96c1.7 0 3.07-1.72 3.07-3.86 0-2.13-1.37-3.85-3.06-3.85-1.7 0-3.07 1.72-3.07 3.85 0 2.14 1.37 3.86 3.07 3.86M252.51 206.96c1.7 0 3.07-1.72 3.07-3.86 0-2.13-1.37-3.85-3.07-3.85-1.7 0-3.07 1.72-3.07 3.85 0 2.14 1.38 3.86 3.07 3.86" fill="#545454"/>
    <path fill="#333" d="M279.96 238.47h-89.91v-1.37l89.91.45z"/>
    <path d="M194.6 191.76c0 1.79 1.4 3.23 3.13 3.23a3.18 3.18 0 003.12-3.23c0-1.79-1.4-3.23-3.12-3.23a3.18 3.18 0 00-3.13 3.23M194.6 212.79c0 1.78 1.4 3.23 3.13 3.23a3.18 3.18 0 003.12-3.23c0-1.79-1.4-3.24-3.12-3.24a3.18 3.18 0 00-3.13 3.24M189.1 205.5a3.18 3.18 0 003.12-3.23c0-1.78-1.4-3.23-3.12-3.23a3.18 3.18 0 00-3.13 3.23c0 1.79 1.4 3.24 3.13 3.24M205.6 205.5a3.18 3.18 0 003.13-3.23c0-1.78-1.4-3.23-3.13-3.23a3.18 3.18 0 00-3.12 3.23c0 1.79 1.4 3.24 3.12 3.24M195.84 203.47h4.14c.64 0 1.17-.53 1.17-1.18v-.04c0-.64-.53-1.17-1.17-1.17h-4.14c-.64 0-1.17.53-1.17 1.17v.04c0 .65.53 1.18 1.17 1.18" fill="#545454"/>
    <path d="M199.06 204.48v-4.4a1.15 1.15 0 00-2.3 0v4.4a1.15 1.15 0 002.3 0M283.42 191.76c0 1.79 1.4 3.23 3.12 3.23a3.18 3.18 0 003.12-3.23c0-1.79-1.4-3.23-3.12-3.23a3.18 3.18 0 00-3.12 3.23M283.42 212.79c0 1.78 1.4 3.23 3.12 3.23a3.18 3.18 0 003.12-3.23c0-1.79-1.4-3.24-3.12-3.24a3.18 3.18 0 00-3.12 3.24M277.91 205.5a3.18 3.18 0 003.13-3.23c0-1.78-1.4-3.23-3.13-3.23a3.18 3.18 0 00-3.12 3.23c0 1.79 1.4 3.24 3.12 3.24M294.41 205.5a3.18 3.18 0 003.13-3.23c0-1.78-1.4-3.23-3.13-3.23a3.18 3.18 0 00-3.12 3.23c0 1.79 1.4 3.24 3.12 3.24M284.65 203.47h4.14c.64 0 1.17-.53 1.17-1.18v-.04c0-.64-.53-1.17-1.17-1.17h-4.14c-.64 0-1.17.53-1.17 1.17v.04c0 .65.53 1.18 1.17 1.18" fill="#545454"/>
    <path d="M287.87 204.48v-4.4a1.15 1.15 0 00-2.3 0v4.4a1.15 1.15 0 002.3 0" fill="#545454"/>
    <path d="M195.46 84.59c-1.45 1.5-8.4 27.05-12.44 37.91-3.2 8.6-10.4 9.17-11.29 9.5-3.01 1.1-97.38.58-114.35 0-11.14-.39-10.33-5.97-10.26-6.52.56-4.41 13-40.33 13-40.33s-.65-2.83-2.43.03L39.75 130.3c-2.9 8.37 4.07 14.48 8.6 14.32 0 0 119.9 1.99 124.77 1.99 8.5 0 10.85-7.34 12.75-12.8 1.01-2.92 7.5-25.87 12.35-39.22 1.99-5.49 5.35-6.35 7.53-6.94 6.14-1.65 19.13-1.3 29.37 5.27 3.42 2.2.8-3.99-6.73-7.67-10.11-4.96-29.96-3.71-32.93-.65" fill="#F4F4F4"/>
    <path d="M134.34 191.8c.97-1.97 1.34-3.25 0-5.04-1.05-1.41-3-1.83-5.32-1.83h-85.4c-10.57 0-13.41 6.6-13.41 12.37v11.34c0 5.77 6.9 10.44 13.4 10.44h89.48c1.52 0 2.87-1.6 1.93-2.7-2.14-2.5-3.92-17.99-.68-24.58z" stroke="#E2E2E2" stroke-width="1.68"/>
    <g transform="translate(50.44 169.85)">
      <mask id="d" fill="#fff">
        <use xlink:href="#c"/>
      </mask>
      <path d="M18.78.73C15.15 3.8-2.96 28.58 13.16 59.05a.63.63 0 01-.56.93H1.6a1.24 1.24 0 00-.78 2.2l33.22 26.6c.62.5 1.54.3 1.89-.42l12.71-26.2c.4-.8-.18-1.75-1.09-1.77l-16.17-.4a1.24 1.24 0 01-1.08-.67c-2.22-4.36-13.27-29.6 13.05-56.04.75-.76.24-2.05-.82-2.1L19.65.43c-.32-.02-.63.09-.87.3" fill="#FFDF5A" mask="url(#d)"/>
    </g>
    <g transform="translate(92.89 74.05)">
      <mask id="g" fill="#fff">
        <use xlink:href="#f"/>
      </mask>
      <path fill="#7C7C7C" mask="url(#g)" d="M-2.56 4.41h72.9l1.92-6H-.64z"/>
    </g>
    <g transform="translate(83.72 19.65)">
      <mask id="i" fill="#fff">
        <use xlink:href="#h"/>
      </mask>
      <path fill="#707070" mask="url(#i)" d="M-2.78 7.19h9.81l2.79-8.71H.02z"/>
    </g>
    <g transform="translate(75.04 46.13)">
      <mask id="k" fill="#fff">
        <use xlink:href="#j"/>
      </mask>
      <path fill="#707070" mask="url(#k)" d="M-2.68 7.52h9.81l2.79-8.7H.12z"/>
    </g>
    <g transform="translate(79.38 32.65)">
      <mask id="m" fill="#fff">
        <use xlink:href="#l"/>
      </mask>
      <path fill="#707070" mask="url(#m)" d="M-2.73 7.6h9.81l2.79-8.71H.07z"/>
    </g>
    <g transform="translate(71.18 59.13)">
      <mask id="o" fill="#fff">
        <use xlink:href="#n"/>
      </mask>
      <path fill="#707070" mask="url(#o)" d="M-3 7.58h9.81L9.6-1.13H-.2z"/>
    </g>
    <g transform="translate(81.8 26.4)">
      <mask id="q" fill="#fff">
        <use xlink:href="#p"/>
      </mask>
      <path fill="#707070" mask="url(#q)" d="M-3 7.15h9.82l2.78-8.7H-.2z"/>
    </g>
    <g transform="translate(73.11 52.87)">
      <mask id="s" fill="#fff">
        <use xlink:href="#r"/>
      </mask>
      <path fill="#707070" mask="url(#s)" d="M-2.78 7.13h9.8l2.8-8.7H0z"/>
    </g>
    <g transform="translate(77.45 39.39)">
      <mask id="u" fill="#fff">
        <use xlink:href="#t"/>
      </mask>
      <path fill="#707070" mask="url(#u)" d="M-2.94 7.56h9.8l2.8-8.71H-.16z"/>
    </g>
    <g transform="translate(68.77 65.87)">
      <mask id="w" fill="#fff">
        <use xlink:href="#v"/>
      </mask>
      <path fill="#707070" mask="url(#w)" d="M-2.73 7.54h9.8l2.8-8.71H.06z"/>
    </g>
    <g transform="translate(143.53 19.65)">
      <mask id="y" fill="#fff">
        <use xlink:href="#x"/>
      </mask>
      <path fill="#707070" mask="url(#y)" d="M-2.83 7.19h9.81l2.79-8.71h-9.8z"/>
    </g>
    <g transform="translate(134.85 46.13)">
      <mask id="A" fill="#fff">
        <use xlink:href="#z"/>
      </mask>
      <path fill="#707070" mask="url(#A)" d="M-2.73 7.52h9.81l2.79-8.7H.07z"/>
    </g>
    <g transform="translate(139.19 32.65)">
      <mask id="C" fill="#fff">
        <use xlink:href="#B"/>
      </mask>
      <path fill="#707070" mask="url(#C)" d="M-2.78 7.6h9.81l2.79-8.71H.02z"/>
    </g>
    <g transform="translate(130.99 59.13)">
      <mask id="E" fill="#fff">
        <use xlink:href="#D"/>
      </mask>
      <path fill="#707070" mask="url(#E)" d="M-3.05 7.58h9.81l2.79-8.71h-9.8z"/>
    </g>
    <g transform="translate(141.6 26.4)">
      <mask id="G" fill="#fff">
        <use xlink:href="#F"/>
      </mask>
      <path fill="#707070" mask="url(#G)" d="M-3.04 7.15h9.8l2.8-8.7H-.26z"/>
    </g>
    <g transform="translate(132.92 52.87)">
      <mask id="I" fill="#fff">
        <use xlink:href="#H"/>
      </mask>
      <path fill="#707070" mask="url(#I)" d="M-2.83 7.13h9.8l2.8-8.7H-.04z"/>
    </g>
    <g transform="translate(137.26 39.39)">
      <mask id="K" fill="#fff">
        <use xlink:href="#J"/>
      </mask>
      <path fill="#707070" mask="url(#K)" d="M-3 7.56h9.81l2.8-8.71H-.2z"/>
    </g>
    <g transform="translate(128.58 65.87)">
      <mask id="M" fill="#fff">
        <use xlink:href="#L"/>
      </mask>
      <path fill="#707070" mask="url(#M)" d="M-2.78 7.54h9.8l2.8-8.71H0z"/>
    </g>
    <g transform="translate(113.63 19.65)">
      <mask id="O" fill="#fff">
        <use xlink:href="#N"/>
      </mask>
      <path fill="#707070" mask="url(#O)" d="M-2.8 7.19H7l2.8-8.71H-.01z"/>
    </g>
    <g transform="translate(104.95 46.13)">
      <mask id="Q" fill="#fff">
        <use xlink:href="#P"/>
      </mask>
      <path fill="#3ED5FF" mask="url(#Q)" d="M-2.7 7.52h9.8l2.8-8.7H.08z"/>
    </g>
    <g transform="translate(109.29 32.65)">
      <mask id="S" fill="#fff">
        <use xlink:href="#R"/>
      </mask>
      <path fill="#707070" mask="url(#S)" d="M-2.75 7.6h9.8l2.8-8.71H.04z"/>
    </g>
    <g transform="translate(101.09 59.13)">
      <mask id="U" fill="#fff">
        <use xlink:href="#T"/>
      </mask>
      <path fill="#707070" mask="url(#U)" d="M-3.02 7.58h9.8l2.8-8.71H-.24z"/>
    </g>
    <g transform="translate(111.7 26.4)">
      <mask id="W" fill="#fff">
        <use xlink:href="#V"/>
      </mask>
      <path fill="#707070" mask="url(#W)" d="M-3.02 7.15H6.8l2.79-8.7h-9.8z"/>
    </g>
    <g transform="translate(103.02 52.87)">
      <mask id="Y" fill="#fff">
        <use xlink:href="#X"/>
      </mask>
      <path fill="#3ED5FF" mask="url(#Y)" d="M-2.8 7.13H7l2.8-8.7H-.03z"/>
    </g>
    <g transform="translate(107.36 39.39)">
      <mask id="aa" fill="#fff">
        <use xlink:href="#Z"/>
      </mask>
      <path fill="#3ED5FF" mask="url(#aa)" d="M-2.97 7.56h9.81l2.79-8.71h-9.8z"/>
    </g>
    <g transform="translate(98.68 65.87)">
      <mask id="ac" fill="#fff">
        <use xlink:href="#ab"/>
      </mask>
      <path fill="#707070" mask="url(#ac)" d="M-2.76 7.54h9.81l2.8-8.71H.02z"/>
    </g>
    <g transform="translate(173.43 19.65)">
      <mask id="ae" fill="#fff">
        <use xlink:href="#ad"/>
      </mask>
      <path fill="#707070" mask="url(#ae)" d="M-2.85 7.19h9.8l2.8-8.71H-.07z"/>
    </g>
    <g transform="translate(164.75 46.13)">
      <mask id="ag" fill="#fff">
        <use xlink:href="#af"/>
      </mask>
      <path fill="#3ED5FF" mask="url(#ag)" d="M-2.75 7.52h9.8l2.8-8.7H.03z"/>
    </g>
    <g transform="translate(169.1 32.65)">
      <mask id="ai" fill="#fff">
        <use xlink:href="#ah"/>
      </mask>
      <path fill="#707070" mask="url(#ai)" d="M-2.9 7.6h9.81L9.7-1.11H-.1z"/>
    </g>
    <g transform="translate(160.41 59.13)">
      <mask id="ak" fill="#fff">
        <use xlink:href="#aj"/>
      </mask>
      <path fill="#707070" mask="url(#ak)" d="M-2.59 7.58h9.8l2.8-8.71H.2z"/>
    </g>
    <g transform="translate(171.02 26.4)">
      <mask id="am" fill="#fff">
        <use xlink:href="#al"/>
      </mask>
      <path fill="#707070" mask="url(#am)" d="M-2.59 7.15h9.81l2.8-8.7H.2z"/>
    </g>
    <g transform="translate(162.82 52.87)">
      <mask id="ao" fill="#fff">
        <use xlink:href="#an"/>
      </mask>
      <path fill="#707070" mask="url(#ao)" d="M-2.86 7.13h9.81l2.79-8.7h-9.8z"/>
    </g>
    <g transform="translate(167.16 39.39)">
      <mask id="aq" fill="#fff">
        <use xlink:href="#ap"/>
      </mask>
      <path fill="#3ED5FF" mask="url(#aq)" d="M-3.02 7.56h9.8l2.8-8.71h-9.8z"/>
    </g>
    <g transform="translate(158.48 65.87)">
      <mask id="as" fill="#fff">
        <use xlink:href="#ar"/>
      </mask>
      <path fill="#707070" mask="url(#as)" d="M-2.8 7.54H7L9.8-1.17h-9.8z"/>
    </g>
    <g transform="translate(98.68 19.65)">
      <mask id="au" fill="#fff">
        <use xlink:href="#at"/>
      </mask>
      <path fill="#707070" mask="url(#au)" d="M-2.59 7.19h9.8l2.8-8.71H.2z"/>
    </g>
    <g transform="translate(90.48 46.13)">
      <mask id="aw" fill="#fff">
        <use xlink:href="#av"/>
      </mask>
      <path fill="#3ED5FF" mask="url(#aw)" d="M-2.97 7.52h9.8l2.8-8.7H-.19z"/>
    </g>
    <g transform="translate(94.82 32.65)">
      <mask id="ay" fill="#fff">
        <use xlink:href="#ax"/>
      </mask>
      <path fill="#707070" mask="url(#ay)" d="M-3.02 7.6h9.8l2.8-8.71H-.24z"/>
    </g>
    <g transform="translate(86.14 59.13)">
      <mask id="aA" fill="#fff">
        <use xlink:href="#az"/>
      </mask>
      <path fill="#707070" mask="url(#aA)" d="M-2.8 7.58H7l2.79-8.71H-.02z"/>
    </g>
    <g transform="translate(96.75 26.4)">
      <mask id="aC" fill="#fff">
        <use xlink:href="#aB"/>
      </mask>
      <path fill="#707070" mask="url(#aC)" d="M-2.8 7.15H7l2.8-8.7H-.03z"/>
    </g>
    <g transform="translate(88.06 52.87)">
      <mask id="aE" fill="#fff">
        <use xlink:href="#aD"/>
      </mask>
      <path fill="#707070" mask="url(#aE)" d="M-2.6 7.13h9.81l2.8-8.7H.2z"/>
    </g>
    <g transform="translate(92.4 39.39)">
      <mask id="aG" fill="#fff">
        <use xlink:href="#aF"/>
      </mask>
      <path fill="#3ED5FF" mask="url(#aG)" d="M-2.76 7.56h9.81l2.8-8.71H.02z"/>
    </g>
    <g transform="translate(84.2 65.87)">
      <mask id="aI" fill="#fff">
        <use xlink:href="#aH"/>
      </mask>
      <path fill="#707070" mask="url(#aI)" d="M-3.03 7.54h9.81l2.79-8.71h-9.8z"/>
    </g>
    <g transform="translate(158.48 19.65)">
      <mask id="aK" fill="#fff">
        <use xlink:href="#aJ"/>
      </mask>
      <path fill="#707070" mask="url(#aK)" d="M-2.64 7.19h9.8l2.8-8.71H.15z"/>
    </g>
    <g transform="translate(150.28 46.13)">
      <mask id="aM" fill="#fff">
        <use xlink:href="#aL"/>
      </mask>
      <path fill="#3ED5FF" mask="url(#aM)" d="M-3.02 7.52h9.8l2.8-8.7H-.24z"/>
    </g>
    <g transform="translate(154.14 32.65)">
      <mask id="aO" fill="#fff">
        <use xlink:href="#aN"/>
      </mask>
      <path fill="#707070" mask="url(#aO)" d="M-2.63 7.6h9.8l2.8-8.71H.16z"/>
    </g>
    <g transform="translate(145.94 59.13)">
      <mask id="aQ" fill="#fff">
        <use xlink:href="#aP"/>
      </mask>
      <path fill="#707070" mask="url(#aQ)" d="M-2.86 7.58h9.8l2.8-8.71H-.07z"/>
    </g>
    <g transform="translate(156.55 26.4)">
      <mask id="aS" fill="#fff">
        <use xlink:href="#aR"/>
      </mask>
      <path fill="#707070" mask="url(#aS)" d="M-2.86 7.15h9.81l2.79-8.7h-9.8z"/>
    </g>
    <g transform="translate(147.87 52.87)">
      <mask id="aU" fill="#fff">
        <use xlink:href="#aT"/>
      </mask>
      <path fill="#3ED5FF" mask="url(#aU)" d="M-2.64 7.13h9.8l2.8-8.7H.13z"/>
    </g>
    <g transform="translate(152.21 39.39)">
      <mask id="aW" fill="#fff">
        <use xlink:href="#aV"/>
      </mask>
      <path fill="#707070" mask="url(#aW)" d="M-2.8 7.56H7L9.8-1.15h-9.8z"/>
    </g>
    <g transform="translate(143.53 65.87)">
      <mask id="aY" fill="#fff">
        <use xlink:href="#aX"/>
      </mask>
      <path fill="#707070" mask="url(#aY)" d="M-2.6 7.54h9.81l2.8-8.71H.18z"/>
    </g>
    <g transform="translate(128.58 19.65)">
      <mask id="ba" fill="#fff">
        <use xlink:href="#aZ"/>
      </mask>
      <path fill="#707070" mask="url(#ba)" d="M-2.61 7.19h9.8L10-1.52H.16z"/>
    </g>
    <g transform="translate(120.38 46.13)">
      <mask id="bc" fill="#fff">
        <use xlink:href="#bb"/>
      </mask>
      <path fill="#707070" mask="url(#bc)" d="M-3 7.52h9.81l2.79-8.7H-.2z"/>
    </g>
    <g transform="translate(124.72 32.65)">
      <mask id="be" fill="#fff">
        <use xlink:href="#bd"/>
      </mask>
      <path fill="#707070" mask="url(#be)" d="M-3.05 7.6h9.81l2.79-8.71h-9.8z"/>
    </g>
    <g transform="translate(116.04 59.13)">
      <mask id="bg" fill="#fff">
        <use xlink:href="#bf"/>
      </mask>
      <path fill="#707070" mask="url(#bg)" d="M-2.83 7.58h9.8l2.8-8.71H-.06z"/>
    </g>
    <g transform="translate(126.65 26.4)">
      <mask id="bi" fill="#fff">
        <use xlink:href="#bh"/>
      </mask>
      <path fill="#707070" mask="url(#bi)" d="M-2.83 7.15h9.8l2.8-8.7H-.04z"/>
    </g>
    <g transform="translate(117.97 52.87)">
      <mask id="bk" fill="#fff">
        <use xlink:href="#bj"/>
      </mask>
      <path fill="#707070" mask="url(#bk)" d="M-2.62 7.13h9.8l2.8-8.7H.17z"/>
    </g>
    <g transform="translate(122.3 39.39)">
      <mask id="bm" fill="#fff">
        <use xlink:href="#bl"/>
      </mask>
      <path fill="#707070" mask="url(#bm)" d="M-2.78 7.56h9.8l2.8-8.71H0z"/>
    </g>
    <g transform="translate(114.1 65.87)">
      <mask id="bo" fill="#fff">
        <use xlink:href="#bn"/>
      </mask>
      <path fill="#707070" mask="url(#bo)" d="M-3.05 7.54h9.8l2.8-8.71H-.27z"/>
    </g>
    <g transform="translate(188.39 19.65)">
      <mask id="bq" fill="#fff">
        <use xlink:href="#bp"/>
      </mask>
      <path fill="#707070" mask="url(#bq)" d="M-2.66 7.19h9.8l2.8-8.71H.11z"/>
    </g>
    <g transform="translate(180.19 46.13)">
      <mask id="bs" fill="#fff">
        <use xlink:href="#br"/>
      </mask>
      <path fill="#3ED5FF" mask="url(#bs)" d="M-3.05 7.52h9.81l2.79-8.7H-.26z"/>
    </g>
    <g transform="translate(184.05 32.65)">
      <mask id="bu" fill="#fff">
        <use xlink:href="#bt"/>
      </mask>
      <path fill="#707070" mask="url(#bu)" d="M-2.62 7.6H7.2l2.79-8.71H.18z"/>
    </g>
    <g transform="translate(175.85 59.13)">
      <mask id="bw" fill="#fff">
        <use xlink:href="#bv"/>
      </mask>
      <path fill="#707070" mask="url(#bw)" d="M-2.89 7.58h9.81l2.79-8.71h-9.8z"/>
    </g>
    <g transform="translate(186.46 26.4)">
      <mask id="by" fill="#fff">
        <use xlink:href="#bx"/>
      </mask>
      <path fill="#707070" mask="url(#by)" d="M-2.88 7.15h9.8l2.8-8.7H-.1z"/>
    </g>
    <g transform="translate(177.77 52.87)">
      <mask id="bA" fill="#fff">
        <use xlink:href="#bz"/>
      </mask>
      <path fill="#3ED5FF" mask="url(#bA)" d="M-2.67 7.13h9.8l2.8-8.7H.12z"/>
    </g>
    <g transform="translate(182.12 39.39)">
      <mask id="bC" fill="#fff">
        <use xlink:href="#bB"/>
      </mask>
      <path fill="#707070" mask="url(#bC)" d="M-2.83 7.56h9.8l2.8-8.71H-.05z"/>
    </g>
    <g transform="translate(173.43 65.87)">
      <mask id="bE" fill="#fff">
        <use xlink:href="#bD"/>
      </mask>
      <path fill="#707070" mask="url(#bE)" d="M-2.62 7.54h9.8l2.8-8.71H.17z"/>
    </g>
    <g transform="translate(91.44 19.65)">
      <mask id="bG" fill="#fff">
        <use xlink:href="#bF"/>
      </mask>
      <path fill="#707070" mask="url(#bG)" d="M-2.92 7.19h9.8l2.8-8.71H-.15z"/>
    </g>
    <g transform="translate(82.76 46.13)">
      <mask id="bI" fill="#fff">
        <use xlink:href="#bH"/>
      </mask>
      <path fill="#3ED5FF" mask="url(#bI)" d="M-2.82 7.52h9.8l2.8-8.7H-.05z"/>
    </g>
    <g transform="translate(87.1 32.65)">
      <mask id="bK" fill="#fff">
        <use xlink:href="#bJ"/>
      </mask>
      <path fill="#707070" mask="url(#bK)" d="M-2.87 7.6h9.8l2.8-8.71H-.1z"/>
    </g>
    <g transform="translate(78.42 59.13)">
      <mask id="bM" fill="#fff">
        <use xlink:href="#bL"/>
      </mask>
      <path fill="#707070" mask="url(#bM)" d="M-2.66 7.58h9.8l2.8-8.71H.12z"/>
    </g>
    <g transform="translate(89.03 26.4)">
      <mask id="bO" fill="#fff">
        <use xlink:href="#bN"/>
      </mask>
      <path fill="#707070" mask="url(#bO)" d="M-2.66 7.15h9.81l2.79-8.7H.14z"/>
    </g>
    <g transform="translate(80.83 52.87)">
      <mask id="bQ" fill="#fff">
        <use xlink:href="#bP"/>
      </mask>
      <path fill="#3ED5FF" mask="url(#bQ)" d="M-2.93 7.13h9.81l2.79-8.7h-9.8z"/>
    </g>
    <g transform="translate(84.69 39.39)">
      <mask id="bS" fill="#fff">
        <use xlink:href="#bR"/>
      </mask>
      <path fill="#707070" mask="url(#bS)" d="M-2.6 7.56h9.8l2.79-8.71H.19z"/>
    </g>
    <g transform="translate(76.49 65.87)">
      <mask id="bU" fill="#fff">
        <use xlink:href="#bT"/>
      </mask>
      <path fill="#707070" mask="url(#bU)" d="M-2.88 7.54h9.81l2.79-8.71h-9.8z"/>
    </g>
    <g transform="translate(151.25 19.65)">
      <mask id="bW" fill="#fff">
        <use xlink:href="#bV"/>
      </mask>
      <path fill="#707070" mask="url(#bW)" d="M-2.97 7.19h9.8l2.8-8.71H-.2z"/>
    </g>
    <g transform="translate(142.57 46.13)">
      <mask id="bY" fill="#fff">
        <use xlink:href="#bX"/>
      </mask>
      <path fill="#707070" mask="url(#bY)" d="M-2.87 7.52h9.8l2.8-8.7H-.1z"/>
    </g>
    <g transform="translate(146.9 32.65)">
      <mask id="ca" fill="#fff">
        <use xlink:href="#bZ"/>
      </mask>
      <path fill="#707070" mask="url(#ca)" d="M-2.92 7.6h9.8l2.8-8.71H-.15z"/>
    </g>
    <g transform="translate(138.23 59.13)">
      <mask id="cc" fill="#fff">
        <use xlink:href="#cb"/>
      </mask>
      <path fill="#707070" mask="url(#cc)" d="M-2.71 7.58h9.8l2.8-8.71H.07z"/>
    </g>
    <g transform="translate(148.84 26.4)">
      <mask id="ce" fill="#fff">
        <use xlink:href="#cd"/>
      </mask>
      <path fill="#707070" mask="url(#ce)" d="M-2.7 7.15h9.8l2.79-8.7H.09z"/>
    </g>
    <g transform="translate(140.64 52.87)">
      <mask id="cg" fill="#fff">
        <use xlink:href="#cf"/>
      </mask>
      <path fill="#707070" mask="url(#cg)" d="M-2.98 7.13h9.8l2.8-8.7h-9.8z"/>
    </g>
    <g transform="translate(144.5 39.39)">
      <mask id="ci" fill="#fff">
        <use xlink:href="#ch"/>
      </mask>
      <path fill="#707070" mask="url(#ci)" d="M-2.66 7.56h9.8l2.8-8.71H.13z"/>
    </g>
    <g transform="translate(136.3 65.87)">
      <mask id="ck" fill="#fff">
        <use xlink:href="#cj"/>
      </mask>
      <path fill="#707070" mask="url(#ck)" d="M-2.93 7.54h9.8l2.8-8.71H-.14z"/>
    </g>
    <g transform="translate(121.34 19.65)">
      <mask id="cm" fill="#fff">
        <use xlink:href="#cl"/>
      </mask>
      <path fill="#707070" mask="url(#cm)" d="M-2.95 7.19h9.8l2.8-8.71H-.16z"/>
    </g>
    <g transform="translate(112.66 46.13)">
      <mask id="co" fill="#fff">
        <use xlink:href="#cn"/>
      </mask>
      <path fill="#3ED5FF" mask="url(#co)" d="M-2.85 7.52h9.8l2.8-8.7H-.06z"/>
    </g>
    <g transform="translate(117 32.65)">
      <mask id="cq" fill="#fff">
        <use xlink:href="#cp"/>
      </mask>
      <path fill="#707070" mask="url(#cq)" d="M-2.9 7.6h9.8l2.8-8.71H-.11z"/>
    </g>
    <g transform="translate(108.32 59.13)">
      <mask id="cs" fill="#fff">
        <use xlink:href="#cr"/>
      </mask>
      <path fill="#707070" mask="url(#cs)" d="M-2.69 7.58h9.81l2.79-8.71H.1z"/>
    </g>
    <g transform="translate(118.93 26.4)">
      <mask id="cu" fill="#fff">
        <use xlink:href="#ct"/>
      </mask>
      <path fill="#707070" mask="url(#cu)" d="M-2.68 7.15h9.8l2.8-8.7H.1z"/>
    </g>
    <g transform="translate(110.73 52.87)">
      <mask id="cw" fill="#fff">
        <use xlink:href="#cv"/>
      </mask>
      <path fill="#3ED5FF" mask="url(#cw)" d="M-2.95 7.13h9.8l2.8-8.7H-.17z"/>
    </g>
    <g transform="translate(114.6 39.39)">
      <mask id="cy" fill="#fff">
        <use xlink:href="#cx"/>
      </mask>
      <path fill="#707070" mask="url(#cy)" d="M-2.63 7.56h9.8l2.8-8.71H.15z"/>
    </g>
    <g transform="translate(106.4 65.87)">
      <mask id="cA" fill="#fff">
        <use xlink:href="#cz"/>
      </mask>
      <path fill="#707070" mask="url(#cA)" d="M-2.9 7.54h9.8l2.8-8.71H-.12z"/>
    </g>
    <g transform="translate(181.15 19.65)">
      <mask id="cC" fill="#fff">
        <use xlink:href="#cB"/>
      </mask>
      <path fill="#707070" mask="url(#cC)" d="M-3 7.19h9.8l2.8-8.71H-.21z"/>
    </g>
    <g transform="translate(172.47 46.13)">
      <mask id="cE" fill="#fff">
        <use xlink:href="#cD"/>
      </mask>
      <path fill="#3ED5FF" mask="url(#cE)" d="M-2.9 7.52h9.8l2.8-8.7H-.11z"/>
    </g>
    <g transform="translate(176.33 32.65)">
      <mask id="cG" fill="#fff">
        <use xlink:href="#cF"/>
      </mask>
      <path fill="#707070" mask="url(#cG)" d="M-2.61 7.6h9.8L10-1.11H.17z"/>
    </g>
    <g transform="translate(168.13 59.13)">
      <mask id="cI" fill="#fff">
        <use xlink:href="#cH"/>
      </mask>
      <path fill="#707070" mask="url(#cI)" d="M-2.74 7.58h9.81l2.79-8.71H.06z"/>
    </g>
    <g transform="translate(178.74 26.4)">
      <mask id="cK" fill="#fff">
        <use xlink:href="#cJ"/>
      </mask>
      <path fill="#707070" mask="url(#cK)" d="M-2.73 7.15h9.8l2.8-8.7H.05z"/>
    </g>
    <g transform="translate(170.54 52.87)">
      <mask id="cM" fill="#fff">
        <use xlink:href="#cL"/>
      </mask>
      <path fill="#707070" mask="url(#cM)" d="M-3 7.13h9.8l2.8-8.7H-.23z"/>
    </g>
    <g transform="translate(174.4 39.39)">
      <mask id="cO" fill="#fff">
        <use xlink:href="#cN"/>
      </mask>
      <path fill="#3ED5FF" mask="url(#cO)" d="M-2.68 7.56h9.8l2.8-8.71H.1z"/>
    </g>
    <g transform="translate(166.2 65.87)">
      <mask id="cQ" fill="#fff">
        <use xlink:href="#cP"/>
      </mask>
      <path fill="#707070" mask="url(#cQ)" d="M-2.95 7.54h9.8l2.8-8.71H-.18z"/>
    </g>
    <g transform="translate(105.91 19.65)">
      <mask id="cS" fill="#fff">
        <use xlink:href="#cR"/>
      </mask>
      <path fill="#707070" mask="url(#cS)" d="M-2.65 7.19h9.8l2.8-8.71H.13z"/>
    </g>
    <g transform="translate(97.71 46.13)">
      <mask id="cU" fill="#fff">
        <use xlink:href="#cT"/>
      </mask>
      <path fill="#3ED5FF" mask="url(#cU)" d="M-3.04 7.52h9.81l2.79-8.7h-9.8z"/>
    </g>
    <g transform="translate(101.57 32.65)">
      <mask id="cW" fill="#fff">
        <use xlink:href="#cV"/>
      </mask>
      <path fill="#707070" mask="url(#cW)" d="M-2.6 7.6h9.8L10-1.11H.18z"/>
    </g>
    <g transform="translate(93.37 59.13)">
      <mask id="cY" fill="#fff">
        <use xlink:href="#cX"/>
      </mask>
      <path fill="#707070" mask="url(#cY)" d="M-2.87 7.58h9.8l2.8-8.71H-.09z"/>
    </g>
    <g transform="translate(103.98 26.4)">
      <mask id="da" fill="#fff">
        <use xlink:href="#cZ"/>
      </mask>
      <path fill="#707070" mask="url(#da)" d="M-2.87 7.15h9.8l2.8-8.7H-.08z"/>
    </g>
    <g transform="translate(95.3 52.87)">
      <mask id="dc" fill="#fff">
        <use xlink:href="#db"/>
      </mask>
      <path fill="#707070" mask="url(#dc)" d="M-2.66 7.13h9.81l2.79-8.7H.14z"/>
    </g>
    <g transform="translate(99.64 39.39)">
      <mask id="de" fill="#fff">
        <use xlink:href="#dd"/>
      </mask>
      <path fill="#3ED5FF" mask="url(#de)" d="M-2.82 7.56h9.8l2.8-8.71H-.03z"/>
    </g>
    <g transform="translate(90.96 65.87)">
      <mask id="dg" fill="#fff">
        <use xlink:href="#df"/>
      </mask>
      <path fill="#707070" mask="url(#dg)" d="M-2.6 7.54h9.8l2.79-8.71H.19z"/>
    </g>
    <g transform="translate(165.72 19.65)">
      <mask id="di" fill="#fff">
        <use xlink:href="#dh"/>
      </mask>
      <path fill="#707070" mask="url(#di)" d="M-2.7 7.19h9.8l2.8-8.71H.07z"/>
    </g>
    <g transform="translate(157.04 46.13)">
      <mask id="dk" fill="#fff">
        <use xlink:href="#dj"/>
      </mask>
      <path fill="#3ED5FF" mask="url(#dk)" d="M-2.6 7.52h9.8l2.8-8.7H.17z"/>
    </g>
    <g transform="translate(161.38 32.65)">
      <mask id="dm" fill="#fff">
        <use xlink:href="#dl"/>
      </mask>
      <path fill="#707070" mask="url(#dm)" d="M-2.7 7.6h9.8l2.8-8.71H.08z"/>
    </g>
    <g transform="translate(153.18 59.13)">
      <mask id="do" fill="#fff">
        <use xlink:href="#dn"/>
      </mask>
      <path fill="#707070" mask="url(#do)" d="M-2.92 7.58h9.8l2.8-8.71H-.15z"/>
    </g>
    <g transform="translate(163.79 26.4)">
      <mask id="dq" fill="#fff">
        <use xlink:href="#dp"/>
      </mask>
      <path fill="#707070" mask="url(#dq)" d="M-2.92 7.15h9.8l2.8-8.7H-.13z"/>
    </g>
    <g transform="translate(155.1 52.87)">
      <mask id="ds" fill="#fff">
        <use xlink:href="#dr"/>
      </mask>
      <path fill="#3ED5FF" mask="url(#ds)" d="M-2.7 7.13h9.8l2.79-8.7H.09z"/>
    </g>
    <g transform="translate(159.45 39.39)">
      <mask id="du" fill="#fff">
        <use xlink:href="#dt"/>
      </mask>
      <path fill="#3ED5FF" mask="url(#du)" d="M-2.87 7.56h9.8l2.8-8.71H-.08z"/>
    </g>
    <g transform="translate(150.77 65.87)">
      <mask id="dw" fill="#fff">
        <use xlink:href="#dv"/>
      </mask>
      <path fill="#707070" mask="url(#dw)" d="M-2.66 7.54h9.81l2.79-8.71H.13z"/>
    </g>
    <g transform="translate(135.81 19.65)">
      <mask id="dy" fill="#fff">
        <use xlink:href="#dx"/>
      </mask>
      <path fill="#707070" mask="url(#dy)" d="M-2.68 7.19h9.8l2.8-8.71H.1z"/>
    </g>
    <g transform="translate(127.13 46.13)">
      <mask id="dA" fill="#fff">
        <use xlink:href="#dz"/>
      </mask>
      <path fill="#707070" mask="url(#dA)" d="M-2.58 7.52h9.8l2.8-8.7H.2z"/>
    </g>
    <g transform="translate(131.47 32.65)">
      <mask id="dC" fill="#fff">
        <use xlink:href="#dB"/>
      </mask>
      <path fill="#707070" mask="url(#dC)" d="M-2.63 7.6h9.8l2.8-8.71H.16z"/>
    </g>
    <g transform="translate(123.27 59.13)">
      <mask id="dE" fill="#fff">
        <use xlink:href="#dD"/>
      </mask>
      <path fill="#707070" mask="url(#dE)" d="M-2.9 7.58h9.8l2.8-8.71H-.11z"/>
    </g>
    <g transform="translate(133.88 26.4)">
      <mask id="dG" fill="#fff">
        <use xlink:href="#dF"/>
      </mask>
      <path fill="#707070" mask="url(#dG)" d="M-2.9 7.15h9.81l2.8-8.7H-.12z"/>
    </g>
    <g transform="translate(125.2 52.87)">
      <mask id="dI" fill="#fff">
        <use xlink:href="#dH"/>
      </mask>
      <path fill="#707070" mask="url(#dI)" d="M-2.68 7.13h9.8l2.8-8.7H.1z"/>
    </g>
    <g transform="translate(129.54 39.39)">
      <mask id="dK" fill="#fff">
        <use xlink:href="#dJ"/>
      </mask>
      <path fill="#707070" mask="url(#dK)" d="M-2.84 7.56h9.8l2.8-8.71H-.07z"/>
    </g>
    <g transform="translate(120.86 65.87)">
      <mask id="dM" fill="#fff">
        <use xlink:href="#dL"/>
      </mask>
      <path fill="#707070" mask="url(#dM)" d="M-2.63 7.54h9.8l2.8-8.71H.15z"/>
    </g>
    <g transform="translate(195.62 19.65)">
      <mask id="dO" fill="#fff">
        <use xlink:href="#dN"/>
      </mask>
      <path fill="#707070" mask="url(#dO)" d="M-2.73 7.19h9.8l2.8-8.71H.06z"/>
    </g>
    <g transform="translate(186.94 46.13)">
      <mask id="dQ" fill="#fff">
        <use xlink:href="#dP"/>
      </mask>
      <path fill="#707070" mask="url(#dQ)" d="M-2.63 7.52h9.8l2.8-8.7H.16z"/>
    </g>
    <g transform="translate(191.28 32.65)">
      <mask id="dS" fill="#fff">
        <use xlink:href="#dR"/>
      </mask>
      <path fill="#707070" mask="url(#dS)" d="M-2.68 7.6h9.8l2.8-8.71H.1z"/>
    </g>
    <g transform="translate(183.08 59.13)">
      <mask id="dU" fill="#fff">
        <use xlink:href="#dT"/>
      </mask>
      <path fill="#707070" mask="url(#dU)" d="M-2.95 7.58h9.8l2.8-8.71H-.16z"/>
    </g>
    <g transform="translate(193.7 26.4)">
      <mask id="dW" fill="#fff">
        <use xlink:href="#dV"/>
      </mask>
      <path fill="#707070" mask="url(#dW)" d="M-2.95 7.15h9.81l2.79-8.7h-9.8z"/>
    </g>
    <g transform="translate(185.01 52.87)">
      <mask id="dY" fill="#fff">
        <use xlink:href="#dX"/>
      </mask>
      <path fill="#707070" mask="url(#dY)" d="M-2.73 7.13h9.8l2.8-8.7H.05z"/>
    </g>
    <g transform="translate(189.35 39.39)">
      <mask id="ea" fill="#fff">
        <use xlink:href="#dZ"/>
      </mask>
      <path fill="#707070" mask="url(#ea)" d="M-2.9 7.56h9.81L9.7-1.15H-.1z"/>
    </g>
    <g transform="translate(180.67 65.87)">
      <mask id="ec" fill="#fff">
        <use xlink:href="#eb"/>
      </mask>
      <path fill="#707070" mask="url(#ec)" d="M-2.68 7.54h9.8l2.8-8.71H.1z"/>
    </g>
  </g>
</svg>
