<svg width="310" height="284" xmlns="http://www.w3.org/2000/svg" xmlns:xlink="http://www.w3.org/1999/xlink">
  <defs>
    <path d="M30.83.45c-7.96 0-16.31 5.78-18.57 12.84L.96 48.7c-2.25 7.08 2.41 12.86 10.37 12.86h105.9c7.96 0 16.32-5.78 18.57-12.85l11.3-35.4C149.36 6.22 144.7.44 136.74.44H30.83z" id="a"/>
    <path d="M2.23.45c-.86 0-1.76.62-2 1.39-.25.76.25 1.38 1.11 1.38h64.88c.87 0 1.76-.62 2-1.38.25-.77-.25-1.4-1.11-1.4H2.23z" id="b"/>
    <path d="M.44 2.75v.02c-.48 1.5.5 2.71 2.18 2.71 1.69 0 3.45-1.21 3.92-2.71l.01-.02c.48-1.5-.5-2.72-2.19-2.72C2.68.03.92 1.25.44 2.75z" id="d"/>
    <path d="M.54 3.07v.02c-.49 1.5.5 2.72 2.18 2.72 1.69 0 3.44-1.22 3.92-2.72v-.02c.49-1.5-.5-2.71-2.18-2.71C2.77.36 1.02 1.57.54 3.07z" id="f"/>
    <path d="M.5 3.15l-.02.02c-.47 1.5.5 2.71 2.2 2.71 1.68 0 3.43-1.21 3.91-2.71v-.02C7.09 1.65 6.1.43 4.42.43 2.72.43.97 1.65.5 3.15z" id="h"/>
    <path d="M.23 3.13l-.01.02c-.48 1.5.5 2.71 2.19 2.71 1.68 0 3.44-1.21 3.92-2.71v-.02C6.81 1.63 5.83.4 4.15.4 2.46.41.7 1.63.23 3.13z" id="j"/>
    <path d="M.23 3.19v.02c-.49 1.5.5 2.7 2.18 2.7 1.69 0 3.44-1.2 3.92-2.7v-.02c.49-1.5-.5-2.72-2.18-2.72C2.46.47.71 1.69.23 3.19z" id="l"/>
    <path d="M.44 3.16v.02c-.49 1.5.5 2.72 2.18 2.72 1.69 0 3.44-1.22 3.92-2.72v-.02c.48-1.5-.5-2.71-2.18-2.71C2.67.45.92 1.66.44 3.16z" id="n"/>
    <path d="M.28 3.11v.02c-.49 1.5.5 2.72 2.18 2.72 1.69 0 3.44-1.22 3.92-2.72v-.02C6.87 1.61 5.89.4 4.2.4 2.5.4.76 1.6.28 3.1z" id="p"/>
    <path d="M.49 3.09v.02C0 4.61.98 5.82 2.66 5.82c1.68 0 3.44-1.21 3.92-2.71v-.02C7.07 1.59 6.1.38 4.41.38 2.72.38.96 1.59.49 3.09z" id="r"/>
    <path d="M.4 2.75l-.01.02c-.48 1.5.5 2.71 2.18 2.71 1.69 0 3.45-1.21 3.92-2.71l.01-.02C6.98 1.25 6 .03 4.31.03 2.63.03.87 1.25.4 2.75z" id="t"/>
    <path d="M.49 3.07v.02C0 4.6.98 5.81 2.66 5.81c1.69 0 3.44-1.22 3.92-2.72v-.02C7.09 1.57 6.1.36 4.42.36 2.72.36.97 1.57.49 3.07z" id="v"/>
    <path d="M.44 3.15v.02c-.48 1.5.5 2.71 2.18 2.71 1.69 0 3.44-1.21 3.92-2.71v-.02c.49-1.5-.5-2.72-2.18-2.72C2.67.43.92 1.65.44 3.15z" id="x"/>
    <path d="M.18 3.13l-.01.02c-.48 1.5.5 2.71 2.19 2.71 1.68 0 3.44-1.21 3.92-2.71v-.02C6.76 1.63 5.78.4 4.1.4 2.4.41.65 1.63.18 3.13z" id="z"/>
    <path d="M.18 3.19v.02c-.49 1.5.5 2.7 2.18 2.7 1.69 0 3.44-1.2 3.92-2.7v-.02C6.78 1.69 5.79.47 4.1.47 2.41.47.66 1.69.18 3.19z" id="B"/>
    <path d="M.39 3.16v.02C-.1 4.68.88 5.9 2.56 5.9 4.26 5.9 6 4.68 6.49 3.18v-.02C6.98 1.66 6 .45 4.32.45 2.62.45.87 1.66.39 3.16z" id="D"/>
    <path d="M.23 3.11v.02c-.49 1.5.5 2.72 2.18 2.72 1.69 0 3.44-1.22 3.92-2.72v-.02C6.83 1.61 5.84.4 4.16.4 2.46.4.7 1.6.23 3.1z" id="F"/>
    <path d="M.44 3.09v.02c-.49 1.5.5 2.71 2.18 2.71 1.69 0 3.44-1.21 3.92-2.71v-.02c.48-1.5-.5-2.71-2.18-2.71C2.67.38.92 1.59.44 3.09z" id="H"/>
    <path d="M.42 2.75v.02c-.49 1.5.5 2.71 2.18 2.71 1.69 0 3.44-1.21 3.92-2.71v-.02C7 1.25 6.02.03 4.34.03 2.65.03.9 1.25.42 2.75z" id="J"/>
    <path d="M.51 3.07v.02C.03 4.6 1 5.81 2.7 5.81c1.68 0 3.44-1.22 3.92-2.72v-.02C7.1 1.57 6.12.36 4.44.36 2.74.36.99 1.57.5 3.07z" id="L"/>
    <path d="M.47 3.15l-.01.02c-.48 1.5.5 2.71 2.19 2.71 1.68 0 3.44-1.21 3.92-2.71v-.02C7.05 1.65 6.07.43 4.4.43 2.69.43.94 1.65.47 3.15z" id="N"/>
    <path d="M.2 3.13v.02c-.48 1.5.5 2.71 2.18 2.71 1.69 0 3.44-1.21 3.92-2.71v-.02C6.8 1.63 5.8.4 4.13.4 2.43.41.68 1.63.2 3.13z" id="P"/>
    <path d="M.2 3.19v.02c-.48 1.5.5 2.7 2.19 2.7 1.68 0 3.44-1.2 3.92-2.7v-.02C6.8 1.69 5.81.47 4.13.47 2.43.47.68 1.69.2 3.19z" id="R"/>
    <path d="M.41 3.16v.02C-.07 4.68.9 5.9 2.59 5.9c1.7 0 3.45-1.22 3.92-2.72l.01-.02C7 1.66 6.02.45 4.33.45 2.65.45.9 1.66.41 3.16z" id="T"/>
    <path d="M.25 3.11v.02c-.48 1.5.5 2.72 2.19 2.72 1.68 0 3.44-1.22 3.92-2.72v-.02C6.84 1.61 5.86.4 4.17.4 2.5.4.73 1.6.25 3.1z" id="V"/>
    <path d="M.46 3.09v.02c-.48 1.5.5 2.71 2.18 2.71 1.69 0 3.45-1.21 3.92-2.71l.01-.02c.48-1.5-.5-2.71-2.19-2.71C2.7.38.94 1.59.46 3.09z" id="X"/>
    <path d="M.37 2.75v.02c-.49 1.5.5 2.71 2.18 2.71 1.69 0 3.44-1.21 3.92-2.71v-.02C6.96 1.25 5.98.03 4.3.03 2.6.03.85 1.25.37 2.75z" id="Z"/>
    <path d="M.46 3.07v.02c-.48 1.5.5 2.72 2.19 2.72 1.68 0 3.44-1.22 3.92-2.72v-.02C7.05 1.57 6.07.36 4.4.36 2.69.36.94 1.57.46 3.07z" id="ab"/>
    <path d="M.32 3.15v.02c-.48 1.5.5 2.71 2.18 2.71 1.69 0 3.45-1.21 3.92-2.71l.01-.02c.48-1.5-.5-2.72-2.19-2.72C2.56.43.8 1.65.32 3.15z" id="ad"/>
    <path d="M.15 3.13v.02c-.48 1.5.5 2.71 2.18 2.71 1.69 0 3.44-1.21 3.92-2.71v-.02C6.75 1.63 5.76.4 4.08.4 2.38.41.63 1.63.15 3.13z" id="af"/>
    <path d="M.16 3.19l-.01.02c-.48 1.5.5 2.7 2.19 2.7 1.68 0 3.44-1.2 3.92-2.7v-.02c.48-1.5-.5-2.72-2.18-2.72C2.38.47.63 1.69.16 3.19z" id="ah"/>
    <path d="M.36 3.16v.02c-.48 1.5.5 2.72 2.18 2.72 1.7 0 3.45-1.22 3.93-2.72v-.02c.48-1.5-.5-2.71-2.19-2.71C2.6.45.84 1.66.36 3.16z" id="aj"/>
    <path d="M.2 3.11v.02c-.48 1.5.5 2.72 2.19 2.72 1.68 0 3.44-1.22 3.92-2.72v-.02C6.8 1.61 5.81.4 4.12.4 2.44.4.68 1.6.2 3.1z" id="al"/>
    <path d="M.41 3.09v.02c-.48 1.5.5 2.71 2.18 2.71 1.69 0 3.45-1.21 3.92-2.71l.01-.02C7 1.59 6.02.38 4.33.38 2.65.38.9 1.59.41 3.09z" id="an"/>
    <path d="M.15 2.75v.02c-.48 1.5.5 2.71 2.18 2.71 1.69 0 3.45-1.21 3.92-2.71l.01-.02c.48-1.5-.5-2.72-2.19-2.72C2.4.03.63 1.25.15 2.75z" id="ap"/>
    <path d="M.25 3.07v.02c-.49 1.5.5 2.72 2.18 2.72 1.69 0 3.44-1.22 3.92-2.72v-.02c.49-1.5-.5-2.71-2.18-2.71C2.48.36.73 1.57.25 3.07z" id="ar"/>
    <path d="M.2 3.15v.02c-.48 1.5.5 2.71 2.18 2.71 1.69 0 3.44-1.21 3.92-2.71v-.02C6.8 1.65 5.8.43 4.13.43 2.43.43.68 1.65.2 3.15z" id="at"/>
    <path d="M.4 3.13v.02c-.48 1.5.5 2.71 2.19 2.71s3.44-1.21 3.92-2.71v-.02C7 1.63 6.02.4 4.34.4 2.64.41.89 1.63.4 3.13z" id="av"/>
    <path d="M.41 3.19v.02c-.48 1.5.5 2.7 2.18 2.7 1.7 0 3.45-1.2 3.92-2.7l.01-.02C7 1.69 6.02.47 4.33.47 2.65.47.9 1.69.41 3.19z" id="ax"/>
    <path d="M.15 3.16v.02c-.49 1.5.5 2.72 2.18 2.72 1.69 0 3.44-1.22 3.92-2.72v-.02c.48-1.5-.5-2.71-2.18-2.71C2.38.45.63 1.66.15 3.16z" id="az"/>
    <path d="M.46 3.11v.02c-.48 1.5.5 2.72 2.18 2.72 1.69 0 3.44-1.22 3.92-2.72l.01-.02C7.05 1.61 6.07.4 4.38.4S.94 1.6.46 3.1z" id="aB"/>
    <path d="M.2 3.09l-.01.02c-.48 1.5.5 2.71 2.19 2.71 1.68 0 3.44-1.21 3.92-2.71v-.02C6.78 1.59 5.8.38 4.12.38 2.43.38.68 1.59.2 3.09z" id="aD"/>
    <path d="M.57 2.75v.02c-.48 1.5.5 2.71 2.19 2.71 1.68 0 3.44-1.21 3.92-2.71v-.02C7.16 1.25 6.18.03 4.5.03 2.8.03 1.05 1.25.57 2.75z" id="aF"/>
    <path d="M.2 3.07v.02C-.3 4.6.7 5.81 2.37 5.81c1.69 0 3.44-1.22 3.92-2.72v-.02C6.8 1.57 5.8.36 4.13.36 2.43.36.68 1.57.2 3.07z" id="aH"/>
    <path d="M.58 3.15v.02c-.48 1.5.5 2.71 2.19 2.71 1.68 0 3.44-1.21 3.92-2.71v-.02C7.17 1.65 6.2.43 4.5.43 2.82.43 1.06 1.65.58 3.15z" id="aJ"/>
    <path d="M.36 3.13v.02c-.49 1.5.5 2.71 2.18 2.71 1.69 0 3.44-1.21 3.92-2.71v-.02C6.96 1.63 5.97.4 4.29.4 2.59.41.84 1.63.36 3.13z" id="aL"/>
    <path d="M.36 3.19v.02c-.48 1.5.5 2.7 2.18 2.7 1.7 0 3.45-1.2 3.92-2.7l.01-.02c.48-1.5-.5-2.72-2.19-2.72C2.6.47.84 1.69.36 3.19z" id="aN"/>
    <path d="M.57 3.16v.02c-.48 1.5.5 2.72 2.18 2.72 1.69 0 3.44-1.22 3.92-2.72v-.02C7.17 1.66 6.18.45 4.5.45 2.81.45 1.05 1.66.57 3.16z" id="aP"/>
    <path d="M.41 3.11v.02c-.48 1.5.5 2.72 2.18 2.72 1.69 0 3.45-1.22 3.92-2.72l.01-.02C7 1.61 6.02.4 4.33.4 2.65.4.9 1.6.41 3.1z" id="aR"/>
    <path d="M.15 3.09v.02c-.49 1.5.5 2.71 2.18 2.71 1.68 0 3.44-1.21 3.92-2.71v-.02c.48-1.5-.5-2.71-2.18-2.71C2.38.38.63 1.59.15 3.09z" id="aT"/>
    <path d="M.6 2.75v.02c-.48 1.5.5 2.71 2.18 2.71 1.69 0 3.44-1.21 3.92-2.71v-.02C7.2 1.25 6.2.03 4.53.03 2.83.03 1.08 1.25.6 2.75z" id="aV"/>
    <path d="M.22 3.07v.02c-.48 1.5.5 2.72 2.19 2.72 1.68 0 3.44-1.22 3.92-2.72v-.02c.48-1.5-.5-2.71-2.19-2.71C2.46.36.7 1.57.22 3.07z" id="aX"/>
    <path d="M.18 3.15l-.01.02c-.48 1.5.5 2.71 2.19 2.71 1.68 0 3.44-1.21 3.92-2.71v-.02C6.76 1.65 5.78.43 4.1.43 2.4.43.65 1.65.18 3.15z" id="aZ"/>
    <path d="M.38 3.13v.02c-.48 1.5.5 2.71 2.19 2.71 1.68 0 3.44-1.21 3.92-2.71v-.02C6.97 1.63 6 .4 4.3.4 2.62.41.86 1.63.38 3.13z" id="bb"/>
    <path d="M.39 3.19v.02c-.49 1.5.5 2.7 2.18 2.7 1.69 0 3.44-1.2 3.92-2.7v-.02C6.98 1.69 6 .47 4.32.47 2.62.47.87 1.69.39 3.19z" id="bd"/>
    <path d="M.6 3.16l-.01.02c-.48 1.5.5 2.72 2.19 2.72 1.68 0 3.44-1.22 3.92-2.72v-.02C7.18 1.66 6.2.45 4.52.45 2.83.45 1.07 1.66.6 3.16z" id="bf"/>
    <path d="M.44 3.11l-.01.02c-.48 1.5.5 2.72 2.19 2.72s3.44-1.22 3.92-2.72v-.02C7.02 1.61 6.04.4 4.36.4 2.67.4.92 1.6.44 3.1z" id="bh"/>
    <path d="M.17 3.09v.02c-.48 1.5.5 2.71 2.18 2.71 1.69 0 3.45-1.21 3.92-2.71l.01-.02c.48-1.5-.5-2.71-2.19-2.71C2.41.38.65 1.59.17 3.09z" id="bj"/>
    <path d="M.55 2.75v.02c-.48 1.5.5 2.71 2.18 2.71 1.69 0 3.44-1.21 3.92-2.71v-.02c.49-1.5-.5-2.72-2.18-2.72C2.78.03 1.03 1.25.55 2.75z" id="bl"/>
    <path d="M.17 3.07v.02c-.48 1.5.5 2.72 2.19 2.72 1.68 0 3.44-1.22 3.92-2.72v-.02C6.76 1.57 5.78.36 4.1.36 2.41.36.65 1.57.17 3.07z" id="bn"/>
    <path d="M.6 3.15v.02c-.49 1.5.5 2.71 2.18 2.71 1.69 0 3.44-1.21 3.92-2.71v-.02C7.2 1.65 6.2.43 4.53.43 2.83.43 1.08 1.65.6 3.15z" id="bp"/>
    <path d="M.33 3.13v.02c-.48 1.5.5 2.71 2.19 2.71 1.68 0 3.44-1.21 3.92-2.71v-.02C6.92 1.63 5.94.4 4.25.4 2.57.41.81 1.63.33 3.13z" id="br"/>
    <path d="M.34 3.19v.02c-.49 1.5.5 2.7 2.18 2.7 1.69 0 3.44-1.2 3.92-2.7v-.02c.48-1.5-.5-2.72-2.18-2.72C2.57.47.82 1.69.34 3.19z" id="bt"/>
    <path d="M.55 3.16l-.01.02c-.48 1.5.5 2.72 2.19 2.72 1.68 0 3.44-1.22 3.92-2.72v-.02c.48-1.5-.5-2.71-2.18-2.71C2.78.45 1.02 1.66.55 3.16z" id="bv"/>
    <path d="M.39 3.11l-.01.02c-.48 1.5.5 2.72 2.19 2.72 1.68 0 3.44-1.22 3.92-2.72v-.02C6.97 1.61 6 .4 4.31.4 2.62.4.86 1.6.39 3.1z" id="bx"/>
    <path d="M.6 3.09l-.01.02c-.48 1.5.5 2.71 2.19 2.71 1.68 0 3.44-1.21 3.92-2.71v-.02C7.18 1.59 6.2.38 4.52.38 2.82.38 1.07 1.59.59 3.09z" id="bz"/>
    <path d="M.3 2.75v.02c-.49 1.5.5 2.71 2.18 2.71 1.68 0 3.44-1.21 3.92-2.71v-.02C6.88 1.25 5.9.03 4.22.03 2.53.03.78 1.25.3 2.75z" id="bB"/>
    <path d="M.4 3.07l-.01.02c-.48 1.5.5 2.72 2.19 2.72 1.68 0 3.44-1.22 3.92-2.72v-.02C6.98 1.57 6 .36 4.31.36 2.63.36.87 1.57.4 3.07z" id="bD"/>
    <path d="M.35 3.15l-.01.02c-.48 1.5.5 2.71 2.19 2.71 1.68 0 3.44-1.21 3.92-2.71v-.02c.48-1.5-.5-2.72-2.18-2.72C2.57.43.82 1.65.35 3.15z" id="bF"/>
    <path d="M.55 3.13v.02c-.48 1.5.5 2.71 2.19 2.71 1.68 0 3.44-1.21 3.92-2.71v-.02C7.14 1.63 6.16.4 4.47.4 2.8.41 1.03 1.63.55 3.13z" id="bH"/>
    <path d="M.56 3.19v.02c-.49 1.5.5 2.7 2.18 2.7 1.69 0 3.44-1.2 3.92-2.7v-.02c.48-1.5-.5-2.72-2.18-2.72C2.79.47 1.04 1.69.56 3.19z" id="bJ"/>
    <path d="M.3 3.16l-.01.02C-.2 4.68.79 5.9 2.47 5.9c1.7 0 3.45-1.22 3.92-2.72l.01-.02C6.88 1.66 5.9.45 4.21.45 2.53.45.77 1.66.3 3.16z" id="bL"/>
    <path d="M.13 3.11v.02c-.48 1.5.5 2.72 2.18 2.72 1.7 0 3.45-1.22 3.93-2.72v-.02C6.72 1.61 5.74.4 4.05.4 2.37.4.61 1.6.13 3.1z" id="bN"/>
    <path d="M.34 3.09v.02c-.48 1.5.5 2.71 2.18 2.71 1.69 0 3.44-1.21 3.92-2.71l.01-.02c.48-1.5-.5-2.71-2.19-2.71C2.58.38.82 1.59.34 3.09z" id="bP"/>
    <path d="M.25 2.75v.02c-.49 1.5.5 2.71 2.18 2.71 1.68 0 3.44-1.21 3.92-2.71v-.02c.48-1.5-.5-2.72-2.18-2.72C2.48.03.73 1.25.25 2.75z" id="bR"/>
    <path d="M.34 3.07v.02c-.48 1.5.5 2.72 2.19 2.72 1.68 0 3.44-1.22 3.92-2.72v-.02c.48-1.5-.5-2.71-2.19-2.71C2.58.36.82 1.57.34 3.07z" id="bT"/>
    <path d="M.3 3.15l-.01.02c-.48 1.5.5 2.71 2.19 2.71 1.68 0 3.44-1.21 3.92-2.71v-.02C6.88 1.65 5.9.43 4.22.43 2.53.43.77 1.65.3 3.15z" id="bV"/>
    <path d="M.5 3.13v.02c-.48 1.5.5 2.71 2.19 2.71 1.68 0 3.44-1.21 3.92-2.71v-.02C7.1 1.63 6.11.4 4.42.4 2.74.41.98 1.63.5 3.13z" id="bX"/>
    <path d="M.5 3.19v.02C.02 4.7 1 5.9 2.7 5.9s3.44-1.2 3.92-2.7v-.02C7.1 1.69 6.12.47 4.44.47 2.74.47.99 1.69.5 3.19z" id="bZ"/>
    <path d="M.24 3.16v.02c-.48 1.5.5 2.72 2.18 2.72 1.7 0 3.45-1.22 3.92-2.72l.01-.02c.48-1.5-.5-2.71-2.19-2.71C2.48.45.72 1.66.24 3.16z" id="cb"/>
    <path d="M.56 3.11v.02c-.49 1.5.5 2.72 2.18 2.72 1.68 0 3.44-1.22 3.92-2.72v-.02C7.14 1.61 6.16.4 4.48.4 2.79.4 1.03 1.6.56 3.1z" id="cd"/>
    <path d="M.3 3.09l-.01.02c-.48 1.5.5 2.71 2.18 2.71 1.69 0 3.44-1.21 3.92-2.71l.01-.02C6.88 1.59 5.9.38 4.21.38 2.53.38.77 1.59.3 3.09z" id="cf"/>
    <path d="M.27 2.75v.02c-.48 1.5.5 2.71 2.18 2.71 1.69 0 3.44-1.21 3.92-2.71v-.02C6.87 1.25 5.88.03 4.2.03 2.51.03.75 1.25.27 2.75z" id="ch"/>
    <path d="M.37 3.07v.02c-.48 1.5.5 2.72 2.18 2.72C4.24 5.8 6 4.59 6.47 3.09v-.02C6.97 1.57 5.98.36 4.3.36 2.6.36.85 1.57.37 3.07z" id="cj"/>
    <path d="M.32 3.15v.02c-.48 1.5.5 2.71 2.18 2.71 1.69 0 3.44-1.21 3.92-2.71v-.02c.49-1.5-.5-2.72-2.18-2.72C2.55.43.8 1.65.32 3.15z" id="cl"/>
    <path d="M.53 3.13v.02c-.49 1.5.5 2.71 2.18 2.71 1.69 0 3.44-1.21 3.92-2.71v-.02C7.13 1.63 6.14.4 4.46.4 2.76.41 1 1.63.53 3.13z" id="cn"/>
    <path d="M.53 3.19v.02c-.48 1.5.5 2.7 2.18 2.7 1.7 0 3.45-1.2 3.92-2.7l.01-.02c.48-1.5-.5-2.72-2.19-2.72C2.77.47 1.01 1.69.53 3.19z" id="cp"/>
    <path d="M.27 3.16v.02c-.49 1.5.5 2.72 2.18 2.72 1.69 0 3.44-1.22 3.92-2.72v-.02C6.86 1.66 5.88.45 4.2.45 2.5.45.75 1.66.27 3.16z" id="cr"/>
    <path d="M.58 3.11v.02c-.48 1.5.5 2.72 2.18 2.72 1.69 0 3.44-1.22 3.92-2.72v-.02C7.18 1.61 6.19.4 4.5.4 2.82.4 1.06 1.6.58 3.1z" id="ct"/>
    <path d="M.32 3.09l-.01.02c-.48 1.5.5 2.71 2.19 2.71 1.68 0 3.44-1.21 3.92-2.71v-.02C6.9 1.59 5.92.38 4.24.38 2.55.38.79 1.59.32 3.09z" id="cv"/>
    <path d="M.22 2.75v.02c-.48 1.5.5 2.71 2.18 2.71 1.69 0 3.45-1.21 3.92-2.71l.01-.02c.48-1.5-.5-2.72-2.19-2.72C2.46.03.7 1.25.22 2.75z" id="cx"/>
    <path d="M.32 3.07v.02c-.49 1.5.5 2.72 2.18 2.72 1.69 0 3.44-1.22 3.92-2.72v-.02c.49-1.5-.5-2.71-2.18-2.71C2.55.36.8 1.57.32 3.07z" id="cz"/>
    <path d="M.13 3.15v.02c-.48 1.5.5 2.71 2.18 2.71 1.69 0 3.44-1.21 3.92-2.71v-.02c.49-1.5-.5-2.72-2.18-2.72C2.36.43.61 1.65.13 3.15z" id="cB"/>
    <path d="M.48 3.13v.02c-.49 1.5.5 2.71 2.18 2.71 1.69 0 3.44-1.21 3.92-2.71v-.02C7.08 1.63 6.09.4 4.4.4 2.71.41.96 1.63.48 3.13z" id="cD"/>
    <path d="M.48 3.19v.02C0 4.7.98 5.9 2.66 5.9c1.7 0 3.45-1.2 3.92-2.7l.01-.02C7.07 1.69 6.1.47 4.4.47 2.72.47.96 1.69.48 3.19z" id="cF"/>
    <path d="M.22 3.16v.02C-.28 4.68.71 5.9 2.4 5.9c1.69 0 3.44-1.22 3.92-2.72v-.02C6.8 1.66 5.83.45 4.15.45 2.45.45.7 1.66.22 3.16z" id="cH"/>
    <path d="M.53 3.11v.02c-.48 1.5.5 2.72 2.18 2.72 1.69 0 3.45-1.22 3.92-2.72l.01-.02C7.12 1.61 6.14.4 4.45.4 2.77.4 1.01 1.6.53 3.1z" id="cJ"/>
    <path d="M.27 3.09v.02c-.49 1.5.5 2.71 2.18 2.71 1.69 0 3.44-1.21 3.92-2.71v-.02C6.85 1.59 5.87.38 4.2.38 2.5.38.75 1.59.27 3.09z" id="cL"/>
    <path d="M.56 2.75v.02c-.48 1.5.5 2.71 2.18 2.71 1.69 0 3.45-1.21 3.92-2.71l.01-.02c.48-1.5-.5-2.72-2.19-2.72C2.8.03 1.04 1.25.56 2.75z" id="cN"/>
    <path d="M.19 3.07l-.01.02c-.48 1.5.5 2.72 2.19 2.72 1.68 0 3.44-1.22 3.92-2.72v-.02C6.77 1.57 5.8.36 4.11.36 2.42.36.66 1.57.19 3.07z" id="cP"/>
    <path d="M.14 3.15v.02c-.49 1.5.5 2.71 2.18 2.71 1.69 0 3.44-1.21 3.92-2.71v-.02c.48-1.5-.5-2.72-2.18-2.72C2.37.43.62 1.65.14 3.15z" id="cR"/>
    <path d="M.35 3.13l-.01.02c-.48 1.5.5 2.71 2.19 2.71 1.68 0 3.44-1.21 3.92-2.71v-.02C6.93 1.63 5.95.4 4.27.4 2.57.41.82 1.63.35 3.13z" id="cT"/>
    <path d="M.35 3.19v.02c-.48 1.5.5 2.7 2.18 2.7 1.69 0 3.44-1.2 3.92-2.7v-.02c.49-1.5-.5-2.72-2.18-2.72C2.58.47.83 1.69.35 3.19z" id="cV"/>
    <path d="M.56 3.16v.02c-.49 1.5.5 2.72 2.18 2.72 1.69 0 3.44-1.22 3.92-2.72v-.02c.48-1.5-.5-2.71-2.18-2.71C2.79.45 1.04 1.66.56 3.16z" id="cX"/>
    <path d="M.4 3.11v.02c-.49 1.5.5 2.72 2.18 2.72 1.69 0 3.44-1.22 3.92-2.72v-.02C6.99 1.61 6 .4 4.33.4 2.63.4.88 1.6.4 3.1z" id="cZ"/>
    <path d="M.13 3.09v.02c-.48 1.5.5 2.71 2.19 2.71 1.68 0 3.44-1.21 3.92-2.71v-.02c.48-1.5-.5-2.71-2.19-2.71C2.37.38.61 1.59.13 3.09z" id="db"/>
    <path d="M.51 2.75v.02c-.48 1.5.5 2.71 2.18 2.71 1.7 0 3.45-1.21 3.92-2.71l.01-.02C7.1 1.25 6.12.03 4.43.03 2.75.03 1 1.25.51 2.75z" id="dd"/>
    <path d="M.14 3.07v.02c-.49 1.5.5 2.72 2.18 2.72C4 5.8 5.76 4.59 6.24 3.09v-.02c.48-1.5-.5-2.71-2.18-2.71C2.37.36.62 1.57.14 3.07z" id="df"/>
    <path d="M.51 3.15v.02C.03 4.67 1 5.88 2.7 5.88c1.68 0 3.44-1.21 3.92-2.71v-.02C7.1 1.65 6.12.43 4.43.43 2.75.43 1 1.65.51 3.15z" id="dh"/>
    <path d="M.3 3.13l-.01.02c-.48 1.5.5 2.71 2.19 2.71 1.68 0 3.44-1.21 3.92-2.71v-.02C6.88 1.63 5.9.4 4.22.4 2.53.41.77 1.63.3 3.13z" id="dj"/>
    <path d="M.3 3.19v.02c-.48 1.5.5 2.7 2.18 2.7 1.69 0 3.44-1.2 3.92-2.7v-.02C6.9 1.69 5.9.47 4.23.47 2.53.47.78 1.69.3 3.19z" id="dl"/>
    <path d="M.5 3.16v.02C.02 4.68 1 5.9 2.7 5.9s3.44-1.22 3.92-2.72v-.02C7.1 1.66 6.12.45 4.44.45 2.74.45.99 1.66.5 3.16z" id="dn"/>
    <path d="M.35 3.11v.02c-.49 1.5.5 2.72 2.18 2.72 1.69 0 3.44-1.22 3.92-2.72v-.02C6.95 1.61 5.96.4 4.28.4 2.58.4.83 1.6.35 3.1z" id="dp"/>
    <path d="M.56 3.09v.02c-.49 1.5.5 2.71 2.18 2.71 1.69 0 3.44-1.21 3.92-2.71v-.02c.48-1.5-.5-2.71-2.18-2.71C2.79.38 1.04 1.59.56 3.09z" id="dr"/>
    <path d="M.54 2.75v.02c-.49 1.5.5 2.71 2.18 2.71 1.69 0 3.44-1.21 3.92-2.71v-.02c.48-1.5-.5-2.72-2.18-2.72C2.77.03 1.02 1.25.54 2.75z" id="dt"/>
    <path d="M.16 3.07v.02c-.48 1.5.5 2.72 2.18 2.72 1.69 0 3.44-1.22 3.92-2.72l.01-.02c.48-1.5-.5-2.71-2.19-2.71C2.4.36.64 1.57.16 3.07z" id="dv"/>
    <path d="M.59 3.15l-.01.02c-.48 1.5.5 2.71 2.19 2.71 1.68 0 3.44-1.21 3.92-2.71v-.02C7.17 1.65 6.2.43 4.51.43 2.82.43 1.06 1.65.59 3.15z" id="dx"/>
    <path d="M.32 3.13v.02c-.48 1.5.5 2.71 2.18 2.71 1.69 0 3.44-1.21 3.92-2.71v-.02C6.92 1.63 5.93.4 4.25.4 2.55.41.8 1.63.32 3.13z" id="dz"/>
    <path d="M.33 3.19l-.01.02c-.48 1.5.5 2.7 2.19 2.7 1.68 0 3.44-1.2 3.92-2.7v-.02c.48-1.5-.5-2.72-2.18-2.72C2.55.47.8 1.69.33 3.19z" id="dB"/>
    <path d="M.53 3.16v.02c-.48 1.5.5 2.72 2.18 2.72 1.7 0 3.45-1.22 3.93-2.72v-.02c.48-1.5-.5-2.71-2.19-2.71C2.77.45 1.01 1.66.53 3.16z" id="dD"/>
    <path d="M.37 3.11v.02c-.48 1.5.5 2.72 2.19 2.72 1.68 0 3.44-1.22 3.92-2.72v-.02C6.96 1.61 5.98.4 4.3.4 2.61.4.85 1.6.37 3.1z" id="dF"/>
    <path d="M.58 3.09v.02c-.48 1.5.5 2.71 2.18 2.71 1.69 0 3.45-1.21 3.92-2.71l.01-.02C7.17 1.59 6.19.38 4.5.38 2.82.38 1.06 1.59.58 3.09z" id="dH"/>
    <path d="M.49 2.75v.02C0 4.27.98 5.48 2.66 5.48c1.69 0 3.44-1.21 3.92-2.71v-.02C7.08 1.25 6.1.03 4.42.03 2.72.03.97 1.25.49 2.75z" id="dJ"/>
    <path d="M.58 3.07v.02c-.48 1.5.5 2.72 2.19 2.72 1.68 0 3.44-1.22 3.92-2.72v-.02C7.17 1.57 6.2.36 4.51.36 2.8.36 1.06 1.57.58 3.07z" id="dL"/>
    <path d="M.54 3.15l-.01.02c-.48 1.5.5 2.71 2.19 2.71 1.68 0 3.44-1.21 3.92-2.71v-.02c.48-1.5-.5-2.72-2.18-2.72C2.77.43 1 1.65.54 3.15z" id="dN"/>
    <path d="M.27 3.13v.02c-.48 1.5.5 2.71 2.18 2.71 1.69 0 3.44-1.21 3.92-2.71v-.02C6.87 1.63 5.88.4 4.2.4 2.51.41.75 1.63.27 3.13z" id="dP"/>
    <path d="M.27 3.19v.02c-.48 1.5.5 2.7 2.19 2.7 1.68 0 3.44-1.2 3.92-2.7v-.02C6.86 1.69 5.88.47 4.2.47 2.5.47.75 1.69.27 3.19z" id="dR"/>
    <path d="M.48 3.16v.02C0 4.68.98 5.9 2.66 5.9c1.7 0 3.45-1.22 3.93-2.72v-.02C7.07 1.66 6.1.45 4.4.45 2.72.45.96 1.66.48 3.16z" id="dT"/>
    <path d="M.32 3.11v.02c-.48 1.5.5 2.72 2.19 2.72 1.68 0 3.44-1.22 3.92-2.72v-.02C6.91 1.61 5.93.4 4.24.4 2.56.4.8 1.6.32 3.1z" id="dV"/>
    <path d="M.53 3.09v.02c-.48 1.5.5 2.71 2.18 2.71 1.7 0 3.45-1.21 3.92-2.71l.01-.02c.48-1.5-.5-2.71-2.19-2.71C2.77.38 1.01 1.59.53 3.09z" id="dX"/>
  </defs>
  <g fill="none" fill-rule="evenodd">
    <path d="M10 31h290a10 10 0 0110 10v232.8a10 10 0 01-10 10H10a10 10 0 01-10-10V41a10 10 0 0110-10z" fill="#9B9B9B"/>
    <path fill="#7C7C7C" d="M68.06 88.2l147.48.45-15.5 59.4H51.79z"/>
    <path d="M69.17 87.75L61.8 83.7l-14.56 45.08s11.72 1.84 11.45 1.24c-.27-.6 10.5-42.27 10.5-42.27" fill="#6B6B6B"/>
    <path d="M232.08 28.8l-34.1 112.53c-1.79 6.2-6.9 10.4-12.68 10.4 0 0-119.7-.14-121.08-.57-5.46-1.7-12.57-8.7-15.31-17.74-1.15-3.77-.42-10.25 1.03-15.02L82.2 18.71c1.74-6.3 6.9-10.6 12.75-10.6l124.23.57c9.08 0 15.73 10.37 12.9 20.12" fill="#BFBFBF"/>
    <path d="M211.27.91s20.44-1.54 23.48 12.9c1.12 5.27-5.64 25.5-5.64 25.5l-14.77-8.9L211.27.9z" fill="#3D3D3D"/>
    <path d="M216.94 25.97l-30.96 101.01c-1.8 5.86-6.93 9.83-12.72 9.83H58.7c-12.13 0-10.64-9.43-7.86-18.63l30.6-101.01c1.78-5.9 4.98-8.93 12.72-8.93h110.07c10.75 0 15.54 8.52 12.71 17.73" fill="#DDD"/>
    <path d="M172.07 11.13l38.29-9.95c1.1-.4 7.32-.64 9.38 1.22 2.26 2.03 3.41 6.64 2.33 9.52l-6.22 19.4-43.78-20.19zM136.03 19.07L104.67 3.3C99.99.94 96.55-.6 90.95 2.35c-5.6 2.95-9.46 16.53-9.46 16.53l54.54.2z" fill="#232323"/>
    <path d="M213.14 24.9l-30 96.6c-1.74 5.6-6.7 9.39-12.31 9.39H59.88c-11.75 0-10.3-9.01-7.6-17.82l29.62-96.6c1.72-5.62 4.83-8.53 12.33-8.53h106.59c10.41 0 15.05 8.15 12.32 16.96" fill="#FFF"/>
    <path d="M204.8 29.31L190.9 73.3a12.99 12.99 0 01-12.37 8.7h-96.9c-8.78 0-15.04-6.9-12.43-15.02l14.6-45.33a12.98 12.98 0 0112.42-8.87h97.13c8.85 0 14.2 8.38 11.46 16.54" fill="#6B6B6B"/>
    <path d="M138.39 89.72l-3.43 9.99a3 3 0 01-2.87 1.98h-22.74c-2.03 0-3.48-1.88-2.88-3.72l3.26-10a3 3 0 012.88-2h22.91c2.05 0 3.5 1.9 2.87 3.75M124.75 119.7h-19.07c-3.03 0-4.4-2.5-3.74-5.01.65-2.51 3.4-4.57 6.11-4.57h19.07c2.71 0 4.4 2.06 3.74 4.57-.65 2.51-2.8 5.02-6.1 5.02M160.68 88.9c6.43.51 11.22 6.65 10.7 13.7-.53 7.06-6.17 12.36-12.6 11.84-6.44-.52-11.22-6.66-10.7-13.71.53-7.06 6.17-12.35 12.6-11.84M76.62 111.9c-5.7-2.3-8.48-9.25-6.22-15.52 2.25-6.26 8.7-9.47 14.39-7.16 5.69 2.3 8.47 9.26 6.22 15.52-2.26 6.27-8.7 9.47-14.4 7.16" fill="#DBDBDB"/>
    <path d="M221.8 61.42c-.98 3.91-4.55 6.34-7.95 5.41-3.4-.93-5.36-4.85-4.37-8.77 1-3.92 4.56-6.34 7.96-5.42 3.4.93 5.36 4.86 4.37 8.78" fill="#ADADAD"/>
    <path d="M223.35 44.03c0 1.63-1.15 2.96-2.57 2.96s-2.57-1.33-2.57-2.96 1.15-2.96 2.57-2.96 2.57 1.33 2.57 2.96" fill="#8E8E8E"/>
    <path fill="#B2B2B2" d="M158.6 183.83l3.47 28.77-23.03-.1-.87-42.29z"/>
    <path d="M142.85 197.51c0-19.54-13.2-35.53-29.35-35.53h25.3c16.15 0 29.35 16 29.35 35.53 0 19.55-13.2 35.54-29.35 35.54h-25.3c16.14 0 29.35-16 29.35-35.54" fill="#333"/>
    <path d="M132.81 233.05H44.46c-18.01 0-32.74-14.75-32.74-32.79v-5.5a32.86 32.86 0 0132.74-32.78h88.35c18 0 32.74 14.75 32.74 32.79v5.5a32.86 32.86 0 01-32.74 32.78" fill="#3D3D3D"/>
    <path d="M37.02 197.51c0-19.54 13.2-35.53 29.78-35.87H41.5c-16.58.34-29.78 16.33-29.78 35.87 0 19.55 13.2 35.54 29.35 35.54h25.3c-16.14 0-29.35-16-29.35-35.54" fill="#333"/>
    <path d="M130.9 220.44c-3.73-5.4-5.86-13.48-5.86-22.51 0-9.03 2.13-17.1 5.86-22.52 1.6-2.32.64-6.8-1.46-6.8H74.07c-2.1 0-3.06 4.48-1.46 6.8 3.73 5.41 5.85 13.5 5.85 22.52 0 9.03-2.12 17.1-5.85 22.51-1.6 2.32-.64 6.8 1.46 6.8H129.44c2.1 0 3.06-4.48 1.46-6.8" fill="#545454"/>
    <path d="M75.37 197.25c0 16.3-7.7 29.5-17.22 29.5-9.5 0-17.22-13.2-17.22-29.5 0-16.29 7.71-29.5 17.22-29.5 9.51 0 17.22 13.21 17.22 29.5M162.5 197.38c0 16.3-7.7 29.5-17.22 29.5-9.5 0-17.22-13.2-17.22-29.5 0-16.29 7.71-29.5 17.22-29.5 9.51 0 17.22 13.21 17.22 29.5" fill="#545454"/>
    <path fill="#333" d="M54.1 165.26h93.15l-4.73-3.17h-84.3zM148.12 229.73H53.66l4.14 2.77c.39.26.84.4 1.3.4h82.48a3.3 3.3 0 002.02-.69l4.52-2.48z"/>
    <path fill="#FFF" d="M33.68 238.42h138v10h-138z"/>
    <path d="M143.32 188.44l12.5-1.32.22 23.8c.03 2.87-3 5.24-6.88 5.38-6.03.2-13.81.35-13.81-.3 0-1.06 5.8-27.56 5.8-27.56h2.17z" fill="#B2B2B2"/>
    <path d="M280.6 199.32c0-19.54-13.2-35.53-29.35-35.53h25.3c16.15 0 29.36 15.99 29.36 35.53s-13.21 35.53-29.35 35.53h-25.3c16.14 0 29.34-15.99 29.34-35.53" fill="#333"/>
    <path d="M270.27 234.24h-88.64c-17.69 0-32.16-14.89-32.16-33.09v-4.28c0-18.2 14.47-33.08 32.16-33.08h88.64c17.69 0 32.16 12.18 32.16 35.22 0 23-14.47 35.23-32.16 35.23" fill="#3D3D3D"/>
    <path d="M174.77 199.24c0-19.5 13.2-35.46 29.79-35.8h-25.3c-16.58.34-29.8 16.3-29.8 35.8 0 19.5 13.22 35.45 29.36 35.45h25.3c-16.14 0-29.35-15.95-29.35-35.45" fill="#333"/>
    <path d="M267.75 220.48c-3.64-5.02-5.72-12.52-5.72-20.9 0-8.39 2.08-15.89 5.72-20.91 1.57-2.15.63-6.3-1.42-6.3H212.21c-2.06 0-3 4.15-1.43 6.3 3.64 5.02 5.72 12.52 5.72 20.9 0 8.39-2.08 15.89-5.72 20.9-1.56 2.16-.63 6.32 1.42 6.32h54.13c2.05 0 2.99-4.16 1.42-6.31" fill="#EAEAEA"/>
    <path d="M266.88 220.48c-3.69-5.02-5.78-12.52-5.78-20.9 0-8.39 2.1-15.89 5.78-20.91 1.58-2.15.63-6.3-1.44-6.3h-51.6c-2.07 0-3.02 4.15-1.44 6.3 3.68 5.02 5.78 12.52 5.78 20.9 0 8.39-2.1 15.89-5.78 20.9-1.58 2.16-.63 6.32 1.44 6.32h51.6c2.07 0 3.02-4.16 1.44-6.31" fill="#FFF"/>
    <path d="M213.13 198.95c0 15.12-7.71 27.38-17.22 27.38-9.51 0-17.22-12.26-17.22-27.38 0-15.13 7.7-27.39 17.22-27.39 9.5 0 17.22 12.26 17.22 27.39" fill="#EAEAEA"/>
    <path d="M211.44 198.95c0 12.88-6.56 23.32-14.66 23.32-8.1 0-14.67-10.44-14.67-23.32 0-12.89 6.56-23.33 14.67-23.33 8.1 0 14.66 10.44 14.66 23.33" fill="#FFF"/>
    <path d="M300.26 199.07c0 15.12-7.71 27.38-17.22 27.38-9.51 0-17.22-12.26-17.22-27.38 0-15.13 7.7-27.39 17.22-27.39 9.5 0 17.22 12.26 17.22 27.39" fill="#EAEAEA"/>
    <path d="M298.4 199.07c0 12.73-6.49 23.06-14.5 23.06-8 0-14.5-10.33-14.5-23.06 0-12.74 6.5-23.06 14.5-23.06 8.01 0 14.5 10.32 14.5 23.06" fill="#FFF"/>
    <path fill="#333" d="M278.96 164.8l-88.64.36v-1.86l88.21.62z"/>
    <path d="M271.94 127.82h-30.18c-6.45 0-5.39-22.83-4.72-31.83a8 8 0 00-2.4-6.39c-17.78-16.88-36.4-4.9-39.65-1.7l-14.87 42.67c-.86 2.35-4.62 6.26-7.71 6.26L61.7 134.8c-4.65 0-11.81-1.65-10.5-5.19l11-43.94c1.02-4.35-2.16-3.8-4.42 1.25l-22.3 52.3-5.54 13c-1.87 4.53-4.25 9.22-8.33 11.76-6.04 3.77-7.89 9.2-9.23 19.73-.63 4.97 2.74 9.04 7.57 9.04H157.8c4.33 0 11.61 1.15 16.25-3.3 4.64-4.45 4.15-25.76 4.15-25.76.9-2.18 0 0 2.28 0h100.93c6.4 0 13.26 7.45 16.67 11.71.6.76 1.79.2 1.63-.77-2.04-12.78-10.06-46.82-27.77-46.82" fill="#FFF"/>
    <path d="M299.54 173.58c-.34.44-1.04.56-1.46.02-3.41-4.26-10.27-11.7-16.67-11.7H180.48c-2.28 0-2.58 1.4-3.47 3.58l-2.58 17.14a8.29 8.29 0 01-5.83 6.79 44.75 44.75 0 01-10.8 1.54H19.83c-3.93 0-6.94-2.08-7.39-5.48-.53 4.45 2.8 7.29 7.39 7.29H157.8c4.27.63 9.9.07 13.09-1.02 3.8-1.31 6.46-5.43 6.7-9.58.41-7.08 1.32-18.46 2.9-18.46H281.4c6.4 0 13.26 7.44 16.67 11.7.6.77 1.79.21 1.63-.76l-.17-1.06" fill="#BFBFBF"/>
    <path d="M120.74 208.9H47.4a13.94 13.94 0 01-13.89-13.91v-.5c0-7.65 6.25-13.9 13.9-13.9h73.34c7.64 0 13.9 6.25 13.9 13.9v.5c0 7.65-6.26 13.9-13.9 13.9" fill="#B2B2B2"/>
    <path d="M144.86 182.89c.78-2.05-.02-5.12-.88-6-3.05-3.1-3.95-2.9-10.07-2.9H42.47a21.28 21.28 0 00-21.2 21.24 21.28 21.28 0 0021.2 21.23h91.44c3.44 0 7.88.1 10.63 0 1.08-.05 1.76-1.26 1.24-2.24-4.42-8.35-4.4-22.15-.92-31.33" fill="#FFF"/>
    <path d="M198.83 100.23l-10.33 32.29c-1.96 6.12 3.26 26.87 8.1 26.87H275c5.38 0 9.73-4.17 9.73-9.3v-4.17a9.13 9.13 0 00-3.18-6.88l-3.23-2.8a10 10 0 00-6.55-2.42h-27.53c-4.41 0-8.37-2.82-9.41-6.92a6.06 6.06 0 01-.2-1.47c0-2.38 1.1-17.15 1.1-18.65 0-7.74-12.7-14.27-25.65-12.95-5 .5-9.79 1.81-11.25 6.4" fill="#F4F4F4"/>
    <path d="M227.26 203.68c1.67 0 3.01-1.7 3.01-3.8 0-2.09-1.34-3.8-3-3.8-1.67 0-3.02 1.71-3.02 3.8 0 2.1 1.35 3.8 3.01 3.8M251.6 203.68c1.66 0 3-1.7 3-3.8 0-2.09-1.34-3.8-3-3.8s-3.01 1.71-3.01 3.8c0 2.1 1.35 3.8 3 3.8" fill="#545454"/>
    <path fill="#333" d="M278.53 234.7h-88.21v-1.36l88.21.45z"/>
    <path d="M194.79 188.72a3.12 3.12 0 003.06 3.18c1.7 0 3.07-1.42 3.07-3.18a3.13 3.13 0 00-3.07-3.18 3.12 3.12 0 00-3.06 3.18M194.79 209.42a3.12 3.12 0 003.06 3.18c1.7 0 3.07-1.43 3.07-3.18a3.13 3.13 0 00-3.07-3.18 3.12 3.12 0 00-3.06 3.18M189.39 202.25c1.69 0 3.06-1.42 3.06-3.18a3.12 3.12 0 00-3.06-3.18 3.13 3.13 0 00-3.07 3.18 3.13 3.13 0 003.07 3.18M205.58 202.25c1.69 0 3.06-1.42 3.06-3.18a3.12 3.12 0 00-3.06-3.18 3.13 3.13 0 00-3.07 3.18 3.13 3.13 0 003.07 3.18M196 200.24h4.06c.63 0 1.15-.52 1.15-1.15v-.04c0-.64-.52-1.15-1.15-1.15H196c-.63 0-1.15.51-1.15 1.15v.04c0 .63.52 1.15 1.15 1.15" fill="#545454"/>
    <path d="M199.16 201.24v-4.34c0-.62-.5-1.13-1.13-1.13-.62 0-1.13.51-1.13 1.13v4.34c0 .62.5 1.13 1.13 1.13.62 0 1.13-.51 1.13-1.13M281.92 188.72a3.13 3.13 0 003.06 3.18c1.7 0 3.07-1.42 3.07-3.18a3.12 3.12 0 00-3.07-3.18 3.13 3.13 0 00-3.06 3.18M281.92 209.42a3.13 3.13 0 003.06 3.18c1.7 0 3.07-1.43 3.07-3.18a3.12 3.12 0 00-3.07-3.18 3.13 3.13 0 00-3.06 3.18M276.52 202.25c1.7 0 3.06-1.42 3.06-3.18a3.13 3.13 0 00-3.06-3.18 3.12 3.12 0 00-3.07 3.18 3.12 3.12 0 003.07 3.18M292.7 202.25c1.7 0 3.07-1.42 3.07-3.18a3.13 3.13 0 00-3.06-3.18 3.12 3.12 0 00-3.07 3.18 3.12 3.12 0 003.07 3.18M283.13 200.24h4.06c.63 0 1.15-.52 1.15-1.15v-.04c0-.64-.52-1.15-1.15-1.15h-4.06c-.63 0-1.15.51-1.15 1.15v.04c0 .63.52 1.15 1.15 1.15" fill="#545454"/>
    <path d="M286.3 201.24v-4.34a1.13 1.13 0 00-2.26 0v4.34c0 .62.5 1.13 1.12 1.13.62 0 1.13-.51 1.13-1.13" fill="#545454"/>
    <path d="M195.63 83.25c-1.43 1.47-8.25 26.63-12.2 37.31-3.14 8.46-10.2 9.02-11.08 9.34-2.96 1.1-95.54.58-112.19 0-10.93-.37-10.14-5.87-10.07-6.4.55-4.35 12.76-39.7 12.76-39.7s-.64-2.78-2.38.03l-17.6 44.4c-2.86 8.23 3.99 14.25 8.44 14.1 0 0 117.62 1.94 122.4 1.94 8.33 0 10.64-7.21 12.5-12.59 1-2.88 7.37-25.46 12.12-38.6 1.95-5.4 5.25-6.25 7.39-6.82 6.02-1.63 18.77-1.29 28.82 5.18 3.36 2.15.78-3.93-6.6-7.56-9.93-4.88-29.4-3.64-32.31-.63" fill="#F4F4F4"/>
    <path d="M135.67 188.76c.95-1.94 1.3-3.2 0-4.96-1.04-1.39-2.95-1.8-5.23-1.8H46.66c-10.37 0-13.16 6.5-13.16 12.17v11.16c0 5.68 6.77 10.28 13.16 10.28h87.77c1.5 0 2.83-1.58 1.9-2.66-2.1-2.45-3.84-17.7-.66-24.19z" stroke="#E2E2E2" stroke-width="1.65"/>
    <g transform="translate(94.96 72.44)">
      <mask id="c" fill="#fff">
        <use xlink:href="#b"/>
      </mask>
      <path fill="#7C7C7C" mask="url(#c)" d="M-2.48 4.79h71.52l1.89-5.9H-.6z"/>
    </g>
    <g transform="translate(85.97 19.37)">
      <mask id="e" fill="#fff">
        <use xlink:href="#d"/>
      </mask>
      <path fill="#707070" mask="url(#e)" d="M-2.69 7.04h9.63l2.73-8.57H.05z"/>
    </g>
    <g transform="translate(77.45 45.43)">
      <mask id="g" fill="#fff">
        <use xlink:href="#f"/>
      </mask>
      <path fill="#707070" mask="url(#g)" d="M-2.59 7.37h9.62L9.77-1.2H.15z"/>
    </g>
    <g transform="translate(81.71 32.16)">
      <mask id="i" fill="#fff">
        <use xlink:href="#h"/>
      </mask>
      <path fill="#707070" mask="url(#i)" d="M-2.64 7.44h9.62l2.74-8.57H.1z"/>
    </g>
    <g transform="translate(73.67 58.22)">
      <mask id="k" fill="#fff">
        <use xlink:href="#j"/>
      </mask>
      <path fill="#707070" mask="url(#k)" d="M-2.9 7.42h9.62l2.74-8.57H-.17z"/>
    </g>
    <g transform="translate(84.08 25.53)">
      <mask id="m" fill="#fff">
        <use xlink:href="#l"/>
      </mask>
      <path fill="#707070" mask="url(#m)" d="M-2.9 7.48h9.62l2.74-8.57H-.16z"/>
    </g>
    <g transform="translate(75.56 51.59)">
      <mask id="o" fill="#fff">
        <use xlink:href="#n"/>
      </mask>
      <path fill="#707070" mask="url(#o)" d="M-2.69 7.46h9.62l2.74-8.57H.05z"/>
    </g>
    <g transform="translate(79.82 38.8)">
      <mask id="q" fill="#fff">
        <use xlink:href="#p"/>
      </mask>
      <path fill="#707070" mask="url(#q)" d="M-2.85 7.4h9.62l2.74-8.57H-.11z"/>
    </g>
    <g transform="translate(71.3 64.86)">
      <mask id="s" fill="#fff">
        <use xlink:href="#r"/>
      </mask>
      <path fill="#707070" mask="url(#s)" d="M-2.64 7.39h9.62L9.72-1.2H.09z"/>
    </g>
    <g transform="translate(144.64 19.37)">
      <mask id="u" fill="#fff">
        <use xlink:href="#t"/>
      </mask>
      <path fill="#707070" mask="url(#u)" d="M-2.74 7.04H6.9l2.73-8.57H0z"/>
    </g>
    <g transform="translate(136.13 45.43)">
      <mask id="w" fill="#fff">
        <use xlink:href="#v"/>
      </mask>
      <path fill="#707070" mask="url(#w)" d="M-2.64 7.37h9.62L9.72-1.2H.1z"/>
    </g>
    <g transform="translate(140.38 32.16)">
      <mask id="y" fill="#fff">
        <use xlink:href="#x"/>
      </mask>
      <path fill="#707070" mask="url(#y)" d="M-2.69 7.44h9.62l2.74-8.57H.05z"/>
    </g>
    <g transform="translate(132.34 58.22)">
      <mask id="A" fill="#fff">
        <use xlink:href="#z"/>
      </mask>
      <path fill="#707070" mask="url(#A)" d="M-2.95 7.42h9.62l2.74-8.57H-.22z"/>
    </g>
    <g transform="translate(142.75 25.53)">
      <mask id="C" fill="#fff">
        <use xlink:href="#B"/>
      </mask>
      <path fill="#707070" mask="url(#C)" d="M-2.95 7.48h9.62l2.74-8.57H-.21z"/>
    </g>
    <g transform="translate(134.23 51.59)">
      <mask id="E" fill="#fff">
        <use xlink:href="#D"/>
      </mask>
      <path fill="#707070" mask="url(#E)" d="M-2.74 7.46h9.62l2.74-8.57H0z"/>
    </g>
    <g transform="translate(138.5 38.8)">
      <mask id="G" fill="#fff">
        <use xlink:href="#F"/>
      </mask>
      <path fill="#707070" mask="url(#G)" d="M-2.9 7.4h9.62l2.74-8.57H-.16z"/>
    </g>
    <g transform="translate(129.97 64.86)">
      <mask id="I" fill="#fff">
        <use xlink:href="#H"/>
      </mask>
      <path fill="#707070" mask="url(#I)" d="M-2.7 7.39h9.63L9.67-1.2H.04z"/>
    </g>
    <g transform="translate(115.3 19.37)">
      <mask id="K" fill="#fff">
        <use xlink:href="#J"/>
      </mask>
      <path fill="#707070" mask="url(#K)" d="M-2.71 7.04H6.9l2.74-8.57H.03z"/>
    </g>
    <g transform="translate(106.79 45.43)">
      <mask id="M" fill="#fff">
        <use xlink:href="#L"/>
      </mask>
      <path fill="#3ED5FF" mask="url(#M)" d="M-2.61 7.37H7L9.74-1.2H.12z"/>
    </g>
    <g transform="translate(111.05 32.16)">
      <mask id="O" fill="#fff">
        <use xlink:href="#N"/>
      </mask>
      <path fill="#707070" mask="url(#O)" d="M-2.66 7.44h9.62L9.7-1.13H.07z"/>
    </g>
    <g transform="translate(103 58.22)">
      <mask id="Q" fill="#fff">
        <use xlink:href="#P"/>
      </mask>
      <path fill="#707070" mask="url(#Q)" d="M-2.93 7.42H6.7l2.74-8.57H-.19z"/>
    </g>
    <g transform="translate(113.41 25.53)">
      <mask id="S" fill="#fff">
        <use xlink:href="#R"/>
      </mask>
      <path fill="#707070" mask="url(#S)" d="M-2.92 7.48H6.7l2.73-8.57H-.19z"/>
    </g>
    <g transform="translate(104.9 51.59)">
      <mask id="U" fill="#fff">
        <use xlink:href="#T"/>
      </mask>
      <path fill="#3ED5FF" mask="url(#U)" d="M-2.71 7.46H6.9l2.73-8.57H.02z"/>
    </g>
    <g transform="translate(109.15 38.8)">
      <mask id="W" fill="#fff">
        <use xlink:href="#V"/>
      </mask>
      <path fill="#3ED5FF" mask="url(#W)" d="M-2.87 7.4h9.62l2.73-8.57H-.14z"/>
    </g>
    <g transform="translate(100.64 64.86)">
      <mask id="Y" fill="#fff">
        <use xlink:href="#X"/>
      </mask>
      <path fill="#707070" mask="url(#Y)" d="M-2.67 7.39h9.63L9.69-1.2H.07z"/>
    </g>
    <g transform="translate(173.98 19.37)">
      <mask id="aa" fill="#fff">
        <use xlink:href="#Z"/>
      </mask>
      <path fill="#707070" mask="url(#aa)" d="M-2.76 7.04h9.62L9.6-1.53H-.03z"/>
    </g>
    <g transform="translate(165.46 45.43)">
      <mask id="ac" fill="#fff">
        <use xlink:href="#ab"/>
      </mask>
      <path fill="#3ED5FF" mask="url(#ac)" d="M-2.66 7.37h9.62L9.69-1.2H.07z"/>
    </g>
    <g transform="translate(169.72 32.16)">
      <mask id="ae" fill="#fff">
        <use xlink:href="#ad"/>
      </mask>
      <path fill="#707070" mask="url(#ae)" d="M-2.8 7.44h9.62l2.73-8.57H-.07z"/>
    </g>
    <g transform="translate(161.68 58.22)">
      <mask id="ag" fill="#fff">
        <use xlink:href="#af"/>
      </mask>
      <path fill="#707070" mask="url(#ag)" d="M-2.98 7.42h9.62l2.74-8.57H-.24z"/>
    </g>
    <g transform="translate(172.09 25.53)">
      <mask id="ai" fill="#fff">
        <use xlink:href="#ah"/>
      </mask>
      <path fill="#707070" mask="url(#ai)" d="M-2.97 7.48h9.62l2.73-8.57H-.24z"/>
    </g>
    <g transform="translate(163.57 51.59)">
      <mask id="ak" fill="#fff">
        <use xlink:href="#aj"/>
      </mask>
      <path fill="#707070" mask="url(#ak)" d="M-2.76 7.46h9.62l2.73-8.57H-.03z"/>
    </g>
    <g transform="translate(167.83 38.8)">
      <mask id="am" fill="#fff">
        <use xlink:href="#al"/>
      </mask>
      <path fill="#3ED5FF" mask="url(#am)" d="M-2.92 7.4H6.7l2.73-8.57H-.19z"/>
    </g>
    <g transform="translate(159.31 64.86)">
      <mask id="ao" fill="#fff">
        <use xlink:href="#an"/>
      </mask>
      <path fill="#707070" mask="url(#ao)" d="M-2.72 7.39h9.63L9.64-1.2H.02z"/>
    </g>
    <g transform="translate(101.11 19.37)">
      <mask id="aq" fill="#fff">
        <use xlink:href="#ap"/>
      </mask>
      <path fill="#707070" mask="url(#aq)" d="M-2.98 7.04h9.63l2.73-8.57H-.24z"/>
    </g>
    <g transform="translate(92.6 45.43)">
      <mask id="as" fill="#fff">
        <use xlink:href="#ar"/>
      </mask>
      <path fill="#3ED5FF" mask="url(#as)" d="M-2.88 7.37h9.62L9.48-1.2H-.14z"/>
    </g>
    <g transform="translate(96.85 32.16)">
      <mask id="au" fill="#fff">
        <use xlink:href="#at"/>
      </mask>
      <path fill="#707070" mask="url(#au)" d="M-2.93 7.44H6.7l2.74-8.57H-.19z"/>
    </g>
    <g transform="translate(88.33 58.22)">
      <mask id="aw" fill="#fff">
        <use xlink:href="#av"/>
      </mask>
      <path fill="#707070" mask="url(#aw)" d="M-2.72 7.42H6.9l2.74-8.57H.02z"/>
    </g>
    <g transform="translate(98.74 25.53)">
      <mask id="ay" fill="#fff">
        <use xlink:href="#ax"/>
      </mask>
      <path fill="#707070" mask="url(#ay)" d="M-2.72 7.48h9.63l2.73-8.57H.02z"/>
    </g>
    <g transform="translate(90.7 51.59)">
      <mask id="aA" fill="#fff">
        <use xlink:href="#az"/>
      </mask>
      <path fill="#707070" mask="url(#aA)" d="M-2.98 7.46h9.62l2.74-8.57H-.24z"/>
    </g>
    <g transform="translate(94.49 38.8)">
      <mask id="aC" fill="#fff">
        <use xlink:href="#aB"/>
      </mask>
      <path fill="#3ED5FF" mask="url(#aC)" d="M-2.67 7.4h9.63l2.73-8.57H.07z"/>
    </g>
    <g transform="translate(86.44 64.86)">
      <mask id="aE" fill="#fff">
        <use xlink:href="#aD"/>
      </mask>
      <path fill="#707070" mask="url(#aE)" d="M-2.93 7.39h9.62L9.43-1.2H-.2z"/>
    </g>
    <g transform="translate(159.31 19.37)">
      <mask id="aG" fill="#fff">
        <use xlink:href="#aF"/>
      </mask>
      <path fill="#707070" mask="url(#aG)" d="M-2.55 7.04h9.62L9.8-1.53H.18z"/>
    </g>
    <g transform="translate(151.27 45.43)">
      <mask id="aI" fill="#fff">
        <use xlink:href="#aH"/>
      </mask>
      <path fill="#3ED5FF" mask="url(#aI)" d="M-2.93 7.37H6.7L9.43-1.2H-.2z"/>
    </g>
    <g transform="translate(155.05 32.16)">
      <mask id="aK" fill="#fff">
        <use xlink:href="#aJ"/>
      </mask>
      <path fill="#707070" mask="url(#aK)" d="M-2.54 7.44h9.62L9.8-1.13H.2z"/>
    </g>
    <g transform="translate(147 58.22)">
      <mask id="aM" fill="#fff">
        <use xlink:href="#aL"/>
      </mask>
      <path fill="#707070" mask="url(#aM)" d="M-2.77 7.42h9.62L9.6-1.15H-.03z"/>
    </g>
    <g transform="translate(157.42 25.53)">
      <mask id="aO" fill="#fff">
        <use xlink:href="#aN"/>
      </mask>
      <path fill="#707070" mask="url(#aO)" d="M-2.76 7.48h9.62l2.73-8.57H-.03z"/>
    </g>
    <g transform="translate(148.9 51.59)">
      <mask id="aQ" fill="#fff">
        <use xlink:href="#aP"/>
      </mask>
      <path fill="#3ED5FF" mask="url(#aQ)" d="M-2.56 7.46h9.63L9.8-1.11H.18z"/>
    </g>
    <g transform="translate(153.16 38.8)">
      <mask id="aS" fill="#fff">
        <use xlink:href="#aR"/>
      </mask>
      <path fill="#707070" mask="url(#aS)" d="M-2.72 7.4h9.63l2.73-8.57H.02z"/>
    </g>
    <g transform="translate(145.12 64.86)">
      <mask id="aU" fill="#fff">
        <use xlink:href="#aT"/>
      </mask>
      <path fill="#707070" mask="url(#aU)" d="M-2.98 7.39h9.62L9.38-1.2H-.25z"/>
    </g>
    <g transform="translate(129.97 19.37)">
      <mask id="aW" fill="#fff">
        <use xlink:href="#aV"/>
      </mask>
      <path fill="#707070" mask="url(#aW)" d="M-2.53 7.04H7.1l2.74-8.57H.21z"/>
    </g>
    <g transform="translate(121.93 45.43)">
      <mask id="aY" fill="#fff">
        <use xlink:href="#aX"/>
      </mask>
      <path fill="#707070" mask="url(#aY)" d="M-2.9 7.37h9.62L9.45-1.2H-.17z"/>
    </g>
    <g transform="translate(126.19 32.16)">
      <mask id="ba" fill="#fff">
        <use xlink:href="#aZ"/>
      </mask>
      <path fill="#707070" mask="url(#ba)" d="M-2.95 7.44h9.62L9.4-1.13H-.22z"/>
    </g>
    <g transform="translate(117.67 58.22)">
      <mask id="bc" fill="#fff">
        <use xlink:href="#bb"/>
      </mask>
      <path fill="#707070" mask="url(#bc)" d="M-2.74 7.42h9.62L9.6-1.15H0z"/>
    </g>
    <g transform="translate(128.08 25.53)">
      <mask id="be" fill="#fff">
        <use xlink:href="#bd"/>
      </mask>
      <path fill="#707070" mask="url(#be)" d="M-2.74 7.48h9.62l2.74-8.57H0z"/>
    </g>
    <g transform="translate(119.56 51.59)">
      <mask id="bg" fill="#fff">
        <use xlink:href="#bf"/>
      </mask>
      <path fill="#707070" mask="url(#bg)" d="M-2.53 7.46h9.62l2.74-8.57H.2z"/>
    </g>
    <g transform="translate(123.82 38.8)">
      <mask id="bi" fill="#fff">
        <use xlink:href="#bh"/>
      </mask>
      <path fill="#707070" mask="url(#bi)" d="M-2.7 7.4h9.63l2.74-8.57H.04z"/>
    </g>
    <g transform="translate(115.78 64.86)">
      <mask id="bk" fill="#fff">
        <use xlink:href="#bj"/>
      </mask>
      <path fill="#707070" mask="url(#bk)" d="M-2.96 7.39h9.63L9.4-1.2H-.22z"/>
    </g>
    <g transform="translate(188.65 19.37)">
      <mask id="bm" fill="#fff">
        <use xlink:href="#bl"/>
      </mask>
      <path fill="#707070" mask="url(#bm)" d="M-2.58 7.04h9.62l2.74-8.57H.16z"/>
    </g>
    <g transform="translate(180.6 45.43)">
      <mask id="bo" fill="#fff">
        <use xlink:href="#bn"/>
      </mask>
      <path fill="#3ED5FF" mask="url(#bo)" d="M-2.95 7.37h9.62L9.4-1.2H-.22z"/>
    </g>
    <g transform="translate(184.4 32.16)">
      <mask id="bq" fill="#fff">
        <use xlink:href="#bp"/>
      </mask>
      <path fill="#707070" mask="url(#bq)" d="M-2.53 7.44H7.1l2.74-8.57H.2z"/>
    </g>
    <g transform="translate(176.35 58.22)">
      <mask id="bs" fill="#fff">
        <use xlink:href="#br"/>
      </mask>
      <path fill="#707070" mask="url(#bs)" d="M-2.8 7.42h9.63l2.73-8.57H-.06z"/>
    </g>
    <g transform="translate(186.76 25.53)">
      <mask id="bu" fill="#fff">
        <use xlink:href="#bt"/>
      </mask>
      <path fill="#707070" mask="url(#bu)" d="M-2.79 7.48h9.62l2.74-8.57H-.05z"/>
    </g>
    <g transform="translate(178.24 51.59)">
      <mask id="bw" fill="#fff">
        <use xlink:href="#bv"/>
      </mask>
      <path fill="#3ED5FF" mask="url(#bw)" d="M-2.58 7.46h9.62l2.74-8.57H.15z"/>
    </g>
    <g transform="translate(182.5 38.8)">
      <mask id="by" fill="#fff">
        <use xlink:href="#bx"/>
      </mask>
      <path fill="#707070" mask="url(#by)" d="M-2.74 7.4h9.62l2.74-8.57H-.01z"/>
    </g>
    <g transform="translate(173.98 64.86)">
      <mask id="bA" fill="#fff">
        <use xlink:href="#bz"/>
      </mask>
      <path fill="#707070" mask="url(#bA)" d="M-2.53 7.39h9.62L9.82-1.2H.2z"/>
    </g>
    <g transform="translate(93.54 19.37)">
      <mask id="bC" fill="#fff">
        <use xlink:href="#bB"/>
      </mask>
      <path fill="#707070" mask="url(#bC)" d="M-2.83 7.04h9.62l2.74-8.57H-.1z"/>
    </g>
    <g transform="translate(85.02 45.43)">
      <mask id="bE" fill="#fff">
        <use xlink:href="#bD"/>
      </mask>
      <path fill="#3ED5FF" mask="url(#bE)" d="M-2.73 7.37h9.62L9.62-1.2H0z"/>
    </g>
    <g transform="translate(89.28 32.16)">
      <mask id="bG" fill="#fff">
        <use xlink:href="#bF"/>
      </mask>
      <path fill="#707070" mask="url(#bG)" d="M-2.78 7.44h9.62l2.73-8.57H-.05z"/>
    </g>
    <g transform="translate(80.76 58.22)">
      <mask id="bI" fill="#fff">
        <use xlink:href="#bH"/>
      </mask>
      <path fill="#707070" mask="url(#bI)" d="M-2.57 7.42h9.62l2.73-8.57H.16z"/>
    </g>
    <g transform="translate(91.17 25.53)">
      <mask id="bK" fill="#fff">
        <use xlink:href="#bJ"/>
      </mask>
      <path fill="#707070" mask="url(#bK)" d="M-2.57 7.48h9.62L9.8-1.09H.17z"/>
    </g>
    <g transform="translate(83.13 51.59)">
      <mask id="bM" fill="#fff">
        <use xlink:href="#bL"/>
      </mask>
      <path fill="#3ED5FF" mask="url(#bM)" d="M-2.83 7.46h9.62l2.73-8.57H-.1z"/>
    </g>
    <g transform="translate(87.39 38.8)">
      <mask id="bO" fill="#fff">
        <use xlink:href="#bN"/>
      </mask>
      <path fill="#707070" mask="url(#bO)" d="M-3 7.4h9.63l2.73-8.57H-.26z"/>
    </g>
    <g transform="translate(78.87 64.86)">
      <mask id="bQ" fill="#fff">
        <use xlink:href="#bP"/>
      </mask>
      <path fill="#707070" mask="url(#bQ)" d="M-2.79 7.39h9.63L9.57-1.2H-.05z"/>
    </g>
    <g transform="translate(152.21 19.37)">
      <mask id="bS" fill="#fff">
        <use xlink:href="#bR"/>
      </mask>
      <path fill="#707070" mask="url(#bS)" d="M-2.88 7.04h9.62l2.74-8.57H-.15z"/>
    </g>
    <g transform="translate(143.7 45.43)">
      <mask id="bU" fill="#fff">
        <use xlink:href="#bT"/>
      </mask>
      <path fill="#707070" mask="url(#bU)" d="M-2.78 7.37h9.62L9.57-1.2H-.05z"/>
    </g>
    <g transform="translate(147.96 32.16)">
      <mask id="bW" fill="#fff">
        <use xlink:href="#bV"/>
      </mask>
      <path fill="#707070" mask="url(#bW)" d="M-2.83 7.44h9.62l2.74-8.57H-.1z"/>
    </g>
    <g transform="translate(139.44 58.22)">
      <mask id="bY" fill="#fff">
        <use xlink:href="#bX"/>
      </mask>
      <path fill="#707070" mask="url(#bY)" d="M-2.62 7.42H7l2.73-8.57H.11z"/>
    </g>
    <g transform="translate(149.85 25.53)">
      <mask id="ca" fill="#fff">
        <use xlink:href="#bZ"/>
      </mask>
      <path fill="#707070" mask="url(#ca)" d="M-2.62 7.48H7l2.74-8.57H.12z"/>
    </g>
    <g transform="translate(141.8 51.59)">
      <mask id="cc" fill="#fff">
        <use xlink:href="#cb"/>
      </mask>
      <path fill="#707070" mask="url(#cc)" d="M-2.88 7.46h9.62l2.73-8.57H-.15z"/>
    </g>
    <g transform="translate(145.59 38.8)">
      <mask id="ce" fill="#fff">
        <use xlink:href="#cd"/>
      </mask>
      <path fill="#707070" mask="url(#ce)" d="M-2.57 7.4h9.62L9.8-1.16H.16z"/>
    </g>
    <g transform="translate(137.55 64.86)">
      <mask id="cg" fill="#fff">
        <use xlink:href="#cf"/>
      </mask>
      <path fill="#707070" mask="url(#cg)" d="M-2.84 7.39H6.8L9.52-1.2H-.1z"/>
    </g>
    <g transform="translate(122.88 19.37)">
      <mask id="ci" fill="#fff">
        <use xlink:href="#ch"/>
      </mask>
      <path fill="#707070" mask="url(#ci)" d="M-2.86 7.04h9.63L9.5-1.53H-.12z"/>
    </g>
    <g transform="translate(114.36 45.43)">
      <mask id="ck" fill="#fff">
        <use xlink:href="#cj"/>
      </mask>
      <path fill="#3ED5FF" mask="url(#ck)" d="M-2.76 7.37h9.62L9.6-1.2H-.02z"/>
    </g>
    <g transform="translate(118.62 32.16)">
      <mask id="cm" fill="#fff">
        <use xlink:href="#cl"/>
      </mask>
      <path fill="#707070" mask="url(#cm)" d="M-2.8 7.44H6.8l2.74-8.57H-.07z"/>
    </g>
    <g transform="translate(110.1 58.22)">
      <mask id="co" fill="#fff">
        <use xlink:href="#cn"/>
      </mask>
      <path fill="#707070" mask="url(#co)" d="M-2.6 7.42h9.62l2.74-8.57H.14z"/>
    </g>
    <g transform="translate(120.51 25.53)">
      <mask id="cq" fill="#fff">
        <use xlink:href="#cp"/>
      </mask>
      <path fill="#707070" mask="url(#cq)" d="M-2.6 7.48h9.63l2.73-8.57H.14z"/>
    </g>
    <g transform="translate(112.47 51.59)">
      <mask id="cs" fill="#fff">
        <use xlink:href="#cr"/>
      </mask>
      <path fill="#3ED5FF" mask="url(#cs)" d="M-2.86 7.46h9.62L9.5-1.11H-.12z"/>
    </g>
    <g transform="translate(116.25 38.8)">
      <mask id="cu" fill="#fff">
        <use xlink:href="#ct"/>
      </mask>
      <path fill="#707070" mask="url(#cu)" d="M-2.55 7.4h9.63L9.8-1.16H.2z"/>
    </g>
    <g transform="translate(108.2 64.86)">
      <mask id="cw" fill="#fff">
        <use xlink:href="#cv"/>
      </mask>
      <path fill="#707070" mask="url(#cw)" d="M-2.81 7.39H6.8L9.55-1.2H-.08z"/>
    </g>
    <g transform="translate(181.55 19.37)">
      <mask id="cy" fill="#fff">
        <use xlink:href="#cx"/>
      </mask>
      <path fill="#707070" mask="url(#cy)" d="M-2.9 7.04h9.62l2.73-8.57H-.17z"/>
    </g>
    <g transform="translate(173.03 45.43)">
      <mask id="cA" fill="#fff">
        <use xlink:href="#cz"/>
      </mask>
      <path fill="#3ED5FF" mask="url(#cA)" d="M-2.8 7.37H6.8L9.55-1.2H-.07z"/>
    </g>
    <g transform="translate(177.3 32.16)">
      <mask id="cC" fill="#fff">
        <use xlink:href="#cB"/>
      </mask>
      <path fill="#707070" mask="url(#cC)" d="M-3 7.44h9.62l2.74-8.57H-.26z"/>
    </g>
    <g transform="translate(168.78 58.22)">
      <mask id="cE" fill="#fff">
        <use xlink:href="#cD"/>
      </mask>
      <path fill="#707070" mask="url(#cE)" d="M-2.65 7.42h9.62l2.74-8.57H.09z"/>
    </g>
    <g transform="translate(179.19 25.53)">
      <mask id="cG" fill="#fff">
        <use xlink:href="#cF"/>
      </mask>
      <path fill="#707070" mask="url(#cG)" d="M-2.64 7.48h9.62L9.7-1.09H.1z"/>
    </g>
    <g transform="translate(171.14 51.59)">
      <mask id="cI" fill="#fff">
        <use xlink:href="#cH"/>
      </mask>
      <path fill="#707070" mask="url(#cI)" d="M-2.91 7.46h9.62l2.74-8.57H-.17z"/>
    </g>
    <g transform="translate(174.93 38.8)">
      <mask id="cK" fill="#fff">
        <use xlink:href="#cJ"/>
      </mask>
      <path fill="#3ED5FF" mask="url(#cK)" d="M-2.6 7.4h9.63l2.73-8.57H.14z"/>
    </g>
    <g transform="translate(166.88 64.86)">
      <mask id="cM" fill="#fff">
        <use xlink:href="#cL"/>
      </mask>
      <path fill="#707070" mask="url(#cM)" d="M-2.86 7.39h9.62L9.5-1.2H-.13z"/>
    </g>
    <g transform="translate(107.74 19.37)">
      <mask id="cO" fill="#fff">
        <use xlink:href="#cN"/>
      </mask>
      <path fill="#707070" mask="url(#cO)" d="M-2.57 7.04h9.63l2.73-8.57H.17z"/>
    </g>
    <g transform="translate(99.7 45.43)">
      <mask id="cQ" fill="#fff">
        <use xlink:href="#cP"/>
      </mask>
      <path fill="#3ED5FF" mask="url(#cQ)" d="M-2.94 7.37h9.62L9.42-1.2H-.21z"/>
    </g>
    <g transform="translate(103.95 32.16)">
      <mask id="cS" fill="#fff">
        <use xlink:href="#cR"/>
      </mask>
      <path fill="#707070" mask="url(#cS)" d="M-2.99 7.44h9.62l2.74-8.57H-.25z"/>
    </g>
    <g transform="translate(95.43 58.22)">
      <mask id="cU" fill="#fff">
        <use xlink:href="#cT"/>
      </mask>
      <path fill="#707070" mask="url(#cU)" d="M-2.78 7.42h9.62l2.74-8.57H-.05z"/>
    </g>
    <g transform="translate(105.84 25.53)">
      <mask id="cW" fill="#fff">
        <use xlink:href="#cV"/>
      </mask>
      <path fill="#707070" mask="url(#cW)" d="M-2.78 7.48h9.62l2.74-8.57H-.04z"/>
    </g>
    <g transform="translate(97.32 51.59)">
      <mask id="cY" fill="#fff">
        <use xlink:href="#cX"/>
      </mask>
      <path fill="#707070" mask="url(#cY)" d="M-2.57 7.46h9.62L9.8-1.11H.17z"/>
    </g>
    <g transform="translate(101.58 38.8)">
      <mask id="da" fill="#fff">
        <use xlink:href="#cZ"/>
      </mask>
      <path fill="#3ED5FF" mask="url(#da)" d="M-2.73 7.4H6.9l2.74-8.57H0z"/>
    </g>
    <g transform="translate(93.54 64.86)">
      <mask id="dc" fill="#fff">
        <use xlink:href="#db"/>
      </mask>
      <path fill="#707070" mask="url(#dc)" d="M-3 7.39h9.63L9.36-1.2H-.26z"/>
    </g>
    <g transform="translate(166.41 19.37)">
      <mask id="de" fill="#fff">
        <use xlink:href="#dd"/>
      </mask>
      <path fill="#707070" mask="url(#de)" d="M-2.62 7.04h9.63l2.73-8.57H.12z"/>
    </g>
    <g transform="translate(158.37 45.43)">
      <mask id="dg" fill="#fff">
        <use xlink:href="#df"/>
      </mask>
      <path fill="#3ED5FF" mask="url(#dg)" d="M-3 7.37h9.63L9.37-1.2H-.26z"/>
    </g>
    <g transform="translate(162.15 32.16)">
      <mask id="di" fill="#fff">
        <use xlink:href="#dh"/>
      </mask>
      <path fill="#707070" mask="url(#di)" d="M-2.61 7.44H7l2.73-8.57H.12z"/>
    </g>
    <g transform="translate(154.1 58.22)">
      <mask id="dk" fill="#fff">
        <use xlink:href="#dj"/>
      </mask>
      <path fill="#707070" mask="url(#dk)" d="M-2.83 7.42h9.62l2.74-8.57H-.1z"/>
    </g>
    <g transform="translate(164.52 25.53)">
      <mask id="dm" fill="#fff">
        <use xlink:href="#dl"/>
      </mask>
      <path fill="#707070" mask="url(#dm)" d="M-2.83 7.48H6.8l2.74-8.57H-.09z"/>
    </g>
    <g transform="translate(156 51.59)">
      <mask id="do" fill="#fff">
        <use xlink:href="#dn"/>
      </mask>
      <path fill="#3ED5FF" mask="url(#do)" d="M-2.62 7.46H7l2.74-8.57H.12z"/>
    </g>
    <g transform="translate(160.26 38.8)">
      <mask id="dq" fill="#fff">
        <use xlink:href="#dp"/>
      </mask>
      <path fill="#3ED5FF" mask="url(#dq)" d="M-2.78 7.4h9.62l2.74-8.57H-.04z"/>
    </g>
    <g transform="translate(151.74 64.86)">
      <mask id="ds" fill="#fff">
        <use xlink:href="#dr"/>
      </mask>
      <path fill="#707070" mask="url(#ds)" d="M-2.57 7.39h9.62L9.8-1.2H.16z"/>
    </g>
    <g transform="translate(137.07 19.37)">
      <mask id="du" fill="#fff">
        <use xlink:href="#dt"/>
      </mask>
      <path fill="#707070" mask="url(#du)" d="M-2.6 7.04h9.63l2.74-8.57H.14z"/>
    </g>
    <g transform="translate(129.03 45.43)">
      <mask id="dw" fill="#fff">
        <use xlink:href="#dv"/>
      </mask>
      <path fill="#707070" mask="url(#dw)" d="M-2.97 7.37h9.63L9.39-1.2H-.23z"/>
    </g>
    <g transform="translate(132.81 32.16)">
      <mask id="dy" fill="#fff">
        <use xlink:href="#dx"/>
      </mask>
      <path fill="#707070" mask="url(#dy)" d="M-2.54 7.44h9.62l2.74-8.57H.19z"/>
    </g>
    <g transform="translate(124.77 58.22)">
      <mask id="dA" fill="#fff">
        <use xlink:href="#dz"/>
      </mask>
      <path fill="#707070" mask="url(#dA)" d="M-2.8 7.42h9.62l2.73-8.57H-.07z"/>
    </g>
    <g transform="translate(135.18 25.53)">
      <mask id="dC" fill="#fff">
        <use xlink:href="#dB"/>
      </mask>
      <path fill="#707070" mask="url(#dC)" d="M-2.8 7.48h9.62l2.73-8.57H-.07z"/>
    </g>
    <g transform="translate(126.66 51.59)">
      <mask id="dE" fill="#fff">
        <use xlink:href="#dD"/>
      </mask>
      <path fill="#707070" mask="url(#dE)" d="M-2.6 7.46h9.63l2.73-8.57H.14z"/>
    </g>
    <g transform="translate(130.92 38.8)">
      <mask id="dG" fill="#fff">
        <use xlink:href="#dF"/>
      </mask>
      <path fill="#707070" mask="url(#dG)" d="M-2.75 7.4h9.62L9.6-1.16H-.02z"/>
    </g>
    <g transform="translate(122.4 64.86)">
      <mask id="dI" fill="#fff">
        <use xlink:href="#dH"/>
      </mask>
      <path fill="#707070" mask="url(#dI)" d="M-2.55 7.39h9.63L9.8-1.2H.2z"/>
    </g>
    <g transform="translate(195.75 19.37)">
      <mask id="dK" fill="#fff">
        <use xlink:href="#dJ"/>
      </mask>
      <path fill="#707070" mask="url(#dK)" d="M-2.64 7.04h9.62l2.74-8.57H.1z"/>
    </g>
    <g transform="translate(187.23 45.43)">
      <mask id="dM" fill="#fff">
        <use xlink:href="#dL"/>
      </mask>
      <path fill="#707070" mask="url(#dM)" d="M-2.54 7.37h9.62L9.8-1.2H.2z"/>
    </g>
    <g transform="translate(191.49 32.16)">
      <mask id="dO" fill="#fff">
        <use xlink:href="#dN"/>
      </mask>
      <path fill="#707070" mask="url(#dO)" d="M-2.6 7.44h9.63l2.74-8.57H.14z"/>
    </g>
    <g transform="translate(183.44 58.22)">
      <mask id="dQ" fill="#fff">
        <use xlink:href="#dP"/>
      </mask>
      <path fill="#707070" mask="url(#dQ)" d="M-2.86 7.42h9.63L9.5-1.15H-.12z"/>
    </g>
    <g transform="translate(193.85 25.53)">
      <mask id="dS" fill="#fff">
        <use xlink:href="#dR"/>
      </mask>
      <path fill="#707070" mask="url(#dS)" d="M-2.85 7.48h9.62L9.5-1.09H-.12z"/>
    </g>
    <g transform="translate(185.34 51.59)">
      <mask id="dU" fill="#fff">
        <use xlink:href="#dT"/>
      </mask>
      <path fill="#707070" mask="url(#dU)" d="M-2.64 7.46h9.62L9.7-1.11H.1z"/>
    </g>
    <g transform="translate(189.6 38.8)">
      <mask id="dW" fill="#fff">
        <use xlink:href="#dV"/>
      </mask>
      <path fill="#707070" mask="url(#dW)" d="M-2.8 7.4h9.62l2.73-8.57H-.07z"/>
    </g>
    <g transform="translate(181.08 64.86)">
      <mask id="dY" fill="#fff">
        <use xlink:href="#dX"/>
      </mask>
      <path fill="#707070" mask="url(#dY)" d="M-2.6 7.39h9.63L9.76-1.2H.14z"/>
    </g>
    <g fill="#88FFF3">
      <path opacity=".5" d="M168.78 240.33H36.3l9.5-23.86h104.82z"/>
      <path opacity=".23" d="M160.36 240.33l-119.37.6 10.14-24.46h95.29z"/>
    </g>
  </g>
</svg>
