<svg width="360" height="283" xmlns="http://www.w3.org/2000/svg" xmlns:xlink="http://www.w3.org/1999/xlink">
  <defs>
    <path d="M30.3.13C22.4.13 14.1 5.88 11.85 12.9L.6 48.12c-2.24 7.03 2.4 12.78 10.3 12.78h105.3c7.9 0 16.2-5.75 18.45-12.78l11.23-35.21c2.24-7.03-2.4-12.78-10.3-12.78H30.3z" id="a"/>
    <path d="M2.45.28C1.59.28.7.9.45 1.66c-.24.77.26 1.39 1.12 1.39h64.5c.85 0 1.74-.62 1.99-1.39C68.3.9 67.8.28 66.94.28H2.44z" id="b"/>
    <path d="M.15 3.03l-.01.01c-.48 1.5.5 2.7 2.17 2.7 1.68 0 3.43-1.2 3.9-2.7v-.01c.48-1.5-.49-2.7-2.17-2.7-1.67 0-3.42 1.2-3.9 2.7z" id="d"/>
    <path d="M.19 3.1v.01c-.48 1.5.5 2.7 2.17 2.7s3.42-1.2 3.9-2.7V3.1C6.74 1.6 5.76.4 4.1.4 2.4.4.66 1.6.19 3.1z" id="f"/>
    <path d="M.39 2.84v.02c-.48 1.49.5 2.7 2.17 2.7s3.42-1.21 3.9-2.7v-.02c.48-1.5-.5-2.7-2.17-2.7C2.6.14.86 1.34.39 2.84z" id="h"/>
    <path d="M.54 3v.03c-.48 1.49.5 2.7 2.17 2.7 1.68 0 3.42-1.21 3.9-2.7V3C7.1 1.5 6.11.3 4.44.3 2.76.3 1.02 1.5.54 3z" id="j"/>
    <path d="M.27 2.93v.02c-.48 1.5.49 2.7 2.17 2.7 1.67 0 3.42-1.2 3.9-2.7v-.02c.48-1.49-.5-2.7-2.18-2.7C2.5.23.74 1.44.26 2.93z" id="l"/>
    <path d="M.42 3.1v.02c-.48 1.5.5 2.7 2.17 2.7 1.68 0 3.42-1.2 3.9-2.7V3.1C6.97 1.6 6 .4 4.32.4 2.64.4.9 1.6.42 3.1z" id="n"/>
    <path d="M.51 2.75v.01c-.48 1.5.5 2.7 2.17 2.7 1.68 0 3.42-1.2 3.9-2.7v-.01c.48-1.5-.5-2.7-2.17-2.7C2.73.04.99 1.24.5 2.74z" id="p"/>
    <path d="M.22 2.91v.02c-.48 1.5.5 2.7 2.17 2.7 1.68 0 3.42-1.2 3.9-2.7v-.02c.48-1.49-.5-2.7-2.17-2.7C2.44.21.7 1.42.22 2.91z" id="r"/>
    <path d="M.42 3.03v.01c-.48 1.5.49 2.7 2.17 2.7 1.67 0 3.42-1.2 3.9-2.7v-.01c.48-1.5-.5-2.7-2.17-2.7-1.68 0-3.43 1.2-3.9 2.7z" id="t"/>
    <path d="M.46 3.1v.01c-.48 1.5.5 2.7 2.17 2.7 1.68 0 3.42-1.2 3.9-2.7V3.1C7.01 1.6 6.03.4 4.36.4 2.68.4.94 1.6.46 3.1z" id="v"/>
    <path d="M.22 2.84v.02c-.48 1.49.49 2.7 2.17 2.7 1.67 0 3.42-1.21 3.9-2.7v-.02c.48-1.5-.5-2.7-2.17-2.7-1.68 0-3.43 1.2-3.9 2.7z" id="x"/>
    <path d="M.37 3v.03c-.48 1.49.5 2.7 2.17 2.7 1.68 0 3.42-1.21 3.9-2.7V3C6.92 1.5 5.94.3 4.27.3 2.59.3.85 1.5.37 3z" id="z"/>
    <path d="M.54 2.93v.02c-.48 1.5.5 2.7 2.17 2.7 1.68 0 3.42-1.2 3.9-2.7v-.02c.48-1.49-.5-2.7-2.17-2.7-1.68 0-3.42 1.21-3.9 2.7z" id="B"/>
    <path d="M.25 3.1v.02c-.48 1.5.5 2.7 2.17 2.7 1.68 0 3.42-1.2 3.9-2.7V3.1C6.8 1.6 5.82.4 4.15.4 2.47.4.73 1.6.25 3.1z" id="D"/>
    <path d="M.34 2.75v.01c-.48 1.5.5 2.7 2.17 2.7s3.42-1.2 3.9-2.7v-.01c.48-1.5-.5-2.7-2.17-2.7-1.68 0-3.42 1.2-3.9 2.7z" id="F"/>
    <path d="M.5 2.91l-.01.02c-.48 1.5.5 2.7 2.17 2.7 1.68 0 3.42-1.2 3.9-2.7v-.02c.48-1.49-.5-2.7-2.17-2.7C2.71.21.97 1.42.49 2.91z" id="H"/>
    <path d="M.5 3.03v.01c-.48 1.5.5 2.7 2.17 2.7 1.68 0 3.42-1.2 3.9-2.7v-.01c.48-1.5-.5-2.7-2.17-2.7C2.72.32.98 1.52.5 3.02z" id="J"/>
    <path d="M.55 3.1l-.01.01c-.48 1.5.5 2.7 2.18 2.7 1.67 0 3.42-1.2 3.9-2.7V3.1C7.09 1.6 6.12.4 4.44.4 2.77.4 1.02 1.6.54 3.1z" id="L"/>
    <path d="M.3 2.84v.02c-.48 1.49.5 2.7 2.17 2.7 1.68 0 3.42-1.21 3.9-2.7v-.02c.48-1.5-.5-2.7-2.17-2.7C2.52.14.78 1.34.3 2.84z" id="N"/>
    <path d="M.46 3l-.01.03c-.47 1.49.5 2.7 2.18 2.7 1.67 0 3.42-1.21 3.9-2.7V3C7 1.5 6.03.3 4.35.3 2.68.3.93 1.5.45 3z" id="P"/>
    <path d="M.18 2.93v.02c-.48 1.5.5 2.7 2.17 2.7 1.68 0 3.42-1.2 3.9-2.7v-.02c.48-1.49-.5-2.7-2.17-2.7C2.4.23.66 1.44.18 2.93z" id="R"/>
    <path d="M.34 3.1l-.01.02c-.48 1.5.5 2.7 2.17 2.7 1.68 0 3.43-1.2 3.9-2.7V3.1C6.89 1.6 5.9.4 4.24.4S.81 1.6.33 3.1z" id="T"/>
    <path d="M.43 2.75l-.01.01c-.48 1.5.5 2.7 2.17 2.7 1.68 0 3.43-1.2 3.9-2.7v-.01c.48-1.5-.5-2.7-2.17-2.7S.9 1.24.42 2.74z" id="V"/>
    <path d="M.14 2.91l-.01.02c-.48 1.5.5 2.7 2.17 2.7 1.68 0 3.43-1.2 3.9-2.7v-.02c.48-1.49-.49-2.7-2.17-2.7C2.36.21.61 1.42.13 2.91z" id="X"/>
    <path d="M.33 3.03v.01c-.48 1.5.5 2.7 2.17 2.7 1.68 0 3.42-1.2 3.9-2.7v-.01c.48-1.5-.5-2.7-2.17-2.7-1.68 0-3.42 1.2-3.9 2.7z" id="Z"/>
    <path d="M.38 3.1l-.01.01c-.48 1.5.5 2.7 2.17 2.7 1.68 0 3.43-1.2 3.9-2.7V3.1C6.93 1.6 5.96.4 4.28.4 2.6.4.85 1.6.37 3.1z" id="ab"/>
    <path d="M.48 2.84v.02c-.48 1.49.5 2.7 2.17 2.7 1.68 0 3.42-1.21 3.9-2.7v-.02c.48-1.5-.5-2.7-2.17-2.7C2.7.14.96 1.34.48 2.84z" id="ad"/>
    <path d="M.29 3l-.01.03c-.48 1.49.5 2.7 2.18 2.7 1.67 0 3.42-1.21 3.9-2.7V3C6.83 1.5 5.86.3 4.18.3 2.51.3.76 1.5.28 3z" id="af"/>
    <path d="M.45 2.93v.02c-.48 1.5.5 2.7 2.17 2.7 1.68 0 3.42-1.2 3.9-2.7v-.02C7 1.44 6.03.23 4.36.23S.93 1.44.45 2.93z" id="ah"/>
    <path d="M.17 3.1l-.01.02c-.48 1.5.5 2.7 2.17 2.7 1.68 0 3.43-1.2 3.9-2.7V3.1C6.72 1.6 5.74.4 4.07.4S.64 1.6.16 3.1z" id="aj"/>
    <path d="M.25 2.75v.01c-.48 1.5.5 2.7 2.17 2.7 1.68 0 3.42-1.2 3.9-2.7v-.01c.48-1.5-.5-2.7-2.17-2.7S.73 1.24.25 2.74z" id="al"/>
    <path d="M.4 2.91v.02c-.47 1.5.5 2.7 2.18 2.7 1.67 0 3.42-1.2 3.9-2.7v-.02c.48-1.49-.5-2.7-2.17-2.7C2.63.21.88 1.42.4 2.91z" id="an"/>
    <path d="M.3 3.03v.01c-.48 1.5.49 2.7 2.17 2.7 1.67 0 3.42-1.2 3.9-2.7v-.01c.48-1.5-.5-2.7-2.18-2.7C2.52.32.77 1.52.3 3.02z" id="ap"/>
    <path d="M.34 3.1v.01c-.48 1.5.5 2.7 2.17 2.7 1.68 0 3.42-1.2 3.9-2.7V3.1C6.9 1.6 5.91.4 4.24.4 2.56.4.82 1.6.34 3.1z" id="ar"/>
    <path d="M.54 2.84v.02c-.48 1.49.5 2.7 2.17 2.7 1.68 0 3.42-1.21 3.9-2.7v-.02c.48-1.5-.5-2.7-2.17-2.7-1.68 0-3.42 1.2-3.9 2.7z" id="at"/>
    <path d="M.25 3v.03c-.48 1.49.5 2.7 2.17 2.7 1.68 0 3.42-1.21 3.9-2.7V3C6.8 1.5 5.82.3 4.15.3 2.47.3.73 1.5.25 3z" id="av"/>
    <path d="M.42 2.93v.02c-.48 1.5.5 2.7 2.17 2.7s3.42-1.2 3.9-2.7v-.02C6.97 1.44 6 .23 4.32.23 2.64.23.89 1.44.42 2.93z" id="ax"/>
    <path d="M.13 3.1v.02c-.48 1.5.5 2.7 2.17 2.7s3.42-1.2 3.9-2.7V3.1C6.68 1.6 5.7.4 4.03.4 2.35.4.6 1.6.13 3.1z" id="az"/>
    <path d="M.22 2.75v.01c-.48 1.5.5 2.7 2.17 2.7s3.42-1.2 3.9-2.7v-.01c.48-1.5-.5-2.7-2.17-2.7-1.68 0-3.43 1.2-3.9 2.7z" id="aB"/>
    <path d="M.37 2.91v.02c-.48 1.5.5 2.7 2.17 2.7 1.68 0 3.42-1.2 3.9-2.7v-.02c.48-1.49-.5-2.7-2.17-2.7C2.59.21.85 1.42.37 2.91z" id="aD"/>
    <path d="M.13 3.03v.01c-.48 1.5.49 2.7 2.17 2.7 1.67 0 3.42-1.2 3.9-2.7v-.01c.47-1.5-.5-2.7-2.18-2.7C2.35.32.6 1.52.12 3.02z" id="aF"/>
    <path d="M.17 3.1v.01c-.48 1.5.5 2.7 2.17 2.7 1.68 0 3.42-1.2 3.9-2.7V3.1C6.72 1.6 5.74.4 4.07.4 2.39.4.65 1.6.17 3.1z" id="aH"/>
    <path d="M.33 2.84v.02c-.48 1.49.5 2.7 2.17 2.7 1.68 0 3.42-1.21 3.9-2.7v-.02c.48-1.5-.5-2.7-2.17-2.7C2.55.14.8 1.34.33 2.84z" id="aJ"/>
    <path d="M.52 3v.03c-.48 1.49.5 2.7 2.17 2.7 1.68 0 3.42-1.21 3.9-2.7V3C7.08 1.5 6.1.3 4.43.3 2.74.3 1 1.5.52 3z" id="aL"/>
    <path d="M.25 2.93v.02c-.48 1.5.5 2.7 2.17 2.7s3.42-1.2 3.9-2.7v-.02c.48-1.49-.5-2.7-2.17-2.7C2.47.23.72 1.44.25 2.93z" id="aN"/>
    <path d="M.4 3.1v.02c-.48 1.5.5 2.7 2.17 2.7 1.68 0 3.42-1.2 3.9-2.7V3.1C6.95 1.6 5.97.4 4.3.4 2.62.4.88 1.6.4 3.1z" id="aP"/>
    <path d="M.5 2.75l-.01.01c-.48 1.5.5 2.7 2.17 2.7 1.68 0 3.42-1.2 3.9-2.7v-.01c.48-1.5-.5-2.7-2.17-2.7C2.7.04.97 1.24.49 2.74z" id="aR"/>
    <path d="M.2 2.91v.02c-.48 1.5.5 2.7 2.17 2.7 1.68 0 3.42-1.2 3.9-2.7v-.02c.48-1.49-.5-2.7-2.17-2.7C2.42.21.68 1.42.2 2.91z" id="aT"/>
    <path d="M.21 3.03v.01c-.48 1.5.5 2.7 2.17 2.7 1.68 0 3.42-1.2 3.9-2.7v-.01c.48-1.5-.5-2.7-2.17-2.7-1.68 0-3.42 1.2-3.9 2.7z" id="aV"/>
    <path d="M.26 3.1l-.01.01c-.48 1.5.5 2.7 2.17 2.7 1.68 0 3.43-1.2 3.9-2.7V3.1C6.8 1.6 5.84.4 4.16.4 2.48.4.73 1.6.25 3.1z" id="aX"/>
    <path d="M.46 2.84l-.01.02c-.48 1.49.5 2.7 2.17 2.7 1.68 0 3.43-1.21 3.9-2.7v-.02C7 1.34 6.04.14 4.36.14 2.68.14.93 1.34.45 2.84z" id="aZ"/>
    <path d="M.17 3l-.01.03c-.48 1.49.5 2.7 2.17 2.7 1.68 0 3.43-1.21 3.9-2.7V3C6.72 1.5 5.75.3 4.07.3 2.4.3.64 1.5.16 3z" id="bb"/>
    <path d="M.33 2.93v.02c-.48 1.5.5 2.7 2.17 2.7 1.68 0 3.42-1.2 3.9-2.7v-.02c.48-1.49-.5-2.7-2.17-2.7C2.55.23.81 1.44.33 2.93z" id="bd"/>
    <path d="M.49 3.1l-.01.02c-.47 1.5.5 2.7 2.18 2.7 1.67 0 3.42-1.2 3.9-2.7V3.1C7.03 1.6 6.06.4 4.38.4 2.71.4.96 1.6.48 3.1z" id="bf"/>
    <path d="M.13 2.75v.01c-.48 1.5.5 2.7 2.17 2.7 1.68 0 3.42-1.2 3.9-2.7v-.01c.48-1.5-.5-2.7-2.17-2.7-1.68 0-3.42 1.2-3.9 2.7z" id="bh"/>
    <path d="M.29 2.91v.02c-.48 1.5.49 2.7 2.17 2.7 1.67 0 3.42-1.2 3.9-2.7v-.02c.47-1.49-.5-2.7-2.18-2.7C2.51.21.76 1.42.28 2.91z" id="bj"/>
    <path d="M.48 3.03v.01c-.48 1.5.5 2.7 2.17 2.7 1.68 0 3.42-1.2 3.9-2.7v-.01c.48-1.5-.5-2.7-2.17-2.7S.96 1.52.48 3.02z" id="bl"/>
    <path d="M.53 3.1v.01c-.48 1.5.49 2.7 2.17 2.7 1.67 0 3.42-1.2 3.9-2.7V3.1C7.08 1.6 6.1.4 4.43.4 2.75.4 1 1.6.53 3.1z" id="bn"/>
    <path d="M.28 2.84v.02c-.48 1.49.5 2.7 2.17 2.7 1.68 0 3.43-1.21 3.9-2.7v-.02c.48-1.5-.5-2.7-2.17-2.7S.76 1.34.28 2.84z" id="bp"/>
    <path d="M.44 3v.03c-.48 1.49.49 2.7 2.17 2.7 1.67 0 3.42-1.21 3.9-2.7V3C6.99 1.5 6.01.3 4.34.3 2.66.3.9 1.5.44 3z" id="br"/>
    <path d="M.16 2.93v.02c-.48 1.5.5 2.7 2.17 2.7 1.68 0 3.42-1.2 3.9-2.7v-.02c.48-1.49-.5-2.7-2.17-2.7C2.38.23.64 1.44.16 2.93z" id="bt"/>
    <path d="M.32 3.1v.02c-.49 1.5.49 2.7 2.17 2.7 1.67 0 3.42-1.2 3.9-2.7V3.1C6.86 1.6 5.89.4 4.2.4 2.54.4.8 1.6.31 3.1z" id="bv"/>
    <path d="M.4 2.75v.01c-.48 1.5.5 2.7 2.17 2.7 1.68 0 3.43-1.2 3.9-2.7v-.01c.48-1.5-.49-2.7-2.17-2.7C2.63.04.88 1.24.4 2.74z" id="bx"/>
    <path d="M.56 2.91v.02c-.48 1.5.5 2.7 2.17 2.7s3.42-1.2 3.9-2.7v-.02c.48-1.49-.5-2.7-2.17-2.7-1.68 0-3.42 1.21-3.9 2.7z" id="bz"/>
    <path d="M.44 3.03v.01c-.48 1.5.5 2.7 2.17 2.7 1.68 0 3.42-1.2 3.9-2.7v-.01C7 1.53 6.02.33 4.35.33 2.66.32.92 1.52.44 3.02z" id="bB"/>
    <path d="M.49 3.1l-.01.01c-.48 1.5.5 2.7 2.18 2.7 1.67 0 3.42-1.2 3.9-2.7V3.1C7.03 1.6 6.06.4 4.38.4 2.71.4.96 1.6.48 3.1z" id="bD"/>
    <path d="M.24 2.84v.02c-.48 1.49.5 2.7 2.17 2.7 1.68 0 3.42-1.21 3.9-2.7v-.02c.48-1.5-.5-2.7-2.17-2.7-1.68 0-3.42 1.2-3.9 2.7z" id="bF"/>
    <path d="M.4 3l-.01.03c-.48 1.49.5 2.7 2.17 2.7 1.68 0 3.43-1.21 3.9-2.7V3C6.95 1.5 5.98.3 4.3.3 2.62.3.87 1.5.4 3z" id="bH"/>
    <path d="M.56 2.93v.02c-.48 1.5.5 2.7 2.17 2.7 1.68 0 3.42-1.2 3.9-2.7v-.02c.48-1.49-.5-2.7-2.17-2.7S1.04 1.44.56 2.93z" id="bJ"/>
    <path d="M.27 3.1v.02c-.48 1.5.5 2.7 2.17 2.7 1.68 0 3.42-1.2 3.9-2.7V3.1C6.83 1.6 5.85.4 4.18.4S.75 1.6.27 3.1z" id="bL"/>
    <path d="M.36 2.75v.01c-.48 1.5.5 2.7 2.17 2.7 1.68 0 3.42-1.2 3.9-2.7v-.01c.48-1.5-.5-2.7-2.17-2.7S.84 1.24.36 2.74z" id="bN"/>
    <path d="M.52 2.91v.02c-.48 1.5.49 2.7 2.17 2.7 1.67 0 3.42-1.2 3.9-2.7v-.02c.48-1.49-.5-2.7-2.17-2.7C2.74.21.99 1.42.52 2.91z" id="bP"/>
    <path d="M.27 3.03v.01c-.48 1.5.5 2.7 2.17 2.7 1.68 0 3.42-1.2 3.9-2.7v-.01c.48-1.5-.5-2.7-2.17-2.7-1.68 0-3.42 1.2-3.9 2.7z" id="bR"/>
    <path d="M.32 3.1L.3 3.1c-.48 1.5.5 2.7 2.17 2.7 1.68 0 3.43-1.2 3.9-2.7V3.1C6.87 1.6 5.9.4 4.22.4 2.54.4.8 1.6.31 3.1z" id="bT"/>
    <path d="M.52 2.84l-.01.02c-.48 1.49.5 2.7 2.17 2.7 1.68 0 3.43-1.21 3.9-2.7v-.02c.48-1.5-.5-2.7-2.17-2.7S1 1.34.51 2.84z" id="bV"/>
    <path d="M.23 3l-.01.03c-.48 1.49.5 2.7 2.17 2.7 1.68 0 3.43-1.21 3.9-2.7V3C6.78 1.5 5.8.3 4.13.3 2.45.3.7 1.5.22 3z" id="bX"/>
    <path d="M.4 2.93l-.01.02c-.48 1.5.5 2.7 2.17 2.7 1.68 0 3.42-1.2 3.9-2.7v-.02c.48-1.49-.5-2.7-2.17-2.7C2.61.23.87 1.44.4 2.93z" id="bZ"/>
    <path d="M.55 3.1v.02c-.48 1.5.49 2.7 2.17 2.7 1.67 0 3.42-1.2 3.9-2.7V3.1C7.1 1.6 6.12.4 4.44.4 2.77.4 1.02 1.6.54 3.1z" id="cb"/>
    <path d="M.2 2.75l-.01.01c-.48 1.5.5 2.7 2.17 2.7 1.68 0 3.42-1.2 3.9-2.7v-.01c.48-1.5-.5-2.7-2.17-2.7S.67 1.24.2 2.74z" id="cd"/>
    <path d="M.35 2.91v.02c-.48 1.5.49 2.7 2.17 2.7 1.67 0 3.42-1.2 3.9-2.7v-.02c.48-1.49-.5-2.7-2.18-2.7C2.57.21.82 1.42.34 2.91z" id="cf"/>
    <path d="M.36 3.03v.01c-.48 1.5.49 2.7 2.17 2.7 1.67 0 3.42-1.2 3.9-2.7v-.01c.48-1.5-.5-2.7-2.17-2.7-1.68 0-3.43 1.2-3.9 2.7z" id="ch"/>
    <path d="M.4 3.1v.01c-.48 1.5.5 2.7 2.17 2.7 1.68 0 3.42-1.2 3.9-2.7V3.1C6.95 1.6 5.97.4 4.3.4 2.62.4.88 1.6.4 3.1z" id="cj"/>
    <path d="M.16 2.84v.02c-.48 1.49.49 2.7 2.17 2.7 1.67 0 3.42-1.21 3.9-2.7v-.02c.48-1.5-.5-2.7-2.17-2.7-1.68 0-3.43 1.2-3.9 2.7z" id="cl"/>
    <path d="M.31 3v.03c-.48 1.49.5 2.7 2.17 2.7 1.68 0 3.42-1.21 3.9-2.7V3C6.86 1.5 5.88.3 4.21.3 2.53.3.79 1.5.3 3z" id="cn"/>
    <path d="M.48 2.93v.02c-.48 1.5.5 2.7 2.17 2.7s3.42-1.2 3.9-2.7v-.02c.48-1.49-.5-2.7-2.17-2.7C2.7.23.95 1.44.48 2.93z" id="cp"/>
    <path d="M.19 3.1v.02c-.48 1.5.5 2.7 2.17 2.7s3.42-1.2 3.9-2.7V3.1C6.74 1.6 5.76.4 4.1.4 2.4.4.67 1.6.19 3.1z" id="cr"/>
    <path d="M.28 2.75v.01c-.48 1.5.5 2.7 2.17 2.7 1.68 0 3.42-1.2 3.9-2.7v-.01c.48-1.5-.5-2.7-2.17-2.7C2.5.04.75 1.24.28 2.74z" id="ct"/>
    <path d="M.43 2.91v.02c-.48 1.5.5 2.7 2.17 2.7 1.68 0 3.42-1.2 3.9-2.7v-.02C6.98 1.42 6 .21 4.33.21 2.65.21.91 1.42.43 2.91z" id="cv"/>
    <path d="M.19 3.03v.01c-.48 1.5.49 2.7 2.17 2.7 1.67 0 3.42-1.2 3.9-2.7v-.01c.48-1.5-.5-2.7-2.18-2.7-1.67 0-3.42 1.2-3.9 2.7z" id="cx"/>
    <path d="M.23 3.1v.01c-.48 1.5.5 2.7 2.17 2.7 1.68 0 3.42-1.2 3.9-2.7V3.1C6.78 1.6 5.8.4 4.13.4 2.45.4.7 1.6.23 3.1z" id="cz"/>
    <path d="M.29 2.84v.02c-.48 1.49.5 2.7 2.17 2.7 1.68 0 3.42-1.21 3.9-2.7v-.02c.48-1.5-.5-2.7-2.17-2.7C2.5.14.77 1.34.29 2.84z" id="cB"/>
    <path d="M.14 3v.03c-.48 1.49.5 2.7 2.17 2.7 1.68 0 3.42-1.21 3.9-2.7V3C6.7 1.5 5.71.3 4.04.3 2.36.3.62 1.5.14 3z" id="cD"/>
    <path d="M.31 2.93v.02c-.48 1.5.5 2.7 2.17 2.7s3.42-1.2 3.9-2.7v-.02c.48-1.49-.5-2.7-2.17-2.7C2.53.23.78 1.44.3 2.93z" id="cF"/>
    <path d="M.46 3.1v.02c-.48 1.5.5 2.7 2.17 2.7 1.68 0 3.42-1.2 3.9-2.7V3.1C7.01 1.6 6.03.4 4.36.4 2.68.4.94 1.6.46 3.1z" id="cH"/>
    <path d="M.55 2.75v.01c-.48 1.5.5 2.7 2.17 2.7 1.68 0 3.42-1.2 3.9-2.7v-.01c.48-1.5-.5-2.7-2.17-2.7-1.68 0-3.42 1.2-3.9 2.7z" id="cJ"/>
    <path d="M.26 2.91v.02c-.48 1.5.5 2.7 2.17 2.7 1.68 0 3.42-1.2 3.9-2.7v-.02c.48-1.49-.5-2.7-2.17-2.7C2.48.21.74 1.42.26 2.91z" id="cL"/>
    <path d="M.2 3.03v.01c-.48 1.5.5 2.7 2.17 2.7 1.68 0 3.43-1.2 3.9-2.7v-.01c.48-1.5-.49-2.7-2.17-2.7C2.43.32.68 1.52.2 3.02z" id="cN"/>
    <path d="M.25 3.1v.01c-.48 1.5.5 2.7 2.17 2.7s3.42-1.2 3.9-2.7V3.1C6.8 1.6 5.82.4 4.15.4 2.47.4.72 1.6.25 3.1z" id="cP"/>
    <path d="M.45 2.84v.02c-.48 1.49.5 2.7 2.17 2.7s3.42-1.21 3.9-2.7v-.02C7 1.34 6.02.14 4.35.14 2.67.14.93 1.34.45 2.84z" id="cR"/>
    <path d="M.16 3v.03c-.48 1.49.5 2.7 2.17 2.7s3.42-1.21 3.9-2.7V3C6.71 1.5 5.73.3 4.06.3 2.38.3.64 1.5.16 3z" id="cT"/>
    <path d="M.33 2.93v.02c-.48 1.5.49 2.7 2.17 2.7 1.67 0 3.42-1.2 3.9-2.7v-.02c.47-1.49-.5-2.7-2.18-2.7C2.55.23.8 1.44.32 2.93z" id="cV"/>
    <path d="M.48 3.1v.02c-.48 1.5.5 2.7 2.17 2.7 1.68 0 3.42-1.2 3.9-2.7V3.1C7.03 1.6 6.05.4 4.38.4 2.7.4.96 1.6.48 3.1z" id="cX"/>
    <path d="M.13 2.75v.01c-.48 1.5.49 2.7 2.17 2.7 1.67 0 3.42-1.2 3.9-2.7v-.01c.48-1.5-.5-2.7-2.17-2.7C2.35.04.6 1.24.13 2.74z" id="cZ"/>
    <path d="M.28 2.91v.02c-.48 1.5.5 2.7 2.17 2.7 1.68 0 3.42-1.2 3.9-2.7v-.02c.48-1.49-.5-2.7-2.17-2.7C2.5.21.76 1.42.28 2.91z" id="db"/>
    <path d="M.48 3.03v.01c-.48 1.5.5 2.7 2.17 2.7s3.42-1.2 3.9-2.7v-.01c.48-1.5-.5-2.7-2.17-2.7C2.7.32.95 1.52.48 3.02z" id="dd"/>
    <path d="M.52 3.1v.01c-.48 1.5.5 2.7 2.17 2.7 1.68 0 3.42-1.2 3.9-2.7V3.1C7.07 1.6 6.1.4 4.42.4 2.74.4 1 1.6.52 3.1z" id="df"/>
    <path d="M.23 2.84v.02c-.48 1.49.5 2.7 2.17 2.7 1.68 0 3.42-1.21 3.9-2.7v-.02c.48-1.5-.5-2.7-2.17-2.7C2.45.14.7 1.34.23 2.84z" id="dh"/>
    <path d="M.43 3v.03c-.48 1.49.5 2.7 2.17 2.7 1.68 0 3.42-1.21 3.9-2.7V3C6.98 1.5 6 .3 4.33.3 2.65.3.9 1.5.43 3z" id="dj"/>
    <path d="M.16 2.93v.02c-.48 1.5.49 2.7 2.17 2.7 1.67 0 3.42-1.2 3.9-2.7v-.02c.47-1.49-.5-2.7-2.18-2.7C2.38.23.63 1.44.15 2.93z" id="dl"/>
    <path d="M.31 3.1v.02c-.48 1.5.5 2.7 2.17 2.7 1.68 0 3.42-1.2 3.9-2.7V3.1C6.86 1.6 5.88.4 4.21.4 2.53.4.79 1.6.3 3.1z" id="dn"/>
    <path d="M.4 2.75v.01c-.48 1.5.5 2.7 2.17 2.7 1.68 0 3.42-1.2 3.9-2.7v-.01c.48-1.5-.5-2.7-2.17-2.7C2.62.04.88 1.24.4 2.74z" id="dp"/>
    <path d="M.55 2.91v.02c-.48 1.5.5 2.7 2.17 2.7 1.68 0 3.42-1.2 3.9-2.7v-.02c.48-1.49-.5-2.7-2.17-2.7-1.68 0-3.42 1.21-3.9 2.7z" id="dr"/>
    <path d="M.56 3.03v.01c-.48 1.5.5 2.7 2.17 2.7 1.68 0 3.42-1.2 3.9-2.7v-.01c.48-1.5-.5-2.7-2.17-2.7-1.68 0-3.42 1.2-3.9 2.7z" id="dt"/>
    <path d="M.16 3.1v.01c-.48 1.5.5 2.7 2.17 2.7 1.68 0 3.42-1.2 3.9-2.7V3.1C6.72 1.6 5.74.4 4.07.4 2.38.4.64 1.6.16 3.1z" id="dv"/>
    <path d="M.36 2.84v.02c-.48 1.49.5 2.7 2.17 2.7 1.68 0 3.42-1.21 3.9-2.7v-.02c.48-1.5-.5-2.7-2.17-2.7-1.68 0-3.42 1.2-3.9 2.7z" id="dx"/>
    <path d="M.52 3v.03c-.48 1.49.49 2.7 2.17 2.7 1.67 0 3.42-1.21 3.9-2.7V3C7.06 1.5 6.09.3 4.4.3 2.74.3 1 1.5.51 3z" id="dz"/>
    <path d="M.24 2.93v.02c-.48 1.5.5 2.7 2.17 2.7 1.68 0 3.42-1.2 3.9-2.7v-.02c.48-1.49-.5-2.7-2.17-2.7C2.46.23.72 1.44.24 2.93z" id="dB"/>
    <path d="M.4 3.1l-.01.02c-.48 1.5.5 2.7 2.17 2.7 1.68 0 3.43-1.2 3.9-2.7V3.1C6.95 1.6 5.97.4 4.3.4S.87 1.6.4 3.1z" id="dD"/>
    <path d="M.49 2.75l-.01.01c-.48 1.5.5 2.7 2.17 2.7 1.68 0 3.43-1.2 3.9-2.7v-.01c.48-1.5-.49-2.7-2.17-2.7-1.67 0-3.42 1.2-3.9 2.7z" id="dF"/>
    <path d="M.2 2.91l-.01.02c-.48 1.5.5 2.7 2.17 2.7 1.68 0 3.43-1.2 3.9-2.7v-.02C6.75 1.42 5.78.21 4.1.21 2.42.21.67 1.42.2 2.91z" id="dH"/>
    <path d="M.4 3.03l-.01.01c-.48 1.5.5 2.7 2.17 2.7 1.68 0 3.42-1.2 3.9-2.7v-.01c.48-1.5-.5-2.7-2.17-2.7C2.61.32.87 1.52.4 3.02z" id="dJ"/>
    <path d="M.44 3.1l-.01.01c-.48 1.5.5 2.7 2.18 2.7 1.67 0 3.42-1.2 3.9-2.7V3.1C6.98 1.6 6 .4 4.33.4 2.66.4.91 1.6.43 3.1z" id="dL"/>
    <path d="M.2 2.84l-.01.02c-.48 1.49.5 2.7 2.17 2.7 1.68 0 3.42-1.21 3.9-2.7v-.02c.48-1.5-.5-2.7-2.17-2.7C2.41.14.67 1.34.2 2.84z" id="dN"/>
    <path d="M.35 3v.03c-.49 1.49.49 2.7 2.17 2.7 1.67 0 3.42-1.21 3.9-2.7V3C6.89 1.5 5.92.3 4.24.3 2.57.3.82 1.5.34 3z" id="dP"/>
    <path d="M.51 2.93v.02c-.48 1.5.5 2.7 2.17 2.7 1.68 0 3.43-1.2 3.9-2.7v-.02c.48-1.49-.5-2.7-2.17-2.7S1 1.44.51 2.93z" id="dR"/>
    <path d="M.23 3.1l-.01.02c-.48 1.5.5 2.7 2.17 2.7 1.68 0 3.43-1.2 3.9-2.7V3.1C6.78 1.6 5.8.4 4.13.4S.7 1.6.22 3.1z" id="dT"/>
    <path d="M.32 2.75l-.01.01c-.48 1.5.5 2.7 2.17 2.7 1.68 0 3.43-1.2 3.9-2.7v-.01c.48-1.5-.5-2.7-2.17-2.7S.8 1.24.31 2.74z" id="dV"/>
    <path d="M.47 2.91v.02c-.48 1.5.49 2.7 2.17 2.7 1.67 0 3.42-1.2 3.9-2.7v-.02c.48-1.49-.5-2.7-2.17-2.7C2.69.21.94 1.42.47 2.91z" id="dX"/>
    <path id="dZ" d="M0 .22h360v29.06H0z"/>
    <path id="eb" d="M10 310.46h360V0H10z"/>
  </defs>
  <g fill="none" fill-rule="evenodd">
    <rect y=".78" width="310" height="261.22" rx="10" transform="translate(25 16)" fill="#9B9B9B"/>
    <path fill="#7C7C7C" d="M91.1 74.42l144.08.43-15.14 58.06H75.21z"/>
    <path d="M92.2 85.98L84.97 82l-14.23 44.08s11.46 1.8 11.19 1.2c-.27-.58 10.25-41.31 10.25-41.31" fill="#6B6B6B"/>
    <path d="M251.34 28.34l-33.3 110.01c-1.75 6.07-6.76 10.17-12.4 10.17 0 0-116.95-.14-118.29-.56-5.33-1.66-12.28-8.51-14.96-17.34-1.12-3.69-.4-10.02 1.02-14.68l31.5-97.45c1.7-6.17 6.74-10.38 12.46-10.38l121.36.57c8.87 0 15.36 10.13 12.61 19.66" fill="#BFBFBF"/>
    <path d="M231.02 1.08s19.96-1.5 22.93 12.6c1.1 5.16-5.5 24.94-5.5 24.94L234 29.91l-3-28.83z" fill="#3D3D3D"/>
    <path d="M236.56 25.58l-30.26 98.74c-1.75 5.73-6.77 9.61-12.42 9.61H81.96c-11.85 0-10.4-9.21-7.68-18.21l29.89-98.75c1.74-5.75 4.87-8.73 12.44-8.73h107.52c10.5 0 15.19 8.33 12.43 17.34" fill="#DDD"/>
    <path d="M192.72 11.07l37.4-9.73c1.08-.39 7.15-.62 9.17 1.2 2.2 1.98 3.33 6.48 2.27 9.3l-6.07 18.97-42.77-19.74zM157.5 18.84L126.88 3.4c-4.58-2.3-7.94-3.8-13.4-.92-5.47 2.88-9.25 16.15-9.25 16.15l53.29.2z" fill="#232323"/>
    <path d="M232.84 24.53l-29.3 94.43c-1.7 5.48-6.56 9.19-12.04 9.19H83.11c-11.47 0-10.07-8.82-7.43-17.42l28.94-94.43c1.69-5.5 4.72-8.35 12.05-8.35H220.8c10.18 0 14.7 7.97 12.04 16.58" fill="#FFF"/>
    <path d="M224.7 28.85l-13.58 42.98a12.7 12.7 0 01-12.1 8.51h-94.66c-8.57 0-14.7-6.74-12.15-14.68l14.26-44.31a12.68 12.68 0 0112.15-8.68h94.88c8.65 0 13.88 8.2 11.2 16.18" fill="#6B6B6B"/>
    <path d="M159.81 87.9l-3.35 9.76a2.94 2.94 0 01-2.8 1.94h-22.22c-1.98 0-3.4-1.83-2.81-3.64l3.19-9.76a2.93 2.93 0 012.81-1.98h22.38c2 0 3.42 1.87 2.8 3.68M146.49 117.21h-18.63c-2.96 0-4.3-2.45-3.66-4.9.64-2.46 3.33-4.47 5.97-4.47h18.63c2.65 0 4.3 2.01 3.66 4.47-.64 2.45-2.74 4.9-5.97 4.9M181.6 87.09c6.28.5 10.95 6.5 10.44 13.4-.52 6.9-6.03 12.08-12.31 11.57-6.29-.5-10.96-6.5-10.45-13.4.52-6.9 6.03-12.08 12.31-11.57M99.46 109.59c-5.56-2.26-8.28-9.05-6.07-15.18 2.2-6.12 8.5-9.26 14.05-7 5.56 2.25 8.29 9.05 6.08 15.17-2.2 6.13-8.5 9.26-14.06 7" fill="#DBDBDB"/>
    <path d="M241.3 60.23c-.96 3.83-4.44 6.2-7.77 5.3-3.32-.91-5.23-4.75-4.26-8.58.97-3.83 4.45-6.2 7.77-5.3 3.33.91 5.24 4.75 4.27 8.58" fill="#ADADAD"/>
    <path d="M242.81 43.23c0 1.6-1.12 2.9-2.51 2.9-1.39 0-2.51-1.3-2.51-2.9 0-1.6 1.12-2.89 2.51-2.89 1.39 0 2.51 1.3 2.51 2.9" fill="#8E8E8E"/>
    <path fill="#B2B2B2" d="M179.55 179.9l3.4 28.12-22.5-.09-.85-41.35z"/>
    <path d="M164.17 193.28c0-19.1-12.9-34.74-28.67-34.74h24.72c15.77 0 28.67 15.63 28.67 34.74 0 19.1-12.9 34.73-28.67 34.73H135.5c15.77 0 28.67-15.63 28.67-34.73" fill="#333"/>
    <path d="M154.36 228.01H68.04a32.11 32.11 0 01-31.98-32.05v-5.37a32.11 32.11 0 0131.98-32.05h86.32a32.11 32.11 0 0131.99 32.05v5.37a32.11 32.11 0 01-31.99 32.05" fill="#3D3D3D"/>
    <path d="M60.78 193.28c0-19.1 12.9-34.74 29.1-35.07H65.16c-16.2.33-29.1 15.96-29.1 35.07 0 19.1 12.9 34.73 28.67 34.73h24.72c-15.77 0-28.67-15.63-28.67-34.73" fill="#333"/>
    <path d="M152.5 215.69c-3.65-5.29-5.73-13.18-5.73-22 0-8.83 2.08-16.73 5.72-22.02 1.57-2.27.63-6.64-1.42-6.64h-54.1c-2.05 0-2.98 4.37-1.42 6.64 3.64 5.29 5.72 13.19 5.72 22.01 0 8.83-2.08 16.72-5.72 22.01-1.56 2.27-.63 6.64 1.42 6.64h54.1c2.05 0 2.99-4.37 1.42-6.64" fill="#545454"/>
    <path d="M98.25 193.02c0 15.93-7.53 28.84-16.82 28.84-9.3 0-16.83-12.91-16.83-28.84 0-15.92 7.53-28.83 16.83-28.83 9.29 0 16.82 12.9 16.82 28.83M183.37 193.15c0 15.92-7.53 28.83-16.82 28.83-9.3 0-16.83-12.9-16.83-28.83 0-15.93 7.54-28.84 16.83-28.84s16.82 12.91 16.82 28.84" fill="#545454"/>
    <path fill="#333" d="M77.46 161.75h91.01l-4.63-3.1H81.48zM169.32 224.77H77.03l4.05 2.7c.38.26.82.4 1.28.4h80.57c.71 0 1.4-.24 1.97-.67l4.42-2.43z"/>
    <path d="M164.63 184.41l12.21-1.3.22 23.27c.02 2.8-2.94 5.12-6.72 5.26-5.9.2-13.5.35-13.5-.29 0-1.03 5.67-26.94 5.67-26.94h2.12z" fill="#B2B2B2"/>
    <path d="M298.75 195.04c0-19.1-12.9-34.74-28.67-34.74h24.71c15.78 0 28.68 15.63 28.68 34.74 0 19.1-12.9 34.74-28.68 34.74h-24.71c15.77 0 28.67-15.64 28.67-34.74" fill="#333"/>
    <path d="M288.65 229.18h-86.6c-17.28 0-31.41-14.56-31.41-32.35v-4.18c0-17.8 14.13-32.35 31.42-32.35h86.6c17.27 0 31.41 11.91 31.41 34.44 0 22.49-14.14 34.44-31.42 34.44" fill="#3D3D3D"/>
    <path d="M195.35 194.96c0-19.06 12.9-34.66 29.1-34.99h-24.72c-16.2.33-29.1 15.93-29.1 35 0 19.05 12.9 34.65 28.68 34.65h24.72c-15.77 0-28.68-15.6-28.68-34.66" fill="#333"/>
    <path d="M286.2 215.72c-3.57-4.9-5.6-12.24-5.6-20.43 0-8.2 2.03-15.53 5.6-20.44 1.52-2.1.6-6.16-1.4-6.16h-52.88c-2 0-2.91 4.06-1.39 6.16 3.57 4.91 5.6 12.25 5.6 20.44 0 8.2-2.03 15.53-5.6 20.43-1.52 2.11-.6 6.17 1.4 6.17H284.8c2 0 2.92-4.06 1.4-6.17" fill="#EAEAEA"/>
    <path d="M285.34 215.72c-3.6-4.9-5.65-12.24-5.65-20.43 0-8.2 2.05-15.53 5.65-20.44 1.54-2.1.62-6.16-1.4-6.16h-50.42c-2.02 0-2.95 4.06-1.4 6.16 3.6 4.91 5.64 12.25 5.64 20.44 0 8.2-2.05 15.53-5.64 20.43-1.55 2.11-.62 6.17 1.4 6.17h50.41c2.03 0 2.95-4.06 1.4-6.17" fill="#FFF"/>
    <path d="M232.83 194.68c0 14.78-7.53 26.77-16.83 26.77-9.29 0-16.82-11.99-16.82-26.77 0-14.79 7.53-26.77 16.82-26.77 9.3 0 16.83 11.98 16.83 26.77" fill="#EAEAEA"/>
    <path d="M231.18 194.68c0 12.6-6.41 22.8-14.33 22.8-7.91 0-14.33-10.2-14.33-22.8 0-12.6 6.42-22.8 14.33-22.8 7.92 0 14.33 10.2 14.33 22.8" fill="#FFF"/>
    <path d="M317.95 194.8c0 14.78-7.53 26.76-16.82 26.76-9.3 0-16.83-11.98-16.83-26.77 0-14.78 7.53-26.77 16.83-26.77 9.29 0 16.82 11.99 16.82 26.77" fill="#EAEAEA"/>
    <path d="M316.14 194.8c0 12.44-6.34 22.54-14.17 22.54-7.82 0-14.16-10.1-14.16-22.55 0-12.45 6.34-22.54 14.16-22.54 7.83 0 14.17 10.1 14.17 22.54" fill="#FFF"/>
    <path fill="#333" d="M297.15 161.3l-86.6.35v-1.82l86.17.61z"/>
    <path d="M290.28 125.15H260.8c-6.3 0-5.26-22.33-4.61-31.12a7.82 7.82 0 00-2.35-6.25c-17.36-16.5-35.57-4.79-38.73-1.66l-14.53 41.71c-.84 2.3-4.51 6.12-7.53 6.12L84.9 131.97c-4.54 0-11.54-1.61-10.27-5.07l10.75-42.95c1.01-4.25-2.1-3.71-4.3 1.22l-21.8 51.14-5.41 12.7c-1.83 4.42-4.15 9.01-8.13 11.5-5.9 3.68-7.71 9-9.02 19.28-.62 4.86 2.67 8.83 7.4 8.83h134.65c4.23 0 11.35 1.14 15.88-3.22 4.53-4.35 4.06-25.18 4.06-25.18.87-2.13 0 0 2.23 0h98.6c6.25 0 12.95 7.28 16.28 11.45.6.74 1.75.2 1.6-.76-2-12.5-9.83-45.76-27.14-45.76" fill="#FFF"/>
    <path d="M317.25 169.88c-.33.43-1.02.54-1.43.02-3.33-4.17-10.03-11.44-16.28-11.44h-98.6c-2.23 0-2.53 1.37-3.4 3.5l-2.52 16.76a8.1 8.1 0 01-5.69 6.63 43.7 43.7 0 01-10.56 1.51H43.98c-3.84 0-6.78-2.04-7.21-5.36-.52 4.35 2.73 7.12 7.21 7.12h134.8c4.17.62 9.66.08 12.78-1 3.72-1.27 6.31-5.3 6.55-9.36.4-6.92 1.3-18.04 2.83-18.04h98.6c6.25 0 12.95 7.27 16.28 11.45.6.74 1.75.2 1.6-.76a99.8 99.8 0 00-.17-1.03" fill="#BFBFBF"/>
    <path d="M142.57 204.4H70.91a13.62 13.62 0 01-13.57-13.6v-.48c0-7.48 6.11-13.6 13.57-13.6h71.66c7.47 0 13.57 6.12 13.57 13.6v.49c0 7.48-6.1 13.6-13.57 13.6" fill="#B2B2B2"/>
    <path d="M166.13 178.98c.76-2-.02-5-.86-5.86-2.98-3.03-3.86-2.84-9.83-2.84H66.1a20.8 20.8 0 00-20.71 20.76 20.8 20.8 0 0020.7 20.76h89.34c3.35 0 7.7.1 10.38 0 1.05-.05 1.72-1.23 1.2-2.2-4.31-8.15-4.3-21.64-.89-30.62" fill="#FFF"/>
    <path d="M139.41 206.26h-65.5a13.02 13.02 0 01-12.96-13v-.46c0-7.15 5.83-13 12.96-13h65.5c7.14 0 12.97 5.85 12.97 13v.47c0 7.14-5.83 12.99-12.97 12.99" fill="#BFBFBF"/>
    <path d="M110.8 193.1a7.1 7.1 0 01-6.95 7.22 7.1 7.1 0 01-6.96-7.22 7.1 7.1 0 016.96-7.22 7.1 7.1 0 016.96 7.22M127.5 193.1a4.82 4.82 0 01-4.73 4.91 4.82 4.82 0 01-4.73-4.91 4.82 4.82 0 014.73-4.91c2.61 0 4.73 2.2 4.73 4.9M145 193.1a4.82 4.82 0 01-4.73 4.91 4.82 4.82 0 01-4.73-4.91 4.82 4.82 0 014.73-4.91c2.62 0 4.73 2.2 4.73 4.9M74.63 193.1A4.82 4.82 0 0169.9 198a4.82 4.82 0 01-4.73-4.91 4.82 4.82 0 014.73-4.91c2.62 0 4.73 2.2 4.73 4.9M89.66 193.1a4.82 4.82 0 01-4.73 4.91 4.82 4.82 0 01-4.73-4.91 4.82 4.82 0 014.73-4.91c2.61 0 4.73 2.2 4.73 4.9" fill="#545454"/>
    <path d="M218.86 98.17l-10.1 31.57c-1.9 5.98 3.2 26.26 7.93 26.26h76.58c5.26 0 9.51-4.07 9.51-9.1v-4.06c0-2.56-1.13-5-3.1-6.73l-3.16-2.74a9.76 9.76 0 00-6.4-2.36h-26.9c-4.3 0-8.17-2.76-9.19-6.77-.13-.5-.2-.99-.2-1.44 0-2.31 1.08-16.76 1.08-18.22 0-7.57-12.41-13.95-25.06-12.66-4.88.5-9.56 1.77-11 6.25" fill="#F4F4F4"/>
    <path d="M246.64 199.3c1.62 0 2.94-1.65 2.94-3.7 0-2.06-1.32-3.72-2.94-3.72-1.63 0-2.94 1.66-2.94 3.71 0 2.06 1.31 3.72 2.94 3.72M270.41 199.3c1.63 0 2.94-1.65 2.94-3.7 0-2.06-1.31-3.72-2.94-3.72-1.62 0-2.94 1.66-2.94 3.71 0 2.06 1.32 3.72 2.94 3.72" fill="#545454"/>
    <path fill="#333" d="M296.72 229.62h-86.18v-1.32l86.18.44z"/>
    <path d="M97.36 194.22a7.1 7.1 0 016.95-7.22 6.9 6.9 0 016.01 3.6 6.96 6.96 0 00-6.43-4.48 7.1 7.1 0 00-6.96 7.22c0 1.33.35 2.56.95 3.63a7.44 7.44 0 01-.52-2.75M65.64 194.22a4.82 4.82 0 014.73-4.9c1.68 0 3.15.9 4 2.28a4.74 4.74 0 00-4.43-3.17 4.82 4.82 0 00-4.73 4.91c0 .97.28 1.87.74 2.63a5.06 5.06 0 01-.31-1.75M80.67 194.22a4.82 4.82 0 014.73-4.9c1.69 0 3.16.9 4 2.28a4.74 4.74 0 00-4.42-3.17 4.82 4.82 0 00-4.73 4.91c0 .97.27 1.87.74 2.63a5.06 5.06 0 01-.32-1.75M118.5 194.22a4.82 4.82 0 014.74-4.9c1.68 0 3.15.9 3.99 2.28a4.74 4.74 0 00-4.42-3.17 4.82 4.82 0 00-4.73 4.91c0 .97.27 1.87.74 2.63a5.06 5.06 0 01-.32-1.75M136 194.22a4.82 4.82 0 014.74-4.9c1.68 0 3.15.9 4 2.28a4.74 4.74 0 00-4.42-3.17 4.82 4.82 0 00-4.74 4.91c0 .97.28 1.87.74 2.63a5.05 5.05 0 01-.31-1.75" fill="#494949"/>
    <path d="M214.91 184.68a3.05 3.05 0 003 3.11c1.65 0 2.99-1.4 2.99-3.1a3.05 3.05 0 00-3-3.12c-1.65 0-2.99 1.4-2.99 3.11M214.91 204.91a3.05 3.05 0 003 3.11c1.65 0 2.99-1.4 2.99-3.1a3.05 3.05 0 00-3-3.12c-1.65 0-2.99 1.4-2.99 3.11M209.63 197.9c1.66 0 3-1.39 3-3.1a3.05 3.05 0 00-3-3.11c-1.65 0-2.99 1.39-2.99 3.1a3.05 3.05 0 003 3.12M225.45 197.9c1.66 0 3-1.39 3-3.1a3.05 3.05 0 00-3-3.11c-1.65 0-3 1.39-3 3.1a3.05 3.05 0 003 3.12M216.1 195.94h3.96c.62 0 1.12-.5 1.12-1.12v-.04c0-.62-.5-1.13-1.12-1.13h-3.96c-.62 0-1.13.5-1.13 1.13v.04c0 .62.5 1.12 1.13 1.12" fill="#545454"/>
    <path d="M219.18 196.91v-4.23c0-.61-.5-1.1-1.1-1.1-.61 0-1.1.49-1.1 1.1v4.23c0 .61.49 1.11 1.1 1.11.6 0 1.1-.5 1.1-1.1M300.03 184.68a3.05 3.05 0 003 3.11c1.65 0 3-1.4 3-3.1a3.05 3.05 0 00-3-3.12c-1.66 0-3 1.4-3 3.11M300.03 204.91a3.05 3.05 0 003 3.11c1.65 0 3-1.4 3-3.1a3.05 3.05 0 00-3-3.12c-1.66 0-3 1.4-3 3.11M294.76 197.9c1.65 0 3-1.39 3-3.1a3.05 3.05 0 00-3-3.11c-1.66 0-3 1.39-3 3.1a3.05 3.05 0 003 3.12M310.57 197.9c1.66 0 3-1.39 3-3.1a3.05 3.05 0 00-3-3.11c-1.65 0-2.99 1.39-2.99 3.1a3.05 3.05 0 003 3.12M301.22 195.94h3.96c.62 0 1.13-.5 1.13-1.12v-.04c0-.62-.5-1.13-1.13-1.13h-3.96c-.62 0-1.12.5-1.12 1.13v.04c0 .62.5 1.12 1.12 1.12" fill="#545454"/>
    <path d="M304.3 196.91v-4.23c0-.61-.5-1.1-1.1-1.1-.6 0-1.1.49-1.1 1.1v4.23c0 .61.5 1.11 1.1 1.11.6 0 1.1-.5 1.1-1.1" fill="#545454"/>
    <path d="M215.73 81.57c-1.4 1.44-8.06 26.03-11.92 36.48-3.06 8.27-9.97 8.82-10.82 9.13-2.9 1.07-93.33.56-109.6 0-10.68-.37-9.9-5.74-9.84-6.27.54-4.24 12.47-38.8 12.47-38.8s-.63-2.72-2.33.03l-17.2 43.4c-2.79 8.05 3.9 13.93 8.25 13.78 0 0 114.9 1.91 119.58 1.91 8.14 0 10.4-7.06 12.22-12.31.97-2.81 7.2-24.89 11.83-37.73 1.91-5.29 5.13-6.11 7.22-6.68 5.89-1.59 18.33-1.25 28.16 5.07 3.27 2.1.76-3.84-6.45-7.39-9.7-4.77-28.73-3.56-31.57-.62" fill="#F4F4F4"/>
    <path d="M157.35 184.09a6.52 6.52 0 00-.52-6.36 5.46 5.46 0 00-4.78-2.4H70.19c-10.12 0-12.85 4.88-12.85 10.9v13.84c0 6.02 6.61 10.9 12.85 10.9h85.76c1.46 0 2.75-1.68 1.85-2.82-2.05-2.6-3.56-17.18-.45-24.06z" stroke="#E2E2E2" stroke-width="1.68"/>
    <g transform="translate(118.23 72.66)">
      <mask id="c" fill="#fff">
        <use xlink:href="#b"/>
      </mask>
      <path fill="#7C7C7C" mask="url(#c)" d="M-2.23 4.6h71.1l1.87-5.87H-.36z"/>
    </g>
    <g transform="translate(109.82 19.42)">
      <mask id="e" fill="#fff">
        <use xlink:href="#d"/>
      </mask>
      <path fill="#707070" mask="url(#e)" d="M-2.96 7.3H6.6l2.72-8.53H-.24z"/>
    </g>
    <g transform="translate(101.4 45.6)">
      <mask id="g" fill="#fff">
        <use xlink:href="#f"/>
      </mask>
      <path fill="#707070" mask="url(#g)" d="M-2.92 7.37h9.56l2.72-8.53H-.2z"/>
    </g>
    <g transform="translate(105.39 32.73)">
      <mask id="i" fill="#fff">
        <use xlink:href="#h"/>
      </mask>
      <path fill="#707070" mask="url(#i)" d="M-2.72 7.11h9.56l2.72-8.53H0z"/>
    </g>
    <g transform="translate(96.97 58.46)">
      <mask id="k" fill="#fff">
        <use xlink:href="#j"/>
      </mask>
      <path fill="#707070" mask="url(#k)" d="M-2.57 7.28H7l2.72-8.53H.15z"/>
    </g>
    <g transform="translate(107.6 26.08)">
      <mask id="m" fill="#fff">
        <use xlink:href="#l"/>
      </mask>
      <path fill="#707070" mask="url(#m)" d="M-2.84 7.2h9.56l2.72-8.52H-.12z"/>
    </g>
    <g transform="translate(99.19 51.81)">
      <mask id="o" fill="#fff">
        <use xlink:href="#n"/>
      </mask>
      <path fill="#707070" mask="url(#o)" d="M-2.69 7.37h9.57L9.6-1.15H.03z"/>
    </g>
    <g transform="translate(103.17 39.39)">
      <mask id="q" fill="#fff">
        <use xlink:href="#p"/>
      </mask>
      <path fill="#707070" mask="url(#q)" d="M-2.6 7.02h9.57l2.72-8.53H.12z"/>
    </g>
    <g transform="translate(95.2 65.12)">
      <mask id="s" fill="#fff">
        <use xlink:href="#r"/>
      </mask>
      <path fill="#707070" mask="url(#s)" d="M-2.89 7.19h9.57L9.4-1.34H-.17z"/>
    </g>
    <g transform="translate(167.82 19.42)">
      <mask id="u" fill="#fff">
        <use xlink:href="#t"/>
      </mask>
      <path fill="#707070" mask="url(#u)" d="M-2.7 7.3h9.57L9.6-1.23H.03z"/>
    </g>
    <g transform="translate(159.41 45.6)">
      <mask id="w" fill="#fff">
        <use xlink:href="#v"/>
      </mask>
      <path fill="#707070" mask="url(#w)" d="M-2.65 7.37h9.57l2.72-8.53H.07z"/>
    </g>
    <g transform="translate(163.84 32.73)">
      <mask id="y" fill="#fff">
        <use xlink:href="#x"/>
      </mask>
      <path fill="#707070" mask="url(#y)" d="M-2.9 7.11h9.57L9.4-1.42H-.17z"/>
    </g>
    <g transform="translate(155.42 58.46)">
      <mask id="A" fill="#fff">
        <use xlink:href="#z"/>
      </mask>
      <path fill="#707070" mask="url(#A)" d="M-2.74 7.28h9.57l2.72-8.53H-.02z"/>
    </g>
    <g transform="translate(165.6 26.08)">
      <mask id="C" fill="#fff">
        <use xlink:href="#B"/>
      </mask>
      <path fill="#707070" mask="url(#C)" d="M-2.57 7.2H7l2.72-8.52H.15z"/>
    </g>
    <g transform="translate(157.64 51.81)">
      <mask id="E" fill="#fff">
        <use xlink:href="#D"/>
      </mask>
      <path fill="#707070" mask="url(#E)" d="M-2.86 7.37h9.57l2.72-8.52H-.14z"/>
    </g>
    <g transform="translate(161.62 39.39)">
      <mask id="G" fill="#fff">
        <use xlink:href="#F"/>
      </mask>
      <path fill="#707070" mask="url(#G)" d="M-2.77 7.02H6.8l2.72-8.53H-.05z"/>
    </g>
    <g transform="translate(153.21 65.12)">
      <mask id="I" fill="#fff">
        <use xlink:href="#H"/>
      </mask>
      <path fill="#707070" mask="url(#I)" d="M-2.62 7.19h9.57l2.72-8.53H.1z"/>
    </g>
    <g transform="translate(138.6 19.42)">
      <mask id="K" fill="#fff">
        <use xlink:href="#J"/>
      </mask>
      <path fill="#707070" mask="url(#K)" d="M-2.6 7.3h9.56l2.72-8.53H.1z"/>
    </g>
    <g transform="translate(130.18 45.6)">
      <mask id="M" fill="#fff">
        <use xlink:href="#L"/>
      </mask>
      <path fill="#3ED5FF" mask="url(#M)" d="M-2.56 7.37H7l2.72-8.53H.16z"/>
    </g>
    <g transform="translate(134.61 32.73)">
      <mask id="O" fill="#fff">
        <use xlink:href="#N"/>
      </mask>
      <path fill="#707070" mask="url(#O)" d="M-2.8 7.11h9.56l2.72-8.53H-.1z"/>
    </g>
    <g transform="translate(126.2 58.46)">
      <mask id="Q" fill="#fff">
        <use xlink:href="#P"/>
      </mask>
      <path fill="#707070" mask="url(#Q)" d="M-2.65 7.28H6.9l2.72-8.53H.07z"/>
    </g>
    <g transform="translate(136.83 26.08)">
      <mask id="S" fill="#fff">
        <use xlink:href="#R"/>
      </mask>
      <path fill="#707070" mask="url(#S)" d="M-2.93 7.2h9.57l2.72-8.52H-.21z"/>
    </g>
    <g transform="translate(128.41 51.81)">
      <mask id="U" fill="#fff">
        <use xlink:href="#T"/>
      </mask>
      <path fill="#3ED5FF" mask="url(#U)" d="M-2.77 7.37h9.56l2.72-8.52H-.05z"/>
    </g>
    <g transform="translate(132.4 39.39)">
      <mask id="W" fill="#fff">
        <use xlink:href="#V"/>
      </mask>
      <path fill="#3ED5FF" mask="url(#W)" d="M-2.68 7.02h9.56L9.6-1.51H.04z"/>
    </g>
    <g transform="translate(124.43 65.12)">
      <mask id="Y" fill="#fff">
        <use xlink:href="#X"/>
      </mask>
      <path fill="#707070" mask="url(#Y)" d="M-2.97 7.19h9.56l2.72-8.53H-.25z"/>
    </g>
    <g transform="translate(197.05 19.42)">
      <mask id="aa" fill="#fff">
        <use xlink:href="#Z"/>
      </mask>
      <path fill="#707070" mask="url(#aa)" d="M-2.78 7.3H6.8L9.5-1.23H-.06z"/>
    </g>
    <g transform="translate(188.63 45.6)">
      <mask id="ac" fill="#fff">
        <use xlink:href="#ab"/>
      </mask>
      <path fill="#3ED5FF" mask="url(#ac)" d="M-2.73 7.37h9.56l2.72-8.53H0z"/>
    </g>
    <g transform="translate(192.62 32.73)">
      <mask id="ae" fill="#fff">
        <use xlink:href="#ad"/>
      </mask>
      <path fill="#707070" mask="url(#ae)" d="M-2.63 7.11h9.57l2.72-8.53H.09z"/>
    </g>
    <g transform="translate(184.65 58.46)">
      <mask id="ag" fill="#fff">
        <use xlink:href="#af"/>
      </mask>
      <path fill="#707070" mask="url(#ag)" d="M-2.82 7.28h9.56l2.72-8.53H-.1z"/>
    </g>
    <g transform="translate(194.83 26.08)">
      <mask id="ai" fill="#fff">
        <use xlink:href="#ah"/>
      </mask>
      <path fill="#707070" mask="url(#ai)" d="M-2.65 7.2H6.9l2.72-8.52H.07z"/>
    </g>
    <g transform="translate(186.86 51.81)">
      <mask id="ak" fill="#fff">
        <use xlink:href="#aj"/>
      </mask>
      <path fill="#707070" mask="url(#ak)" d="M-2.94 7.37h9.56l2.72-8.52H-.22z"/>
    </g>
    <g transform="translate(190.85 39.39)">
      <mask id="am" fill="#fff">
        <use xlink:href="#al"/>
      </mask>
      <path fill="#3ED5FF" mask="url(#am)" d="M-2.85 7.02H6.7l2.72-8.53H-.13z"/>
    </g>
    <g transform="translate(182.44 65.12)">
      <mask id="ao" fill="#fff">
        <use xlink:href="#an"/>
      </mask>
      <path fill="#707070" mask="url(#ao)" d="M-2.7 7.19h9.56l2.72-8.53H.02z"/>
    </g>
    <g transform="translate(124.43 19.42)">
      <mask id="aq" fill="#fff">
        <use xlink:href="#ap"/>
      </mask>
      <path fill="#707070" mask="url(#aq)" d="M-2.81 7.3h9.56l2.72-8.53H-.09z"/>
    </g>
    <g transform="translate(116.01 45.6)">
      <mask id="as" fill="#fff">
        <use xlink:href="#ar"/>
      </mask>
      <path fill="#3ED5FF" mask="url(#as)" d="M-2.77 7.37H6.8l2.72-8.53H-.05z"/>
    </g>
    <g transform="translate(120 32.73)">
      <mask id="au" fill="#fff">
        <use xlink:href="#at"/>
      </mask>
      <path fill="#707070" mask="url(#au)" d="M-2.57 7.11H7l2.72-8.53H.15z"/>
    </g>
    <g transform="translate(112.03 58.46)">
      <mask id="aw" fill="#fff">
        <use xlink:href="#av"/>
      </mask>
      <path fill="#707070" mask="url(#aw)" d="M-2.86 7.28h9.57l2.72-8.53H-.14z"/>
    </g>
    <g transform="translate(122.21 26.08)">
      <mask id="ay" fill="#fff">
        <use xlink:href="#ax"/>
      </mask>
      <path fill="#707070" mask="url(#ay)" d="M-2.69 7.2h9.56L9.6-1.31H.03z"/>
    </g>
    <g transform="translate(114.24 51.81)">
      <mask id="aA" fill="#fff">
        <use xlink:href="#az"/>
      </mask>
      <path fill="#707070" mask="url(#aA)" d="M-2.98 7.37h9.56L9.3-1.15H-.26z"/>
    </g>
    <g transform="translate(118.23 39.39)">
      <mask id="aC" fill="#fff">
        <use xlink:href="#aB"/>
      </mask>
      <path fill="#3ED5FF" mask="url(#aC)" d="M-2.89 7.02h9.56L9.4-1.51H-.17z"/>
    </g>
    <g transform="translate(109.82 65.12)">
      <mask id="aE" fill="#fff">
        <use xlink:href="#aD"/>
      </mask>
      <path fill="#707070" mask="url(#aE)" d="M-2.74 7.19h9.57l2.72-8.53H-.02z"/>
    </g>
    <g transform="translate(182.88 19.42)">
      <mask id="aG" fill="#fff">
        <use xlink:href="#aF"/>
      </mask>
      <path fill="#707070" mask="url(#aG)" d="M-2.98 7.3h9.56L9.3-1.23H-.26z"/>
    </g>
    <g transform="translate(174.46 45.6)">
      <mask id="aI" fill="#fff">
        <use xlink:href="#aH"/>
      </mask>
      <path fill="#3ED5FF" mask="url(#aI)" d="M-2.94 7.37h9.57l2.72-8.53H-.22z"/>
    </g>
    <g transform="translate(178.45 32.73)">
      <mask id="aK" fill="#fff">
        <use xlink:href="#aJ"/>
      </mask>
      <path fill="#707070" mask="url(#aK)" d="M-2.78 7.11H6.8L9.5-1.42H-.06z"/>
    </g>
    <g transform="translate(170.04 58.46)">
      <mask id="aM" fill="#fff">
        <use xlink:href="#aL"/>
      </mask>
      <path fill="#707070" mask="url(#aM)" d="M-2.59 7.28h9.57L9.7-1.25H.13z"/>
    </g>
    <g transform="translate(180.66 26.08)">
      <mask id="aO" fill="#fff">
        <use xlink:href="#aN"/>
      </mask>
      <path fill="#707070" mask="url(#aO)" d="M-2.86 7.2H6.7l2.72-8.52H-.14z"/>
    </g>
    <g transform="translate(172.25 51.81)">
      <mask id="aQ" fill="#fff">
        <use xlink:href="#aP"/>
      </mask>
      <path fill="#3ED5FF" mask="url(#aQ)" d="M-2.7 7.37h9.56l2.72-8.52H0z"/>
    </g>
    <g transform="translate(176.24 39.39)">
      <mask id="aS" fill="#fff">
        <use xlink:href="#aR"/>
      </mask>
      <path fill="#707070" mask="url(#aS)" d="M-2.62 7.02h9.57l2.72-8.53H.1z"/>
    </g>
    <g transform="translate(168.27 65.12)">
      <mask id="aU" fill="#fff">
        <use xlink:href="#aT"/>
      </mask>
      <path fill="#707070" mask="url(#aU)" d="M-2.9 7.19h9.56l2.72-8.53H-.2z"/>
    </g>
    <g transform="translate(153.65 19.42)">
      <mask id="aW" fill="#fff">
        <use xlink:href="#aV"/>
      </mask>
      <path fill="#707070" mask="url(#aW)" d="M-2.9 7.3h9.57l2.72-8.53H-.18z"/>
    </g>
    <g transform="translate(145.24 45.6)">
      <mask id="aY" fill="#fff">
        <use xlink:href="#aX"/>
      </mask>
      <path fill="#707070" mask="url(#aY)" d="M-2.85 7.37H6.7l2.72-8.53H-.13z"/>
    </g>
    <g transform="translate(149.23 32.73)">
      <mask id="ba" fill="#fff">
        <use xlink:href="#aZ"/>
      </mask>
      <path fill="#707070" mask="url(#ba)" d="M-2.65 7.11H6.9l2.72-8.53H.07z"/>
    </g>
    <g transform="translate(141.25 58.46)">
      <mask id="bc" fill="#fff">
        <use xlink:href="#bb"/>
      </mask>
      <path fill="#707070" mask="url(#bc)" d="M-2.94 7.28h9.56l2.72-8.53H-.22z"/>
    </g>
    <g transform="translate(151.44 26.08)">
      <mask id="be" fill="#fff">
        <use xlink:href="#bd"/>
      </mask>
      <path fill="#707070" mask="url(#be)" d="M-2.78 7.2H6.8L9.5-1.31H-.06z"/>
    </g>
    <g transform="translate(143.03 51.81)">
      <mask id="bg" fill="#fff">
        <use xlink:href="#bf"/>
      </mask>
      <path fill="#707070" mask="url(#bg)" d="M-2.62 7.37h9.56l2.72-8.52H.1z"/>
    </g>
    <g transform="translate(147.45 39.39)">
      <mask id="bi" fill="#fff">
        <use xlink:href="#bh"/>
      </mask>
      <path fill="#707070" mask="url(#bi)" d="M-2.98 7.02H6.6l2.72-8.53H-.26z"/>
    </g>
    <g transform="translate(139.04 65.12)">
      <mask id="bk" fill="#fff">
        <use xlink:href="#bj"/>
      </mask>
      <path fill="#707070" mask="url(#bk)" d="M-2.82 7.19h9.56l2.72-8.53H-.1z"/>
    </g>
    <g transform="translate(211.66 19.42)">
      <mask id="bm" fill="#fff">
        <use xlink:href="#bl"/>
      </mask>
      <path fill="#707070" mask="url(#bm)" d="M-2.62 7.3h9.56l2.72-8.53H.1z"/>
    </g>
    <g transform="translate(203.25 45.6)">
      <mask id="bo" fill="#fff">
        <use xlink:href="#bn"/>
      </mask>
      <path fill="#3ED5FF" mask="url(#bo)" d="M-2.58 7.37h9.56L9.7-1.16H.14z"/>
    </g>
    <g transform="translate(207.68 32.73)">
      <mask id="bq" fill="#fff">
        <use xlink:href="#bp"/>
      </mask>
      <path fill="#707070" mask="url(#bq)" d="M-2.82 7.11h9.56l2.72-8.53H-.1z"/>
    </g>
    <g transform="translate(199.26 58.46)">
      <mask id="bs" fill="#fff">
        <use xlink:href="#br"/>
      </mask>
      <path fill="#707070" mask="url(#bs)" d="M-2.67 7.28h9.56l2.72-8.53H.05z"/>
    </g>
    <g transform="translate(209.89 26.08)">
      <mask id="bu" fill="#fff">
        <use xlink:href="#bt"/>
      </mask>
      <path fill="#707070" mask="url(#bu)" d="M-2.95 7.2h9.57l2.72-8.52H-.23z"/>
    </g>
    <g transform="translate(201.48 51.81)">
      <mask id="bw" fill="#fff">
        <use xlink:href="#bv"/>
      </mask>
      <path fill="#3ED5FF" mask="url(#bw)" d="M-2.8 7.37h9.57L9.5-1.15H-.07z"/>
    </g>
    <g transform="translate(205.46 39.39)">
      <mask id="by" fill="#fff">
        <use xlink:href="#bx"/>
      </mask>
      <path fill="#707070" mask="url(#by)" d="M-2.7 7.02h9.56l2.72-8.53H.02z"/>
    </g>
    <g transform="translate(197.05 65.12)">
      <mask id="bA" fill="#fff">
        <use xlink:href="#bz"/>
      </mask>
      <path fill="#707070" mask="url(#bA)" d="M-2.55 7.19h9.57l2.71-8.53H.17z"/>
    </g>
    <g transform="translate(116.9 19.42)">
      <mask id="bC" fill="#fff">
        <use xlink:href="#bB"/>
      </mask>
      <path fill="#707070" mask="url(#bC)" d="M-2.67 7.3H6.9l2.72-8.53H.05z"/>
    </g>
    <g transform="translate(108.49 45.6)">
      <mask id="bE" fill="#fff">
        <use xlink:href="#bD"/>
      </mask>
      <path fill="#3ED5FF" mask="url(#bE)" d="M-2.62 7.37h9.56l2.72-8.53H.1z"/>
    </g>
    <g transform="translate(112.92 32.73)">
      <mask id="bG" fill="#fff">
        <use xlink:href="#bF"/>
      </mask>
      <path fill="#707070" mask="url(#bG)" d="M-2.87 7.11H6.7l2.72-8.53H-.15z"/>
    </g>
    <g transform="translate(104.5 58.46)">
      <mask id="bI" fill="#fff">
        <use xlink:href="#bH"/>
      </mask>
      <path fill="#707070" mask="url(#bI)" d="M-2.71 7.28h9.56l2.72-8.53H.01z"/>
    </g>
    <g transform="translate(114.69 26.08)">
      <mask id="bK" fill="#fff">
        <use xlink:href="#bJ"/>
      </mask>
      <path fill="#707070" mask="url(#bK)" d="M-2.54 7.2h9.56l2.72-8.52H.17z"/>
    </g>
    <g transform="translate(106.72 51.81)">
      <mask id="bM" fill="#fff">
        <use xlink:href="#bL"/>
      </mask>
      <path fill="#3ED5FF" mask="url(#bM)" d="M-2.83 7.37h9.56l2.72-8.52H-.11z"/>
    </g>
    <g transform="translate(110.7 39.39)">
      <mask id="bO" fill="#fff">
        <use xlink:href="#bN"/>
      </mask>
      <path fill="#707070" mask="url(#bO)" d="M-2.74 7.02h9.56l2.72-8.53H-.02z"/>
    </g>
    <g transform="translate(102.29 65.12)">
      <mask id="bQ" fill="#fff">
        <use xlink:href="#bP"/>
      </mask>
      <path fill="#707070" mask="url(#bQ)" d="M-2.6 7.19h9.57L9.7-1.34H.13z"/>
    </g>
    <g transform="translate(175.35 19.42)">
      <mask id="bS" fill="#fff">
        <use xlink:href="#bR"/>
      </mask>
      <path fill="#707070" mask="url(#bS)" d="M-2.84 7.3h9.57l2.72-8.53H-.12z"/>
    </g>
    <g transform="translate(166.94 45.6)">
      <mask id="bU" fill="#fff">
        <use xlink:href="#bT"/>
      </mask>
      <path fill="#707070" mask="url(#bU)" d="M-2.8 7.37h9.57L9.5-1.16H-.07z"/>
    </g>
    <g transform="translate(170.92 32.73)">
      <mask id="bW" fill="#fff">
        <use xlink:href="#bV"/>
      </mask>
      <path fill="#707070" mask="url(#bW)" d="M-2.6 7.11h9.57L9.7-1.42H.13z"/>
    </g>
    <g transform="translate(162.95 58.46)">
      <mask id="bY" fill="#fff">
        <use xlink:href="#bX"/>
      </mask>
      <path fill="#707070" mask="url(#bY)" d="M-2.88 7.28h9.56L9.4-1.25H-.16z"/>
    </g>
    <g transform="translate(173.14 26.08)">
      <mask id="ca" fill="#fff">
        <use xlink:href="#bZ"/>
      </mask>
      <path fill="#707070" mask="url(#ca)" d="M-2.72 7.2h9.57l2.72-8.52H0z"/>
    </g>
    <g transform="translate(164.72 51.81)">
      <mask id="cc" fill="#fff">
        <use xlink:href="#cb"/>
      </mask>
      <path fill="#707070" mask="url(#cc)" d="M-2.56 7.37H7l2.72-8.52H.16z"/>
    </g>
    <g transform="translate(169.15 39.39)">
      <mask id="ce" fill="#fff">
        <use xlink:href="#cd"/>
      </mask>
      <path fill="#707070" mask="url(#ce)" d="M-2.91 7.02h9.56l2.72-8.53H-.2z"/>
    </g>
    <g transform="translate(160.74 65.12)">
      <mask id="cg" fill="#fff">
        <use xlink:href="#cf"/>
      </mask>
      <path fill="#707070" mask="url(#cg)" d="M-2.76 7.19H6.8l2.72-8.53H-.04z"/>
    </g>
    <g transform="translate(146.13 19.42)">
      <mask id="ci" fill="#fff">
        <use xlink:href="#ch"/>
      </mask>
      <path fill="#707070" mask="url(#ci)" d="M-2.75 7.3H6.8l2.72-8.53H-.03z"/>
    </g>
    <g transform="translate(137.71 45.6)">
      <mask id="ck" fill="#fff">
        <use xlink:href="#cj"/>
      </mask>
      <path fill="#3ED5FF" mask="url(#ck)" d="M-2.7 7.37h9.56l2.72-8.53H0z"/>
    </g>
    <g transform="translate(142.14 32.73)">
      <mask id="cm" fill="#fff">
        <use xlink:href="#cl"/>
      </mask>
      <path fill="#707070" mask="url(#cm)" d="M-2.95 7.11H6.6l2.72-8.53H-.23z"/>
    </g>
    <g transform="translate(133.73 58.46)">
      <mask id="co" fill="#fff">
        <use xlink:href="#cn"/>
      </mask>
      <path fill="#707070" mask="url(#co)" d="M-2.8 7.28h9.57l2.72-8.53H-.08z"/>
    </g>
    <g transform="translate(143.91 26.08)">
      <mask id="cq" fill="#fff">
        <use xlink:href="#cp"/>
      </mask>
      <path fill="#707070" mask="url(#cq)" d="M-2.63 7.2h9.56l2.72-8.52H.1z"/>
    </g>
    <g transform="translate(135.94 51.81)">
      <mask id="cs" fill="#fff">
        <use xlink:href="#cr"/>
      </mask>
      <path fill="#3ED5FF" mask="url(#cs)" d="M-2.92 7.37h9.57l2.72-8.52H-.2z"/>
    </g>
    <g transform="translate(139.93 39.39)">
      <mask id="cu" fill="#fff">
        <use xlink:href="#ct"/>
      </mask>
      <path fill="#707070" mask="url(#cu)" d="M-2.83 7.02h9.57l2.71-8.53H-.1z"/>
    </g>
    <g transform="translate(131.51 65.12)">
      <mask id="cw" fill="#fff">
        <use xlink:href="#cv"/>
      </mask>
      <path fill="#707070" mask="url(#cw)" d="M-2.68 7.19H6.9L9.6-1.34H.04z"/>
    </g>
    <g transform="translate(204.58 19.42)">
      <mask id="cy" fill="#fff">
        <use xlink:href="#cx"/>
      </mask>
      <path fill="#707070" mask="url(#cy)" d="M-2.92 7.3h9.56l2.72-8.53H-.2z"/>
    </g>
    <g transform="translate(196.16 45.6)">
      <mask id="cA" fill="#fff">
        <use xlink:href="#cz"/>
      </mask>
      <path fill="#3ED5FF" mask="url(#cA)" d="M-2.88 7.37H6.7L9.4-1.16H-.16z"/>
    </g>
    <g transform="translate(200.15 32.73)">
      <mask id="cC" fill="#fff">
        <use xlink:href="#cB"/>
      </mask>
      <path fill="#707070" mask="url(#cC)" d="M-2.82 7.11h9.57l2.72-8.53H-.1z"/>
    </g>
    <g transform="translate(192.18 58.46)">
      <mask id="cE" fill="#fff">
        <use xlink:href="#cD"/>
      </mask>
      <path fill="#707070" mask="url(#cE)" d="M-2.97 7.28H6.6l2.72-8.53H-.25z"/>
    </g>
    <g transform="translate(202.36 26.08)">
      <mask id="cG" fill="#fff">
        <use xlink:href="#cF"/>
      </mask>
      <path fill="#707070" mask="url(#cG)" d="M-2.8 7.2h9.56l2.72-8.52H-.08z"/>
    </g>
    <g transform="translate(193.95 51.81)">
      <mask id="cI" fill="#fff">
        <use xlink:href="#cH"/>
      </mask>
      <path fill="#707070" mask="url(#cI)" d="M-2.65 7.37h9.57l2.72-8.52H.07z"/>
    </g>
    <g transform="translate(197.93 39.39)">
      <mask id="cK" fill="#fff">
        <use xlink:href="#cJ"/>
      </mask>
      <path fill="#3ED5FF" mask="url(#cK)" d="M-2.56 7.02h9.57l2.72-8.53H.16z"/>
    </g>
    <g transform="translate(189.96 65.12)">
      <mask id="cM" fill="#fff">
        <use xlink:href="#cL"/>
      </mask>
      <path fill="#707070" mask="url(#cM)" d="M-2.85 7.19h9.57l2.72-8.53H-.13z"/>
    </g>
    <g transform="translate(131.51 19.42)">
      <mask id="cO" fill="#fff">
        <use xlink:href="#cN"/>
      </mask>
      <path fill="#707070" mask="url(#cO)" d="M-2.9 7.3h9.56l2.72-8.53H-.18z"/>
    </g>
    <g transform="translate(123.1 45.6)">
      <mask id="cQ" fill="#fff">
        <use xlink:href="#cP"/>
      </mask>
      <path fill="#3ED5FF" mask="url(#cQ)" d="M-2.86 7.37H6.7l2.72-8.53H-.14z"/>
    </g>
    <g transform="translate(127.08 32.73)">
      <mask id="cS" fill="#fff">
        <use xlink:href="#cR"/>
      </mask>
      <path fill="#707070" mask="url(#cS)" d="M-2.66 7.11H6.9l2.72-8.53H.06z"/>
    </g>
    <g transform="translate(119.11 58.46)">
      <mask id="cU" fill="#fff">
        <use xlink:href="#cT"/>
      </mask>
      <path fill="#707070" mask="url(#cU)" d="M-2.95 7.28h9.57l2.71-8.53H-.23z"/>
    </g>
    <g transform="translate(129.3 26.08)">
      <mask id="cW" fill="#fff">
        <use xlink:href="#cV"/>
      </mask>
      <path fill="#707070" mask="url(#cW)" d="M-2.78 7.2h9.56L9.5-1.31H-.06z"/>
    </g>
    <g transform="translate(120.89 51.81)">
      <mask id="cY" fill="#fff">
        <use xlink:href="#cX"/>
      </mask>
      <path fill="#707070" mask="url(#cY)" d="M-2.63 7.37h9.57l2.72-8.52H.09z"/>
    </g>
    <g transform="translate(125.31 39.39)">
      <mask id="da" fill="#fff">
        <use xlink:href="#cZ"/>
      </mask>
      <path fill="#3ED5FF" mask="url(#da)" d="M-2.98 7.02h9.56L9.3-1.51H-.26z"/>
    </g>
    <g transform="translate(116.9 65.12)">
      <mask id="dc" fill="#fff">
        <use xlink:href="#db"/>
      </mask>
      <path fill="#707070" mask="url(#dc)" d="M-2.83 7.19h9.57l2.72-8.53H-.11z"/>
    </g>
    <g transform="translate(189.52 19.42)">
      <mask id="de" fill="#fff">
        <use xlink:href="#dd"/>
      </mask>
      <path fill="#707070" mask="url(#de)" d="M-2.63 7.3h9.56l2.72-8.53H.1z"/>
    </g>
    <g transform="translate(181.1 45.6)">
      <mask id="dg" fill="#fff">
        <use xlink:href="#df"/>
      </mask>
      <path fill="#3ED5FF" mask="url(#dg)" d="M-2.59 7.37h9.57L9.7-1.16H.13z"/>
    </g>
    <g transform="translate(185.54 32.73)">
      <mask id="di" fill="#fff">
        <use xlink:href="#dh"/>
      </mask>
      <path fill="#707070" mask="url(#di)" d="M-2.88 7.11H6.7L9.4-1.42H-.16z"/>
    </g>
    <g transform="translate(177.12 58.46)">
      <mask id="dk" fill="#fff">
        <use xlink:href="#dj"/>
      </mask>
      <path fill="#707070" mask="url(#dk)" d="M-2.68 7.28H6.9L9.6-1.25H.04z"/>
    </g>
    <g transform="translate(187.75 26.08)">
      <mask id="dm" fill="#fff">
        <use xlink:href="#dl"/>
      </mask>
      <path fill="#707070" mask="url(#dm)" d="M-2.95 7.2H6.6l2.72-8.52H-.23z"/>
    </g>
    <g transform="translate(179.34 51.81)">
      <mask id="do" fill="#fff">
        <use xlink:href="#dn"/>
      </mask>
      <path fill="#3ED5FF" mask="url(#do)" d="M-2.8 7.37h9.57l2.72-8.52H-.08z"/>
    </g>
    <g transform="translate(183.32 39.39)">
      <mask id="dq" fill="#fff">
        <use xlink:href="#dp"/>
      </mask>
      <path fill="#3ED5FF" mask="url(#dq)" d="M-2.7 7.02h9.56l2.72-8.53H0z"/>
    </g>
    <g transform="translate(174.9 65.12)">
      <mask id="ds" fill="#fff">
        <use xlink:href="#dr"/>
      </mask>
      <path fill="#707070" mask="url(#ds)" d="M-2.56 7.19h9.57l2.72-8.53H.16z"/>
    </g>
    <g transform="translate(160.3 19.42)">
      <mask id="du" fill="#fff">
        <use xlink:href="#dt"/>
      </mask>
      <path fill="#707070" mask="url(#du)" d="M-2.55 7.3h9.57l2.72-8.53H.17z"/>
    </g>
    <g transform="translate(152.32 45.6)">
      <mask id="dw" fill="#fff">
        <use xlink:href="#dv"/>
      </mask>
      <path fill="#707070" mask="url(#dw)" d="M-2.95 7.37h9.57l2.72-8.53H-.23z"/>
    </g>
    <g transform="translate(156.31 32.73)">
      <mask id="dy" fill="#fff">
        <use xlink:href="#dx"/>
      </mask>
      <path fill="#707070" mask="url(#dy)" d="M-2.75 7.11h9.57l2.72-8.53H-.03z"/>
    </g>
    <g transform="translate(147.9 58.46)">
      <mask id="dA" fill="#fff">
        <use xlink:href="#dz"/>
      </mask>
      <path fill="#707070" mask="url(#dA)" d="M-2.6 7.28h9.57L9.7-1.25H.13z"/>
    </g>
    <g transform="translate(158.52 26.08)">
      <mask id="dC" fill="#fff">
        <use xlink:href="#dB"/>
      </mask>
      <path fill="#707070" mask="url(#dC)" d="M-2.87 7.2H6.7l2.72-8.52H-.15z"/>
    </g>
    <g transform="translate(150.11 51.81)">
      <mask id="dE" fill="#fff">
        <use xlink:href="#dD"/>
      </mask>
      <path fill="#707070" mask="url(#dE)" d="M-2.71 7.37h9.56l2.72-8.52H.01z"/>
    </g>
    <g transform="translate(154.1 39.39)">
      <mask id="dG" fill="#fff">
        <use xlink:href="#dF"/>
      </mask>
      <path fill="#707070" mask="url(#dG)" d="M-2.62 7.02h9.56l2.72-8.53H.1z"/>
    </g>
    <g transform="translate(146.13 65.12)">
      <mask id="dI" fill="#fff">
        <use xlink:href="#dH"/>
      </mask>
      <path fill="#707070" mask="url(#dI)" d="M-2.91 7.19h9.56l2.72-8.53H-.19z"/>
    </g>
    <g transform="translate(218.75 19.42)">
      <mask id="dK" fill="#fff">
        <use xlink:href="#dJ"/>
      </mask>
      <path fill="#707070" mask="url(#dK)" d="M-2.72 7.3h9.57l2.72-8.53H0z"/>
    </g>
    <g transform="translate(210.33 45.6)">
      <mask id="dM" fill="#fff">
        <use xlink:href="#dL"/>
      </mask>
      <path fill="#707070" mask="url(#dM)" d="M-2.67 7.37h9.56l2.72-8.53H.05z"/>
    </g>
    <g transform="translate(214.76 32.73)">
      <mask id="dO" fill="#fff">
        <use xlink:href="#dN"/>
      </mask>
      <path fill="#707070" mask="url(#dO)" d="M-2.92 7.11h9.57l2.72-8.53H-.2z"/>
    </g>
    <g transform="translate(206.35 58.46)">
      <mask id="dQ" fill="#fff">
        <use xlink:href="#dP"/>
      </mask>
      <path fill="#707070" mask="url(#dQ)" d="M-2.76 7.28H6.8l2.72-8.53H-.04z"/>
    </g>
    <g transform="translate(216.53 26.08)">
      <mask id="dS" fill="#fff">
        <use xlink:href="#dR"/>
      </mask>
      <path fill="#707070" mask="url(#dS)" d="M-2.6 7.2h9.57L9.7-1.31H.13z"/>
    </g>
    <g transform="translate(208.56 51.81)">
      <mask id="dU" fill="#fff">
        <use xlink:href="#dT"/>
      </mask>
      <path fill="#707070" mask="url(#dU)" d="M-2.88 7.37h9.56L9.4-1.15H-.16z"/>
    </g>
    <g transform="translate(212.55 39.39)">
      <mask id="dW" fill="#fff">
        <use xlink:href="#dV"/>
      </mask>
      <path fill="#707070" mask="url(#dW)" d="M-2.8 7.02h9.57L9.5-1.51H-.07z"/>
    </g>
    <g transform="translate(204.13 65.12)">
      <mask id="dY" fill="#fff">
        <use xlink:href="#dX"/>
      </mask>
      <path fill="#707070" mask="url(#dY)" d="M-2.64 7.19h9.56l2.72-8.53H.08z"/>
    </g>
    <g transform="translate(0 -14.65)">
      <g transform="translate(0 238.82)">
        <mask id="ea" fill="#fff">
          <use xlink:href="#dZ"/>
        </mask>
        <path d="M350.92 29.28H9.08A9.1 9.1 0 010 20.18V9.32A9.1 9.1 0 019.08.22h341.84a9.1 9.1 0 019.08 9.1v10.86a9.1 9.1 0 01-9.08 9.1" fill="#FFD892" mask="url(#ea)"/>
      </g>
      <path d="M31 297.6c-4.4 0-7.97-1.9-7.97-4.24v-25.04h313.72v25.04c0 2.35-3.57 4.24-7.98 4.24H31.01z" fill="#FFCB78"/>
      <mask id="ec" fill="#fff">
        <use xlink:href="#eb"/>
      </mask>
      <path fill="#FFC166" mask="url(#ec)" d="M23.03 272.87h313.72v-5.55H23.03z"/>
    </g>
  </g>
</svg>
