<?xml version="1.0" encoding="UTF-8"?>
<svg width="30px" height="30px" viewBox="0 0 30 30" version="1.1" xmlns="http://www.w3.org/2000/svg" xmlns:xlink="http://www.w3.org/1999/xlink">
    <!-- Generator: Sketch 52.5 (67469) - http://www.bohemiancoding.com/sketch -->
    <title>账号-未登陆</title>
    <desc>Created with Sketch.</desc>
    <defs>
        <circle id="path-1" cx="15" cy="15" r="15"></circle>
    </defs>
    <g id="Symbols" stroke="none" stroke-width="1" fill="none" fill-rule="evenodd">
        <g id="账号-未登陆">
            <g>
                <mask id="mask-2" fill="white">
                    <use xlink:href="#path-1"></use>
                </mask>
                <use id="Mask" fill="#C0C0C0" xlink:href="#path-1"></use>
                <path d="M16.6501796,34.9359787 C16.0459179,34.9359787 15.5329003,34.4962915 15.4231868,33.9107419 C15.3135551,34.4962915 14.8004966,34.9359787 14.196194,34.9359787 L11.768033,34.9359787 C11.4207501,34.9359787 11.0864612,34.7884691 10.8508122,34.5313775 C10.6151632,34.2742447 10.4958473,33.9266789 10.523388,33.5777953 L10.6160622,32.4040607 C10.5447586,32.4236627 10.4702679,32.4339579 10.394347,32.4339579 C10.2482667,32.4339579 10.1039435,32.3950832 9.97698641,32.3214932 C9.96734307,32.3158926 9.95745455,32.3099214 9.9476069,32.3035796 C9.91728758,32.2858718 9.88856186,32.2651579 9.86192008,32.2413966 C9.85816081,32.2380609 9.85456499,32.2347665 9.85101003,32.231472 C9.82829097,32.2119935 9.80683862,32.191609 9.78697987,32.1706068 C9.68073965,32.0642368 9.59550231,31.9500837 9.5318399,31.8290946 C8.31301944,31.3477324 7.74193741,30.3095237 7.92168769,28.8918342 C7.93598926,28.7788341 7.95490819,28.6626631 7.97950688,28.5367735 C7.99703652,28.4471229 8.01673182,28.3572252 8.03806159,28.2696337 C8.23468771,27.4608432 8.62270967,26.5692381 9.19134001,25.6195681 C9.19174862,25.6188268 9.19211638,25.6182091 9.19252499,25.6175914 C9.75535297,24.6778871 10.3898931,23.8545186 10.8547758,23.2957366 C8.72098188,22.7882658 7.19529064,21.8700167 6.31223013,20.5594795 C5.27087169,19.0140883 5.52527615,17.4799395 5.56033542,17.298044 C5.75675724,16.1163203 6.10706392,15.0443021 6.6037778,14.1027859 C5.62428386,13.5223428 5,12.4536604 5,11.2774137 C5,9.47023627 6.45884163,8 8.25197218,8 C9.6053091,8 10.7884574,8.83539334 11.2721364,10.0602333 C12.9629494,9.4225901 14.5196138,9.34784698 15.1538679,9.34784698 C15.2839304,9.34784698 15.3748067,9.35093554 15.4204082,9.35299458 C15.4659689,9.35093554 15.5567635,9.34788816 15.6867851,9.34788816 C16.3460057,9.34788816 17.9614291,9.42786124 19.6977211,10.1099385 C20.1684878,8.85964882 21.3582148,8.00679483 22.7357827,8.00679483 C24.5289132,8.00679483 25.9877957,9.4770311 25.9877957,11.2842497 C25.9877957,12.499824 25.3076132,13.608493 24.27267,14.171599 C24.7505875,15.0966017 25.08884,16.1451468 25.2804402,17.2980028 C25.3154586,17.4796924 25.5699039,19.013553 24.5289541,20.558903 C23.6466291,21.8688225 22.1224497,22.7867833 19.9907806,23.2946659 C20.455745,23.8534479 21.0906529,24.6771459 21.6540121,25.6177561 C21.6543799,25.6182915 21.6547476,25.6189092 21.6550745,25.6194857 C22.3746068,26.8211409 22.8017333,27.9221915 22.9247268,28.8918342 C23.1044771,30.3094002 22.5333951,31.3476089 21.3145337,31.8290946 C21.2509531,31.9500014 21.1657566,32.0641545 21.0595572,32.1704421 C21.0396576,32.1914855 21.0181235,32.2119935 20.9953228,32.2315132 C20.9921355,32.2345606 20.9883763,32.2379374 20.9844944,32.2413966 C20.9571171,32.2656932 20.9276968,32.2869837 20.8965602,32.3050209 C20.8872438,32.3109097 20.8779682,32.3165515 20.8685291,32.321905 C20.742471,32.3950009 20.5981887,32.4339579 20.4521084,32.4339579 C20.3761466,32.4339579 20.3016559,32.4236627 20.2303523,32.4040607 L20.3230265,33.5777953 C20.3506081,33.9266789 20.2312513,34.2742447 19.9956023,34.5313775 C19.7599533,34.7884691 19.4256644,34.9359787 19.0783815,34.9359787 L16.6501796,34.9359787 Z" id="Fill-1-Copy" fill="#FFFFFF" opacity="0.748139881" mask="url(#mask-2)"></path>
            </g>
        </g>
    </g>
</svg>