<?xml version="1.0" encoding="UTF-8"?>
<svg width="170px" height="50px" viewBox="0 0 170 50" version="1.1" xmlns="http://www.w3.org/2000/svg" xmlns:xlink="http://www.w3.org/1999/xlink">
    <title>logo/童心制物慧编程</title>
    <defs>
        <polygon id="path-1" points="0.029153605 0.281661442 149.946865 0.281661442 149.946865 15.2355799 0.029153605 15.2355799"></polygon>
    </defs>
    <g id="logo/童心制物慧编程" stroke="none" stroke-width="1" fill="none" fill-rule="evenodd">
        <g id="童心制物慧编程" fill-rule="nonzero">
            <rect id="Rectangle" x="0" y="0" width="170" height="50"></rect>
        </g>
        <g id="编组" transform="translate(10.000000, 17.000000)">
            <g>
                <mask id="mask-2" fill="white">
                    <use xlink:href="#path-1"></use>
                </mask>
                <g id="Clip-3"></g>
                <path d="M93.5736677,0.470689655 L93.5736677,15.2821317 L92.1630094,15.2821317 L92.1630094,0.470689655 L93.5736677,0.470689655 Z M70.6469436,0.486677116 L70.6469436,3.51865204 L71.9579154,3.51865204 L71.9579154,5.3031348 L70.6469436,5.3031348 L70.6469436,7.84561129 L72.0999216,7.43510972 L72.3524295,9.09310345 C71.7844044,9.25062696 71.2314263,9.44059561 70.6469436,9.61410658 L70.6469436,15.2355799 L68.9259404,15.2355799 L68.9259404,10.1351097 C68.0729624,10.3880878 67.2834639,10.6405956 66.5569749,10.830094 L66.0989812,9.04561129 C66.8889498,8.87210031 67.8519592,8.61959248 68.9259404,8.31912226 L68.9259404,5.3031348 L67.8679467,5.3031348 C67.6939655,6.07664577 67.5049373,6.75611285 67.2834639,7.32460815 C66.9989812,7.08761755 66.3044671,6.66112853 65.9569749,6.45564263 C66.4464734,5.20815047 66.7149687,3.23416928 66.8569749,1.37068966 L68.4204545,1.63965517 C68.3574451,2.27115987 68.2784483,2.88714734 68.1834639,3.51865204 L68.9259404,3.51865204 L68.9259404,0.486677116 L70.6469436,0.486677116 Z M49.5186207,0.565815047 L49.5186207,2.55531348 L52.3451097,2.55531348 L52.3451097,4.26079937 L49.5186207,4.26079937 L49.5186207,5.44528213 L52.9770846,5.44528213 L52.9770846,7.13478056 L49.5186207,7.13478056 L49.5186207,8.28775862 L52.5980878,8.28775862 L52.5980878,12.3142476 C52.5980878,13.0407367 52.4875862,13.4832132 52.0295925,13.7512382 C51.587116,14.0197335 50.987116,14.0517085 50.1976176,14.035721 C50.1501254,13.56221 49.9451097,12.8987304 49.7396238,12.4407367 C50.1821003,12.4722414 50.5610972,12.4722414 50.7186207,12.4567241 C50.8610972,12.4567241 50.9085893,12.4252194 50.9085893,12.2672257 L50.9085893,9.96126959 L49.5186207,9.96126959 L49.5186207,15.2042163 L47.7341379,15.2042163 L47.7341379,9.96126959 L46.4396238,9.96126959 L46.4396238,13.9567241 L44.7656426,13.9567241 L44.7656426,8.28775862 L47.7341379,8.28775862 L47.7341379,7.13478056 L44.1496552,7.13478056 L44.1496552,5.44528213 L45.3341379,5.44528213 C44.9231661,5.23979624 44.2761442,4.97130094 43.9126646,4.84528213 C44.5601567,3.85029781 45.0811599,2.25531348 45.3656426,0.75531348 L47.0866458,1.11832288 C46.9921317,1.60782132 46.8656426,2.08133229 46.7236364,2.55531348 L47.7341379,2.55531348 L47.7341379,0.565815047 L49.5186207,0.565815047 Z M58.3145455,0.739326019 L58.3145455,12.9937147 C58.3145455,14.0042163 58.1090596,14.5097022 57.5405643,14.8252194 C56.9565517,15.1252194 56.0405643,15.1886991 54.8245768,15.1886991 C54.7610972,14.6676959 54.5090596,13.8462226 54.272069,13.2937147 C55.0770846,13.3252194 55.898558,13.3252194 56.1670533,13.3252194 C56.4195611,13.309232 56.5140752,13.2462226 56.5140752,12.9777273 L56.5140752,0.739326019 L58.3145455,0.739326019 Z M73.7894201,0.470689655 L75.494906,0.786677116 C75.3369122,1.51316614 75.1318966,2.22366771 74.9108934,2.91865204 L80.8483542,2.91865204 C80.8483542,2.91865204 80.8323668,3.55015674 80.8168495,3.77115987 C80.5163793,10.8145768 80.2323668,13.388558 79.6323668,14.1775862 C79.2693574,14.7145768 78.9218652,14.888558 78.4003918,14.9990596 C77.9583856,15.0780564 77.294906,15.0780564 76.6163793,15.0465517 C76.5688871,14.5095611 76.3793887,13.7355799 76.094906,13.2145768 C76.6793887,13.2775862 77.2003918,13.2775862 77.5003918,13.2775862 C77.7373824,13.2775862 77.8953762,13.2145768 78.0848746,12.9775862 C78.4793887,12.4721003 78.7638715,10.3250784 79.0163793,4.65564263 L78.9373824,4.65564263 C78.1638715,8.63510972 76.5373824,12.7410658 73.994906,14.8410658 C73.6314263,14.4780564 72.9844044,14.0195925 72.462931,13.7515674 C74.9898903,11.9355799 76.5688871,8.35062696 77.3583856,4.65564263 L76.6163793,4.65564263 C75.921395,7.22962382 74.594906,10.0561129 72.9999216,11.5721003 C72.6524295,11.2090909 72.0524295,10.7826019 71.562931,10.5141066 C73.1264107,9.28260188 74.3579154,6.94514107 75.0528997,4.65564263 L74.2474138,4.65564263 C73.7894201,5.74514107 73.2369122,6.72413793 72.6209248,7.48213166 C72.3209248,7.18213166 71.5789185,6.66112853 71.1994514,6.42413793 C72.4474138,5.05062696 73.3159091,2.79216301 73.7894201,0.470689655 Z M12.7890282,6.06112853 L12.7890282,10.7826019 L8.1145768,10.7826019 L8.1145768,11.462069 L13.2625392,11.462069 L13.2625392,12.8040752 L8.1145768,12.8040752 L8.1145768,13.4830721 L14.4155172,13.4830721 L14.4155172,14.9360502 L0.029153605,14.9360502 L0.029153605,13.4830721 L6.26708464,13.4830721 L6.26708464,12.8040752 L1.18213166,12.8040752 L1.18213166,11.462069 L6.26708464,11.462069 L6.26708464,10.7826019 L1.70360502,10.7826019 L1.70360502,6.06112853 L12.7890282,6.06112853 Z M28.0587931,4.97139498 L28.0587931,12.2988245 C28.0587931,13.0408307 28.1852821,13.1673197 28.9432759,13.1673197 L31.2012696,13.1673197 C31.990768,13.1673197 32.1327743,12.6618339 32.2432759,10.1983542 C32.6857524,10.5303292 33.490768,10.8618339 34.0122414,10.9878527 C33.7912382,13.9883229 33.2852821,14.9202978 31.3432759,14.9202978 L28.7218025,14.9202978 C26.6692947,14.9202978 26.1007994,14.2883229 26.1007994,12.2988245 L26.1007994,4.97139498 L28.0587931,4.97139498 Z M140.390361,1.74310345 C140.759953,1.74310345 141.059013,2.04263323 141.059013,2.41175549 C141.059013,2.74774865 140.811856,3.02545014 140.489238,3.07316452 L140.390361,3.08040752 L139.480486,3.08040752 L139.480486,5.24153605 L140.742555,5.24153605 C141.111677,5.24153605 141.411207,5.54106583 141.411207,5.91018809 C141.411207,6.24618125 141.163662,6.52388274 140.841326,6.57159712 L140.742555,6.57884013 L139.480486,6.57884013 L139.480486,13.6730408 C139.480486,14.042163 139.181426,14.3416928 138.812304,14.3416928 C138.476311,14.3416928 138.198609,14.0941475 138.150895,13.7718123 L138.143652,13.6730408 L138.143652,6.57884013 L136.962931,6.57884013 C136.593809,6.57884013 136.294279,6.27978056 136.294279,5.91018809 C136.294279,5.5746224 136.541824,5.29657115 136.86416,5.24878965 L136.962931,5.24153605 L138.143652,5.24153605 L138.143652,3.08040752 L137.233777,3.08040752 C136.864185,3.08040752 136.564655,2.78134796 136.564655,2.41175549 C136.564655,2.0761898 136.8122,1.79813855 137.134889,1.75035705 L137.233777,1.74310345 L140.390361,1.74310345 Z M133.108307,7.23197492 L133.130408,7.23432602 L133.152038,7.23197492 C133.488031,7.23197492 133.765732,7.47952019 133.813447,7.80185544 L133.82069,7.90062696 L133.82069,13.654232 C133.82069,13.9902251 133.573533,14.2679266 133.250915,14.315641 L133.152038,14.322884 L132.558621,14.322884 C132.189498,14.322884 131.889969,14.0238245 131.889969,13.654232 C131.889969,13.3448746 132.100213,13.0842696 132.385986,13.0081618 L132.483856,12.9898119 L132.483856,11.468652 L131.604075,11.468652 L131.604075,13.5249216 C131.604075,13.8531348 131.337931,14.119279 131.009718,14.119279 C130.714326,14.119279 130.46921,13.9037022 130.423141,13.6213194 L130.415361,13.5249216 L130.415361,11.468652 L129.531348,11.468652 L129.531348,13.5249216 C129.531348,13.8531348 129.265204,14.119279 128.936991,14.119279 C128.641599,14.119279 128.396483,13.9037022 128.350413,13.6213194 L128.342633,13.5249216 L128.342633,11.468652 L127.423354,11.468652 L127.423354,13.654232 C127.423354,14.0238245 127.124295,14.322884 126.754702,14.322884 C126.419137,14.322884 126.141085,14.0757274 126.093304,13.7531095 L126.08605,13.654232 L126.08605,7.90062696 C126.08605,7.57241379 126.323041,7.30062696 126.635266,7.24420063 L126.694103,7.23509013 L126.694103,7.23509013 L126.754702,7.23197492 L133.108307,7.23197492 Z M106.84105,11.1959718 C107.176616,11.1968267 107.45389,11.4448383 107.500823,11.7676046 L107.507821,11.8665047 L107.506411,12.7429937 C107.50594,12.8210502 107.545439,12.8718339 107.56895,12.895815 C107.586583,12.9134483 107.619822,12.9400745 107.668071,12.9524838 L107.721301,12.9592947 L114.044342,12.972931 C114.141129,12.9839028 114.226486,12.9099739 114.252523,12.8161803 L114.260643,12.7580408 L114.262994,11.8810815 C114.263421,11.5459433 114.511005,11.2690967 114.832991,11.2215307 L114.931646,11.2143103 C115.268494,11.2147378 115.545884,11.4630992 115.59283,11.7855793 L115.59983,11.884373 L115.597947,12.7613323 C115.59617,13.5686991 114.974905,14.2326228 114.185729,14.3039002 L114.044812,14.3102351 L114.04152,14.3102351 L107.718009,14.2965987 C106.90931,14.2948224 106.244474,13.6714594 106.17468,12.8812589 L106.168633,12.7401724 L106.170517,11.8632132 C106.171372,11.528075 106.418607,11.2508398 106.740878,11.2032031 L106.839639,11.1959718 L106.84105,11.1959718 Z M128.965204,1.20141066 C129.341497,1.20141066 129.652201,1.48115204 129.701372,1.84360414 L129.70815,1.94435737 L129.70815,2.09905956 L132.83558,2.09905956 C132.851097,2.09905956 132.866144,2.10282132 132.881191,2.10376176 C132.896238,2.10282132 132.911285,2.09905956 132.926803,2.09905956 C133.302665,2.09905956 133.613728,2.37840583 133.662962,2.74115427 L133.669749,2.84200627 L133.669749,5.82931034 C133.669749,6.23981191 133.336834,6.57272727 132.926803,6.57272727 C132.911755,6.57272727 132.897649,6.56896552 132.883072,6.56802508 L132.861383,6.57072884 L132.861383,6.57072884 L132.839342,6.57272727 L125.609718,6.57272727 L125.609718,13.5568966 C125.609718,13.9331897 125.329976,14.2438937 124.967524,14.2930645 L124.866771,14.2998433 L124.426646,14.2998433 C124.016144,14.2998433 123.683699,13.9673981 123.683699,13.5568966 C123.683699,13.2923393 123.821944,13.0601832 124.03039,12.9284703 L124.123824,12.8783699 L124.123824,2.84200627 C124.123824,2.4315047 124.45627,2.09905956 124.866771,2.09905956 L124.908621,2.10329154 L124.908621,2.10329154 L124.95094,2.09905956 L128.222257,2.09905956 L128.222257,1.94435737 C128.222257,1.53432602 128.554702,1.20141066 128.965204,1.20141066 Z M116.818542,11.200768 C117.154108,11.201623 117.431382,11.4496346 117.478317,11.7720475 L117.485316,11.8708307 L117.481552,13.5852508 C117.480697,13.920389 117.233462,14.1976242 116.911544,14.2452608 L116.8129,14.2524922 C116.476052,14.2516372 116.198272,14.0036256 116.151256,13.6808594 L116.144245,13.5819592 L116.148009,11.8675392 C116.148864,11.532401 116.396099,11.2555544 116.71837,11.2079884 L116.817132,11.200768 L116.818542,11.200768 Z M104.893589,11.1732132 C105.229155,11.1740681 105.506429,11.4220797 105.553364,11.7444927 L105.560363,11.8432759 L105.556599,13.5576959 C105.556171,13.8928341 105.308587,14.1700693 104.986602,14.217706 L104.887947,14.2249373 C104.551099,14.2240824 104.273319,13.9760708 104.226303,13.6533045 L104.219292,13.5544044 L104.223527,11.8399843 C104.223954,11.5048461 104.471538,11.2279996 104.793524,11.1804336 L104.892179,11.1732132 L104.893589,11.1732132 Z M122.469639,12.7333542 C122.839232,12.7333542 123.138292,13.032884 123.138292,13.4020063 C123.138292,13.7379994 122.891135,14.0157009 122.568517,14.0634153 L122.469639,14.0706583 L121.066034,14.0706583 C120.696442,14.0706583 120.397382,13.7715987 120.397382,13.4020063 C120.397382,13.0664406 120.644539,12.7883893 120.967157,12.7406078 L121.066034,12.7333542 L122.469639,12.7333542 Z M140.566693,7.30678683 C140.862085,7.30678683 141.107201,7.52236364 141.15327,7.80474639 L141.16105,7.9011442 L141.16105,13.4205799 C141.16105,13.7492633 140.894906,14.0154075 140.566693,14.0154075 C140.271301,14.0154075 140.026185,13.7998307 139.980116,13.5171052 L139.972335,13.4205799 L139.972335,7.9011442 C139.972335,7.57293103 140.23848,7.30678683 140.566693,7.30678683 Z M137.083636,7.30678683 C137.379028,7.30678683 137.624144,7.52236364 137.670213,7.80474639 L137.677994,7.9011442 L137.677994,13.4205799 C137.677994,13.716395 137.462417,13.9615533 137.180034,14.0076268 L137.083636,14.0154075 L136.668903,14.0154075 C136.340219,14.0154075 136.074545,13.7492633 136.074545,13.4205799 C136.074545,13.1885266 136.20811,12.9870744 136.402471,12.8893054 L136.489279,12.8539655 L136.489279,7.9011442 C136.489279,7.57293103 136.755423,7.30678683 137.083636,7.30678683 Z M148.952492,7.33278997 C149.321614,7.33278997 149.621144,7.63231975 149.621144,8.00144201 C149.621144,8.33700769 149.373599,8.61505894 149.051264,8.66284044 L148.952492,8.67009404 L146.507351,8.67009404 L146.507351,9.99094044 L148.537288,9.99094044 C148.906411,9.99094044 149.20594,10.2904702 149.20594,10.6600627 C149.20594,10.9956284 148.958395,11.273291 148.63606,11.3210019 L148.537288,11.3282445 L146.507351,11.3282445 L146.507351,12.6495611 L149.278354,12.6495611 C149.647476,12.6495611 149.947006,12.9490909 149.947006,13.3182132 C149.947006,13.6542063 149.699461,13.9319078 149.377126,13.9796222 L149.278354,13.9868652 L142.249984,13.9868652 C141.880862,13.9868652 141.581332,13.6878056 141.581332,13.3182132 C141.581332,12.9826475 141.828878,12.7045962 142.151213,12.6568147 L142.249984,12.6495611 L145.021458,12.6495611 L145.021458,11.3282445 L142.99105,11.3282445 C142.621928,11.3282445 142.322868,11.029185 142.322868,10.6600627 C142.322868,10.3240695 142.570025,10.0459794 142.89229,9.9981944 L142.99105,9.99094044 L145.021458,9.99094044 L145.021458,8.67009404 L142.575846,8.67009404 C142.206724,8.67009404 141.907194,8.37056426 141.907194,8.00144201 C141.907194,7.66587632 142.15474,7.38782507 142.477075,7.34004357 L142.575846,7.33278997 L148.952492,7.33278997 Z M23.2583229,5.90336991 L25.0898276,6.25039185 C24.8688245,8.28785266 24.4743103,11.0198276 23.9373197,12.8043103 L22.0423354,12.0458464 C22.5948433,10.3723354 23.052837,8.00336991 23.2583229,5.90336991 Z M109.272743,11.3153605 L112.498448,11.322884 C112.810204,11.3238245 113.062712,11.5768025 113.062242,11.888558 C113.061395,12.1691379 112.856779,12.4009655 112.588595,12.4445252 L112.497038,12.4518809 L112.496097,12.4518809 L109.270392,12.4448276 C108.958636,12.4438871 108.706129,12.1904389 108.706598,11.8786834 C108.707445,11.5985266 108.912061,11.3663605 109.179903,11.3227288 L109.271332,11.3153605 L109.272743,11.3153605 Z M123.02163,1.51053292 C123.376803,1.63423981 123.57867,2.00054728 123.5059,2.35918294 L123.479154,2.45661442 L121.776489,7.34360502 L122.306426,7.34360502 C122.676019,7.34360502 122.975549,7.6431348 122.975549,8.01272727 C122.975549,8.03106583 122.971317,8.04893417 122.969906,8.06680251 C122.973981,8.13263323 122.969697,8.19950888 122.955799,8.26603622 L122.927586,8.36539185 L122.070376,10.7404702 L122.469592,10.7404702 C122.839185,10.7404702 123.138245,11.04 123.138245,11.4095925 C123.138245,11.7451582 122.891088,12.0232094 122.56847,12.0709909 L122.469592,12.0782445 L121.065987,12.0782445 C121.039185,12.0782445 121.013323,12.0730721 120.987461,12.0702508 C120.970063,12.0683699 120.952665,12.0678997 120.935266,12.0650784 C120.928683,12.0636677 120.923041,12.0613166 120.916458,12.059906 C120.882132,12.0528527 120.847806,12.0448589 120.81348,12.0326332 C120.460031,11.905047 120.262653,11.5364407 120.33942,11.1785354 L120.367241,11.0813793 L121.233856,8.68137931 L120.823824,8.68137931 L120.805956,8.67949843 L120.805956,8.67949843 L120.794201,8.68043887 L120.782445,8.68137931 C120.701567,8.68137931 120.619279,8.66774295 120.538401,8.63952978 C120.183229,8.51625392 119.981361,8.14998237 120.054131,7.79098752 L120.080878,7.69344828 L122.075549,1.96805643 C122.210502,1.58012539 122.634169,1.37557994 123.02163,1.51053292 Z M34.8017398,5.39788401 C35.6857524,7.27688088 36.5067555,9.64584639 36.8387304,11.2723354 L34.9282288,12.0618339 C34.6912382,10.4513323 33.8697649,7.95587774 33.0487618,6.10838558 L34.8017398,5.39788401 Z M105.480188,6.36253918 L113.965768,6.3822884 L114.363574,6.38322884 L114.364514,6.38322884 L114.660752,6.38369906 C115.249937,6.38510972 115.803856,6.61551724 116.21953,7.03354232 C116.635204,7.45109718 116.86373,8.00548589 116.861861,8.59514107 C116.860909,9.18432602 116.630031,9.73777429 116.212476,10.1534483 C115.842153,10.5221003 115.364456,10.7432544 114.850391,10.7878485 L114.65605,10.7962382 L114.650878,10.7962382 L113.958715,10.7948276 L106.729561,10.7783699 L106.722508,10.7778997 L105.470313,10.7750784 C105.158088,10.7741379 104.90605,10.5211599 104.906988,10.2089342 C104.907414,9.92835423 105.111987,9.70223981 105.380853,9.65468088 L105.472665,9.64561129 L113.961536,9.6653605 L114.35605,9.66630094 C114.951348,9.66630094 115.434263,9.18479624 115.435674,8.59184953 C115.436552,8.03755486 115.017166,7.57910972 114.478774,7.51891801 L114.361693,7.51222571 L113.963417,7.51128527 L106.737085,7.49529781 L106.729561,7.49482759 L105.477837,7.49200627 C105.166082,7.49106583 104.913574,7.23761755 104.914044,6.92586207 C104.91489,6.64570533 105.119887,6.41353918 105.387805,6.36990752 L105.479248,6.36253918 L105.480188,6.36253918 Z M55.4405643,1.76581505 L55.4405643,10.6562539 L53.6875862,10.6562539 L53.6875862,1.76581505 L55.4405643,1.76581505 Z M132.483856,8.42068966 L131.604075,8.42068966 L131.604075,10.2799373 L132.483856,10.2799373 L132.483856,8.42068966 Z M130.415361,8.42068966 L129.531818,8.42068966 L129.531818,10.2799373 L130.415361,10.2799373 L130.415361,8.42068966 Z M128.342633,8.42068966 L127.423354,8.42068966 L127.423354,10.2799373 L128.342633,10.2799373 L128.342633,8.42068966 Z M6.26708464,8.95109718 L3.47210031,8.95109718 L3.47210031,9.67758621 L6.26708464,9.67758621 L6.26708464,8.95109718 Z M10.9415361,8.95109718 L8.1145768,8.95109718 L8.1145768,9.67758621 L10.9415361,9.67758621 L10.9415361,8.95109718 Z M106.042524,8.00308777 L114.245031,8.02189655 C114.556787,8.02283699 114.809295,8.27628527 114.808825,8.58804075 C114.807978,8.86819749 114.603362,9.10036364 114.335178,9.1439953 L114.243621,9.15136364 L114.24268,9.15136364 L106.040172,9.13255486 C105.728417,9.13161442 105.475909,8.87816614 105.476379,8.56641066 C105.477226,8.28625392 105.681842,8.05408777 105.950026,8.01045611 L106.041583,8.00308777 L106.042524,8.00308777 Z M6.26708464,7.18260188 L3.47210031,7.18260188 L3.47210031,7.89310345 L6.26708464,7.89310345 L6.26708464,7.18260188 Z M10.9415361,7.18213166 L8.1145768,7.18213166 L8.1145768,7.89263323 L10.9415361,7.89263323 L10.9415361,7.18213166 Z M148.487774,1.68103448 C148.495768,1.68103448 148.502821,1.68291536 148.510815,1.68338558 C148.518809,1.68291536 148.525862,1.68103448 148.533856,1.68103448 C148.910149,1.68103448 149.220853,1.96038075 149.270024,2.32312919 L149.276803,2.42398119 L149.276803,5.80485893 C149.276803,6.2153605 148.944357,6.54780564 148.533856,6.54780564 C148.525862,6.54780564 148.518809,6.54592476 148.510815,6.54545455 L148.499295,6.54680643 L148.499295,6.54680643 L148.487774,6.54780564 L142.994671,6.54780564 C142.625549,6.54780564 142.326019,6.24874608 142.326019,5.87915361 C142.326019,5.86363636 142.32931,5.84858934 142.330721,5.83354232 L142.329134,5.81920063 L142.329134,5.81920063 L142.3279,5.80485893 L142.3279,2.42398119 C142.3279,2.01347962 142.660345,1.68103448 143.070846,1.68103448 L143.088715,1.68291536 L143.088715,1.68291536 L143.107053,1.68103448 L148.487774,1.68103448 Z M114.244467,1.19125392 C114.563558,1.19167712 114.834277,1.39396552 114.938706,1.67711426 L114.967194,1.77432602 L116.875815,1.77855799 C117.187571,1.77902821 117.439608,2.03247649 117.439138,2.34423197 C117.438715,2.62481191 117.23376,2.8566395 116.965847,2.90019922 L116.874404,2.90755486 L116.872994,2.90755486 L114.983182,2.90332288 L114.982241,3.27573668 L116.648229,3.27949843 C116.959984,3.28043887 117.212022,3.53341693 117.211552,3.84564263 C117.210705,4.12579937 117.006089,4.35796552 116.738248,4.40159718 L116.646818,4.40896552 L116.645408,4.40896552 L114.97989,4.40473354 L114.97895,4.77714734 L117.144781,4.78231975 C117.456536,4.78278997 117.709044,5.03670846 117.708106,5.34846395 C117.707257,5.62862069 117.502641,5.86040596 117.234799,5.90396144 L117.14337,5.91131661 L117.142429,5.91131661 L111.475815,5.89862069 C111.16406,5.89768025 110.912022,5.64470219 110.912492,5.33247649 C110.913338,5.05231975 111.117955,4.82015361 111.385796,4.77652194 L111.477226,4.76915361 L111.478636,4.76915361 L113.493056,4.7738558 L113.493997,4.40144201 L111.921583,4.39815047 C111.609828,4.39721003 111.35732,4.14376176 111.35826,3.83200627 C111.359107,3.55142633 111.563723,3.31959875 111.831564,3.27603903 L111.922994,3.26868339 L111.923934,3.26868339 L113.496348,3.27244514 L113.497288,2.90003135 L111.602304,2.89532915 C111.290549,2.89485893 111.038511,2.64141066 111.039451,2.32965517 C111.039875,2.04907524 111.242544,1.80924922 111.512743,1.7712884 L111.605125,1.76633229 L113.518918,1.77056426 C113.585784,1.47221003 113.831661,1.24165204 114.138289,1.19852398 L114.242586,1.19125392 L114.244467,1.19125392 Z M107.340517,1.17545455 C107.659608,1.17630094 107.930328,1.37825078 108.034756,1.66132759 L108.063245,1.75852665 L109.823276,1.7622884 C110.135031,1.76275862 110.387069,2.0162069 110.386599,2.32796238 C110.385752,2.60854232 110.181136,2.84075078 109.913295,2.88438668 L109.821865,2.89175549 L109.820455,2.89175549 L108.079702,2.88752351 L108.078762,3.25946708 L109.668574,3.26322884 C109.980329,3.26416928 110.232367,3.51761755 110.231897,3.82937304 C110.23105,4.10952978 110.026434,4.34169592 109.758592,4.38532759 L109.667163,4.39269592 L109.665752,4.39269592 L108.07594,4.38893417 L108.075,4.76134796 L110.032524,4.76557994 C110.344749,4.76652038 110.596787,5.01996865 110.595849,5.33172414 C110.595423,5.61230408 110.390469,5.84413166 110.122898,5.88769138 L110.031583,5.89504702 L110.030172,5.89504702 L104.62406,5.88282132 C104.311834,5.88188088 104.059796,5.6284326 104.060734,5.31667712 C104.06116,5.03652038 104.266114,4.80435423 104.533685,4.76072257 L104.625,4.75335423 L104.626411,4.75335423 L106.589107,4.75805643 L106.590047,4.38517241 L105.198197,4.3823511 C104.886442,4.38141066 104.634404,4.1284326 104.634875,3.8162069 C104.635721,3.53605016 104.840337,3.30388401 105.108179,3.26025235 L105.199608,3.25288401 L105.201019,3.25288401 L106.592868,3.25617555 L106.593339,2.88423197 L104.847414,2.88 C104.535658,2.87952978 104.28315,2.6260815 104.283621,2.31432602 C104.284467,2.03374608 104.488702,1.80648903 104.757839,1.75938715 L104.849765,1.75053292 L106.614969,1.75476489 C106.682257,1.45641066 106.928177,1.22585266 107.234466,1.18272461 L107.338636,1.17545455 L107.340517,1.17545455 Z M7.7830721,0.281661442 C7.98808777,0.628683386 8.20909091,1.05517241 8.36708464,1.41865204 L13.4045455,1.41865204 L13.4045455,2.88714734 L9.97805643,2.88714734 L11.3520376,3.12413793 C11.1780564,3.43965517 11.0205329,3.73965517 10.8625392,4.00815047 L14.3210031,4.00815047 L14.3210031,5.47664577 L0.10815047,5.47664577 L0.10815047,4.00815047 L3.63009404,4.00815047 C3.51912226,3.72366771 3.39310345,3.43965517 3.25109718,3.18714734 L4.48260188,2.88714734 L1.08714734,2.88714734 L1.08714734,1.41865204 L6.36159875,1.41865204 C6.25109718,1.15015674 6.12460815,0.881661442 6.0145768,0.660188088 L7.7830721,0.281661442 Z M27.9163166,0.723902821 C29.33779,1.62390282 31.3432759,3.01340125 32.290768,3.99239812 L30.9012696,5.46089342 C30.0482915,4.49741379 28.1062853,2.99741379 26.6373197,2.00242947 L27.9163166,0.723902821 Z M47.7341379,4.26079937 L46.1391536,4.26079937 C45.9656426,4.70280564 45.7761442,5.09778997 45.6026332,5.44528213 L47.7341379,5.44528213 L47.7341379,4.26079937 Z M132.183856,3.43636364 L125.609718,3.43636364 L125.609718,5.23495298 L132.183856,5.23495298 L132.183856,3.43636364 Z M147.790909,3.01833856 L143.813793,3.01833856 L143.813793,5.21050157 L147.790909,5.21050157 L147.790909,3.01833856 Z M9.29905956,2.88714734 L5.14561129,2.88714734 C5.35109718,3.23416928 5.55658307,3.64467085 5.6515674,4.00815047 L8.84106583,4.00815047 C8.99905956,3.62915361 9.18855799,3.23416928 9.29905956,2.88714734 Z" id="形状结合" fill="#FFFFFF" mask="url(#mask-2)"></path>
            </g>
        </g>
    </g>
</svg>