<?xml version="1.0" encoding="UTF-8"?>
<svg width="540px" height="219px" viewBox="0 0 540 219" version="1.1" xmlns="http://www.w3.org/2000/svg" xmlns:xlink="http://www.w3.org/1999/xlink">
    <title>插图</title>
    <defs>
        <path d="M79.2584991,72.2971304 C79.2584991,87.5981175 66.8546668,100.002048 51.5533607,100.002048 C36.2524953,100.002048 23.848663,87.5981175 23.848663,72.2971304 C23.848663,56.9961433 36.2524953,44.5922124 51.5533607,44.5922124 C66.8546668,44.5922124 79.2584991,56.9961433 79.2584991,72.2971304" id="path-1"></path>
        <polygon id="path-3" points="0.510659837 0.183140388 15.0688005 0.183140388 15.0688005 15.7283459 0.510659837 15.7283459"></polygon>
        <polygon id="path-5" points="0.0202991255 0.313465356 14.5779339 0.313465356 14.5779339 15.8590827 0.0202991255 15.8590827"></polygon>
    </defs>
    <g id="插图" stroke="none" stroke-width="1" fill="none" fill-rule="evenodd">
        <g>
            <rect id="矩形" x="0" y="27" width="540" height="190" rx="2"></rect>
            <g id="编组" transform="translate(-0.000000, 27.000000)">
                <path d="M131.248,130.918131 C149.105987,130.319422 164.231357,139.548719 170.814,152.63028 C173.035822,152.503335 174.973365,152.318532 177.318,152.087477 C188.887999,152.318532 199.58675,158.513348 203.334,167.828785 C206.26558,166.617029 208.640827,166.319642 212.006,166.743178 C215.005559,166.319642 218.100879,167.115756 220.136,168.371589 C224.479003,160.771766 233.094767,155.357751 243.442,155.344299 C243.943909,155.357751 244.746196,155.394603 245.068,155.344299 C247.570637,151.879558 250.544823,148.79319 254.282,146.116636 L286.802,146.116636 C291.155297,149.057659 294.849594,153.246881 296.558,158.601121 C299.15991,157.208488 301.72443,156.67359 304.146,156.97271 C313.344206,156.67359 320.741929,162.433907 322.574,170 C325.191641,169.189232 328.367921,168.748632 331.788,168.371589 C334.71013,168.748632 336.857138,168.054371 339.918,168.914393 C346.200926,154.64127 362.603315,145.783236 381.11,145.573832 C391.164869,145.783236 400.664487,148.994251 407.668,154.258692 C411.492933,145.286274 449.470863,120.227937 460.242,115.176822 C459.712506,112.371925 460.519663,104.401834 460.242,101.063925 C460.519663,79.7591233 511.949015,68.3210903 536.664,68.4957009 C537.731782,68.3210903 538.377749,68.4175198 540,68.5 L540,12 C540,5.372583 534.627417,-1.21743675e-15 528,0 L12,0 C5.372583,1.21743675e-15 6.86660384e-11,5.372583 6.866685e-11,12 L6.866685e-11,82.5 L6.866685e-11,82.5 C29.5323357,81.9919465 119.392134,130.319422 131.248,130.918131 Z" id="Fill-1" fill="#1F79F3"></path>
                <path d="M540,30.5 L540,81.5 C505.28109,72.4147159 461.98183,100.278822 461.98183,131.949104 C452.156692,131.949104 447.856818,138.278242 446.529492,144.412835 C428.321543,139.848356 412.979714,149.411338 409.447213,160.413261 C401.983377,155.511937 392.506473,152.572928 382.185477,152.572928 C364.637556,152.572928 349.520546,161.051681 342.622822,173.265371 C339.169403,171.80651 335.373004,171 331.388582,171 C323.942422,171 317.15293,173.81672 312.023778,178.444636 C299.368039,166.562008 280.312426,159 259,159 C242.104198,159 226.626759,163.752575 214.631294,171.642726 C213.929546,171.574406 213.213599,171.539192 212.487482,171.539192 C209.431378,171.539192 206.554688,172.162212 204.033782,173.256962 C197.95468,161.603109 185.066543,158.256097 172.104948,161.505886 C160.319687,135.387361 120.64947,129.961817 102.386568,149.106425 C97.9146383,138.588562 86.8499065,135.387361 75.6681934,138.588562 C67.3504899,99.0358293 21.0654619,91.2475237 0,100 L0,37.5 C19.5337489,32.497115 53.4796768,41.4791409 59.8150945,70.4037044 C73.9474416,67.26595 82.9900189,74.5014747 86.308305,83.6353218 C118.686506,70.4037044 154.582288,86.9833909 154.582288,121.774463 C165.379298,124.087729 171.988178,132.39768 172.104948,142.324699 C188.534256,139.718596 198.060364,146.183637 203.196318,154.832724 C206.258504,152.870905 210.116189,151.697781 214.312022,151.697781 C218.209238,151.697781 221.814528,152.710685 224.762376,154.426471 C228.985577,148.572263 236.786092,144.640688 245.716604,144.640688 C248.774419,144.640688 251.764156,145.161044 254.466682,146.009605 L254.812145,146.120686 C263.775392,141.341292 274.021678,138.630484 284.904919,138.630484 C299.519024,138.630484 312.984615,143.518433 323.737348,151.739347 C329.976771,148.964871 338.305363,149.508025 343.320446,153.970755 C343.320446,126.023137 382.185477,108.611959 408.082549,126.023137 C408.737176,115.806299 418.090226,107.007195 430.754198,107.007195 C426.899248,78.5078275 457.151093,46.7084895 499.239129,58.4404492 C503.929783,41.8095449 523.507629,28.9385291 540,30.5 Z" id="路径" fill="#A4D2FF"></path>
            </g>
            <g id="火箭" transform="translate(221.000000, 0.000000)">
                <path d="M41.4081119,149.32478 L64.317948,149.32478 C68.9354343,190.526966 77.8152157,213.436802 90.9572922,218.054288 L14.7687676,218.054288 C29.3316092,210.240081 38.2113906,187.330245 41.4081119,149.32478 Z" id="矩形" fill="#FFFFFF"></path>
                <g id="Group-69" transform="translate(0.916309, 0.677239)">
                    <g id="Group-3" transform="translate(0.411165, 0.769804)">
                        <path d="M39.665717,146.411902 L63.1379107,146.411902 C65.1650587,146.411902 67.0967345,145.502229 68.3544382,143.909973 C81.6486053,127.075119 89.8317439,104.2062 89.8317439,78.9916944 C89.8317439,47.577173 77.138746,19.7921744 57.6724582,2.79704677 C54.0737257,-0.345104107 48.730338,-0.345104107 45.1316054,2.79704677 C25.6653177,19.7921744 12.9723198,47.577173 12.9723198,78.9916944 C12.9723198,104.2062 21.1554584,127.075119 34.4496255,143.909973 C35.7073291,145.502229 37.639005,146.411902 39.665717,146.411902" id="Fill-9" fill="#F1F2F2"></path>
                        <path d="M71.6149204,140.399411 C83.2450824,140.399411 92.8755611,148.955057 94.5883921,160.125742 C94.8277264,161.683934 96.1298965,162.854326 97.7040968,162.854326 L98.1723025,162.854326 C99.6606215,162.854326 100.956688,161.811455 101.253132,160.350213 C102.07271,156.315857 102.509963,152.143063 102.509963,147.866331 C102.509963,131.813194 96.4642669,117.178064 86.5364732,106.107823 C83.3562486,118.920986 77.9901918,130.569435 70.9575141,140.416006 C71.1767949,140.409892 71.3943318,140.399411 71.6149204,140.399411" id="Fill-11" fill="#FC605F"></path>
                        <path d="M31.1694385,140.399411 C19.5392765,140.399411 9.90879784,148.955057 8.19596679,160.125742 C7.95663255,161.683934 6.65446245,162.854326 5.08026217,162.854326 L4.61205638,162.854326 C3.12373742,162.854326 1.82767056,161.811455 1.53122741,160.350213 C0.71164931,156.315857 0.274395673,152.143063 0.274395673,147.866331 C0.274395673,131.813194 6.32052796,117.178064 16.2478857,106.107823 C19.4281103,118.920986 24.7941672,130.569435 31.8268448,140.416006 C31.608,140.409892 31.3900271,140.399411 31.1694385,140.399411" id="Fill-13" fill="#FC605F"></path>
                        <path d="M45.1775977,2.75761157 C36.6535495,10.1909055 29.4299276,19.6950931 23.9945554,30.6635797 L78.8090724,30.6635797 C73.3741361,19.6950931 66.1496423,10.1909055 57.626466,2.75761157 C54.0617372,-0.350912392 48.7423265,-0.350912392 45.1775977,2.75761157" id="Fill-15" fill="#FC605F"></path>
                        <path d="M83.3488375,73.0065848 C83.3488375,90.6816747 69.0454559,105.009795 51.4022934,105.009795 C33.7582591,105.009795 19.4553133,90.6816747 19.4553133,73.0065848 C19.4553133,55.3314948 33.7582591,41.0033742 51.4018575,41.0033742 C69.0454559,41.0033742 83.3488375,55.3314948 83.3488375,73.0065848" id="Fill-17" fill="#D1D3D4"></path>
                        <path d="M83.3488375,72.1378314 C83.3488375,89.8129213 69.0454559,104.141042 51.4022934,104.141042 C33.7582591,104.141042 19.4553133,89.8129213 19.4553133,72.1378314 C19.4553133,54.4627414 33.7582591,40.1346208 51.4018575,40.1346208 C69.0454559,40.1346208 83.3488375,54.4627414 83.3488375,72.1378314" id="Fill-19" fill="#E6E7E8"></path>
                        <path d="M54.7437308,43.8286897 C54.1691542,43.765803 53.7571854,43.2430574 53.825193,42.6679062 C53.8927646,42.0975589 54.4093603,41.684865 54.9839369,41.7525555 C55.5576416,41.820246 55.9652509,42.3381878 55.8972434,42.913339 C55.8344672,43.4470024 55.385443,43.8391708 54.8631799,43.8391708 C54.8217651,43.8391708 54.7803502,43.8339302 54.7437308,43.8286897 M46.7201483,42.9395418 C46.6517048,42.3696311 47.0536469,41.8468855 47.6282234,41.7735177 C48.202364,41.7058272 48.7193958,42.1132805 48.7926347,42.6888684 C48.8654376,43.2583423 48.4582642,43.7815246 47.8841236,43.8548925 C47.8422728,43.860133 47.7956266,43.860133 47.7533399,43.860133 C47.2367441,43.860133 46.7824886,43.4732052 46.7201483,42.9395418 M61.4045466,45.4445282 C60.8617941,45.2458237 60.5906358,44.6392292 60.7942225,44.1007619 C60.9978092,43.5570541 61.5981066,43.2849818 62.1408591,43.4889269 C62.6788162,43.6924352 62.9499745,44.2937891 62.7463878,44.8383704 C62.5903192,45.2567416 62.1931726,45.5122187 61.7703052,45.5122187 C61.6499841,45.5122187 61.5253036,45.4916932 61.4045466,45.4445282 M39.886262,44.9060609 C39.6774439,44.3671569 39.9486022,43.7605624 40.4865593,43.5570541 C41.0240805,43.3474318 41.6300452,43.6195041 41.8336319,44.1584081 C42.042014,44.6964386 41.7708557,45.3034699 41.2333345,45.5074149 C41.1130135,45.5598205 40.9826657,45.5807827 40.8623446,45.5807827 C40.4394772,45.5807827 40.0427665,45.3244321 39.886262,44.9060609 M67.4811951,48.6242364 C67.0064502,48.2949547 66.8865651,47.6464357 67.2148323,47.1699817 C67.5391759,46.6944011 68.1913508,46.5686278 68.6665318,46.8983462 C69.1412767,47.2223873 69.2615978,47.8765835 68.93769,48.3521641 C68.7345393,48.6504392 68.4054002,48.8072192 68.0766971,48.8072192 C67.8726745,48.8072192 67.6642924,48.7447692 67.4811951,48.6242364 M33.7259119,48.4569753 C33.3972088,47.9861985 33.5122984,47.332439 33.9870434,47.0031573 C34.4574289,46.6738756 35.1096039,46.7882945 35.4387429,47.2643118 C35.7674461,47.7403291 35.6523564,48.388848 35.1776114,48.723807 C34.9945142,48.8491437 34.7861321,48.9067898 34.5821094,48.9067898 C34.2534063,48.9067898 33.9247032,48.7500098 33.7259119,48.4569753 M72.6284072,53.1634325 C72.2478265,52.7297764 72.28401,52.0703396 72.7125447,51.6834118 C73.1458749,51.3017245 73.8032811,51.3384084 74.1895291,51.7672607 C74.5705457,52.2013535 74.5343622,52.8603536 74.1062634,53.2468447 C73.9079081,53.4250237 73.6572393,53.5141132 73.4118018,53.5141132 C73.1249495,53.5141132 72.8376612,53.3935803 72.6284072,53.1634325 M28.5839312,53.3835359 C28.151037,53.001412 28.1087503,52.3371713 28.4949982,51.908319 C28.8764508,51.4742262 29.534293,51.4327385 29.9676232,51.8144257 C30.4009533,52.196113 30.4423681,52.8551131 30.0613515,53.2892059 C29.8525335,53.5245943 29.5656811,53.6451271 29.2731615,53.6451271 C29.027724,53.6451271 28.7822865,53.5556009 28.5839312,53.3835359 M76.5493037,58.7957216 C76.2777095,58.288261 76.4712694,57.6502231 76.9826338,57.3838281 C77.4892029,57.1121925 78.1261197,57.3052197 78.3920466,57.8126804 C78.6636408,58.3249449 78.4705168,58.9581789 77.9639478,59.2302511 C77.8074433,59.3136634 77.640476,59.3503473 77.4735088,59.3503473 C77.0977235,59.3503473 76.7371963,59.1516428 76.5493037,58.7957216 M24.7628663,59.3922717 C24.2510659,59.12544 24.0531465,58.4926427 24.3243048,57.9799415 C24.5902317,57.467677 25.2219172,57.2685358 25.7337175,57.5406081 C26.2398506,57.8074398 26.438206,58.4402371 26.172279,58.9472611 C25.9839504,59.3079861 25.6238592,59.5123678 25.2485099,59.5123678 C25.0811067,59.5123678 24.9193708,59.4704434 24.7628663,59.3922717 M79.008038,65.2075436 C78.8672275,64.6424368 79.2068293,64.0777667 79.7652759,63.9367084 C80.3237224,63.7956501 80.8926317,64.1406534 81.0338781,64.7000829 C81.1694573,65.2595124 80.8298555,65.8246192 80.2714089,65.9656775 C80.1881433,65.9862031 80.0992104,65.9971209 80.0159447,65.9971209 C79.5507905,65.9971209 79.1231277,65.6835609 79.008038,65.2075436 M22.4920246,66.1438565 C21.9331421,66.0071653 21.5883089,65.4429319 21.72476,64.8830657 C21.8655705,64.3236362 22.4292484,63.9786329 22.987695,64.1144506 C23.5461415,64.2502684 23.8909747,64.8153752 23.7553955,65.3748047 C23.6403058,65.8556258 23.212207,66.1748631 22.7422575,66.1748631 C22.6585559,66.1748631 22.5752902,66.1648187 22.4920246,66.1438565 M79.8537729,72.1364339 L79.8537729,72.1364339 L79.8537729,72.0840283 L79.8537729,72.0215783 C79.8485415,71.4411866 80.3128238,70.9704099 80.8926317,70.9704099 C81.4667723,70.9704099 81.9367219,71.435946 81.9419532,72.0110972 C81.9419532,72.0320595 81.9419532,72.0530217 81.9367219,72.0787878 C81.9419532,72.0949461 81.9419532,72.1154717 81.9419532,72.1364339 C81.9419532,72.7168256 81.4724396,73.1827985 80.8978631,73.1827985 C80.3184911,73.1827985 79.8537729,72.7168256 79.8537729,72.1364339 M20.8628951,72.1993206 C20.8628951,71.6237327 21.3276134,71.1533927 21.901754,71.1533927 C22.4811259,71.1533927 22.9510755,71.6189288 22.9510755,72.1993206 C22.9510755,72.7744717 22.4867932,73.2452485 21.9074213,73.2452485 C21.3328447,73.2452485 20.8628951,72.7797123 20.8628951,72.1993206 M79.796664,80.2217405 C79.2382174,80.085486 78.8981797,79.5155754 79.0346307,78.9561459 C79.1697739,78.3962797 79.7391191,78.0512763 80.2975657,78.1875308 C80.8555763,78.3285892 81.2004094,78.8932592 81.0600349,79.4526887 C80.9449452,79.9343833 80.5168464,80.2527472 80.0468969,80.2527472 C79.9636312,80.2527472 79.8794937,80.2427028 79.796664,80.2217405 M21.7557121,79.5155754 C21.620133,78.9561459 21.9592988,78.3862353 22.5177454,78.2499808 C23.076192,78.1089225 23.6455372,78.4539258 23.7815523,79.0133553 C23.9223628,79.5732215 23.582761,80.1431322 23.019519,80.2789499 C22.9353815,80.3003489 22.8521158,80.3103933 22.7684142,80.3103933 C22.2984646,80.3103933 21.8755972,79.9915927 21.7557121,79.5155754 M77.0401787,86.7899058 C76.5336097,86.5235108 76.3352543,85.8902768 76.6016172,85.3780123 C76.8732114,84.8657478 77.504461,84.6718472 78.01103,84.9386789 C78.5228303,85.2050739 78.7207497,85.8383079 78.4548228,86.3505724 C78.2664942,86.7064936 77.9016076,86.9100019 77.5253864,86.9100019 C77.3640864,86.9100019 77.1966832,86.8737547 77.0401787,86.7899058 M24.3818496,86.402978 C24.1098194,85.8955173 24.3033794,85.2631567 24.8151797,84.9910845 C25.3265442,84.7194489 25.9582296,84.9177167 26.2245925,85.4251773 C26.4957508,85.9378785 26.2973955,86.5702391 25.7912624,86.8423114 C25.6347579,86.9261603 25.4677906,86.9628442 25.3056188,86.9628442 C24.9298335,86.9628442 24.564075,86.7588992 24.3818496,86.402978 M72.7958104,92.5060438 C72.3624802,92.1243565 72.3206295,91.4601159 72.7073134,91.026023 C73.0878941,90.5971708 73.7457363,90.5552463 74.1790664,90.9373703 C74.6123965,91.3242981 74.649016,91.9832982 74.2675634,92.4169543 C74.0639767,92.6471021 73.7771244,92.7676349 73.4846047,92.7676349 C73.2396032,92.7676349 72.9941657,92.683786 72.7958104,92.5060438 M28.5739044,92.4584421 C28.1928878,92.0300265 28.2290713,91.3662225 28.6571701,90.9845353 C29.0905002,90.5971708 29.7483424,90.6390952 30.1345904,91.0679475 C30.515607,91.5016036 30.4794235,92.1610404 30.0460934,92.5479682 C29.8477381,92.7257105 29.6018646,92.8091227 29.3516317,92.8091227 C29.0643435,92.8091227 28.7774911,92.6942671 28.5739044,92.4584421 M67.3146638,97.0452399 C66.9855248,96.5696593 67.1006145,95.9158998 67.5757954,95.5866181 C68.0505403,95.256463 68.7031512,95.3769958 69.0318543,95.8530131 C69.3605575,96.3290304 69.2406724,96.9771127 68.7659274,97.3068311 C68.5828302,97.4321677 68.3792435,97.4950544 68.1704254,97.4950544 C67.8417223,97.4950544 67.5178146,97.3378377 67.3146638,97.0452399 M34.0860031,97.3430783 C33.6112581,97.0137966 33.491373,96.360037 33.8200762,95.8840197 C34.1492153,95.4080024 34.7961588,95.2935836 35.2713397,95.6176247 C35.7465207,95.9469064 35.8664058,96.5954254 35.5377026,97.0714427 C35.3341159,97.369281 35.0102082,97.5264978 34.6762737,97.5264978 C34.472687,97.5264978 34.2691004,97.4636111 34.0860031,97.3430783 M60.9088763,100.135859 C60.7052896,99.5917141 60.9764479,98.9907969 61.514405,98.7868518 C62.0523621,98.5776662 62.6578908,98.8493018 62.8614775,99.3930096 C63.0707315,99.9319136 62.7987013,100.533704 62.2555128,100.742453 C62.1356277,100.789618 62.0105113,100.81058 61.8849589,100.81058 C61.4677588,100.81058 61.0710481,100.554667 60.9088763,100.135859 M40.6064444,100.763415 L40.6064444,100.763415 C40.0636919,100.55947 39.7920977,99.9533126 39.9961203,99.4139719 C40.2045024,98.8759413 40.8047998,98.603869 41.3427569,98.8078141 C41.8802781,99.0117591 42.1575396,99.6126763 41.953517,100.156384 C41.7917811,100.575192 41.3950704,100.831106 40.972203,100.831106 C40.8523179,100.831106 40.7267655,100.81058 40.6064444,100.763415 M53.9498735,101.59448 C53.8818659,101.019766 54.2894752,100.501824 54.8631799,100.428893 C55.4329611,100.360766 55.9547882,100.768656 56.0227957,101.344244 C56.0908033,101.914154 55.683194,102.4369 55.1142847,102.504591 C55.0724339,102.509831 55.0305831,102.515945 54.9887323,102.515945 C54.4669052,102.515945 54.0126497,102.12334 53.9498735,101.59448 M47.7590072,102.515945 L47.7590072,102.515945 C47.1844306,102.447381 46.7772572,101.924199 46.8452648,101.354288 C46.9128364,100.779137 47.4298681,100.371247 48.0040087,100.439374 C48.5781493,100.507065 48.9853227,101.025007 48.9177511,101.600594 C48.8549749,102.133821 48.4059507,102.521186 47.8841236,102.521186 C47.8422728,102.521186 47.800422,102.521186 47.7590072,102.515945" id="Fill-21" fill="#BABBBD"></path>
                        <path d="M78.8092903,72.1378314 C78.8092903,87.3009475 66.5387239,99.5931116 51.4018139,99.5931116 C36.2653398,99.5931116 23.9947733,87.3009475 23.9947733,72.1378314 C23.9947733,56.9747152 36.2653398,44.6825512 51.4018139,44.6825512 C66.5387239,44.6825512 78.8092903,56.9747152 78.8092903,72.1378314" id="Fill-23" fill="#9BABC4"></path>
                        <g id="Group-78" transform="translate(28.723041, 25.834100)" fill="#DE4B4A">
                            <path d="M1.36459754,3.04314801 C1.02543171,3.04314801 0.685393986,2.90208967 0.445623796,2.66146075 C0.200186311,2.41559126 0.0593758179,2.08106901 0.0593758179,1.73562894 C0.0593758179,1.39062558 0.200186311,1.05086277 0.445623796,0.810233845 C0.931267417,0.323735433 1.80315902,0.323735433 2.28836669,0.810233845 C2.53380418,1.05566662 2.66938332,1.39062558 2.66938332,1.73562894 C2.66938332,2.08106901 2.53380418,2.41559126 2.28836669,2.66146075 C2.04816055,2.90208967 1.70899472,3.04314801 1.36459754,3.04314801" id="Fill-70"></path>
                            <path d="M7.24262913,1.7355416 C7.24262913,1.01409153 7.82723245,0.428459239 8.54785086,0.428459239 C9.26803332,0.428459239 9.85263663,1.01409153 9.85263663,1.7355416 C9.85263663,2.45742838 9.26803332,3.04306067 8.54785086,3.04306067 C7.82723245,3.04306067 7.24262913,2.45742838 7.24262913,1.7355416" id="Fill-72"></path>
                            <path d="M14.4259696,1.7355416 C14.4259696,1.01409153 15.010573,0.428459239 15.7311914,0.428459239 C16.4513738,0.428459239 17.0359771,1.01409153 17.0359771,1.7355416 C17.0359771,2.45742838 16.4513738,3.04306067 15.7311914,3.04306067 C15.010573,3.04306067 14.4259696,2.45742838 14.4259696,1.7355416 M21.6094845,1.7355416 C21.6094845,1.01409153 22.1936519,0.428459239 22.9147062,0.428459239 C23.6348887,0.428459239 24.219492,1.01409153 24.219492,1.7355416 C24.219492,2.45742838 23.6348887,3.04306067 22.9147062,3.04306067 C22.1936519,3.04306067 21.6094845,2.45742838 21.6094845,1.7355416 M28.7925635,1.7355416 C28.7925635,1.01409153 29.3771668,0.428459239 30.0973492,0.428459239 C30.8179676,0.428459239 31.402571,1.01409153 31.402571,1.7355416 C31.402571,2.45742838 30.8179676,3.04306067 30.0973492,3.04306067 C29.3771668,3.04306067 28.7925635,2.45742838 28.7925635,1.7355416 M35.9765143,1.7355416 C35.9765143,1.01409153 36.5602457,0.428459239 37.2813001,0.428459239 C38.0014825,0.428459239 38.5865218,1.01409153 38.5865218,1.7355416 C38.5865218,2.45742838 38.0014825,3.04306067 37.2813001,3.04306067 C36.5602457,3.04306067 35.9765143,2.45742838 35.9765143,1.7355416" id="Fill-74"></path>
                            <path d="M44.4645098,3.04314801 C44.1196767,3.04314801 43.7857422,2.90208967 43.5403047,2.66146075 C43.3000986,2.41559126 43.1592881,2.08106901 43.1592881,1.73562894 C43.1592881,1.39062558 43.3000986,1.05566662 43.5403047,0.810233845 C44.0259483,0.323735433 44.9030713,0.323735433 45.3882789,0.810233845 C45.6284851,1.05566662 45.7692956,1.39062558 45.7692956,1.73562894 C45.7692956,2.08106901 45.6284851,2.41559126 45.3882789,2.66146075 C45.1432774,2.90208967 44.808907,3.04314801 44.4645098,3.04314801" id="Fill-76"></path>
                        </g>
                        <path d="M23.5327144,31.5905033 L79.2710005,31.5905033 C79.1205992,31.2786901 78.9623509,30.972991 78.8093339,30.6637981 L23.9948169,30.6637981 C23.841364,30.972991 23.6835516,31.2786901 23.5327144,31.5905033" id="Fill-79" fill="#E6E7E8"></path>
                        <path d="M14.1492426,108.578222 C17.1071349,120.340653 21.8048868,131.172885 27.8776118,140.634712 C28.953526,140.482299 30.0521094,140.399323 31.1694385,140.399323 C31.3900271,140.399323 31.608,140.410241 31.8268448,140.415918 C24.7941672,130.569348 19.4281103,118.921335 16.2478857,106.107736 C15.5268314,106.912161 14.8288821,107.737112 14.1492426,108.578222" id="Fill-81" fill="#DE4B4A"></path>
                        <path d="M86.5362552,106.107648 C83.3560306,118.921248 77.9899738,130.569697 70.9577321,140.416268 C71.1770128,140.410154 71.3945498,140.399236 71.6147024,140.399236 C72.7390066,140.399236 73.8432573,140.482648 74.9244029,140.636808 C80.9953841,131.179785 85.6918282,120.352794 88.6501564,108.596913 C87.9657215,107.749253 87.2625409,106.917751 86.5362552,106.107648" id="Fill-83" fill="#DE4B4A"></path>
                        <path d="M45.630589,176.838971 C45.871667,176.838971 46.0665348,176.643761 46.0665348,176.402258 L46.0665348,155.968451 C46.0665348,155.726949 45.871667,155.531738 45.630589,155.531738 C45.3899469,155.531738 45.1946432,155.726949 45.1946432,155.968451 L45.1946432,176.402258 C45.1946432,176.643761 45.3899469,176.838971 45.630589,176.838971" id="Fill-85" fill="#4AA6FF"></path>
                        <path d="M51.5882243,175.46612 C51.8293023,175.46612 52.0241701,175.270909 52.0241701,175.029407 L52.0241701,152.848748 C52.0241701,152.607245 51.8293023,152.412035 51.5882243,152.412035 C51.3471463,152.412035 51.1522785,152.607245 51.1522785,152.848748 L51.1522785,175.029407 C51.1522785,175.270909 51.3471463,175.46612 51.5882243,175.46612" id="Fill-87" fill="#4AA6FF"></path>
                        <path d="M57.5454236,176.838971 C57.7865017,176.838971 57.9813694,176.643761 57.9813694,176.402258 L57.9813694,160.335583 C57.9813694,160.09408 57.7865017,159.89887 57.5454236,159.89887 C57.3043456,159.89887 57.1094778,160.09408 57.1094778,160.335583 L57.1094778,176.402258 C57.1094778,176.643761 57.3043456,176.838971 57.5454236,176.838971" id="Fill-89" fill="#4AA6FF"></path>
                        <path d="M50.3382805,130.872339 C26.220451,130.872339 19.4550082,116.083049 13.6155142,91.1209645 C15.780421,111.501929 23.3231552,129.819861 34.4497999,143.909973 C35.7070676,145.502229 37.6387434,146.411902 39.6658914,146.411902 L63.1380851,146.411902 C65.1652331,146.411902 67.096473,145.502229 68.3541766,143.909973 C81.1204134,127.74329 89.1692807,106.010698 89.7887597,81.9809956 C85.0417459,111.584031 74.45611,130.872339 50.3382805,130.872339" id="Fill-91" fill="#E1E1E1"></path>
                        <polygon id="Fill-93" fill="#DBDBDB" points="40.0585042 149.439634 63.1383467 149.439634 63.1383467 146.411902 40.0585042 146.411902"></polygon>
                    </g>
                    <mask id="mask-2" fill="white">
                        <use xlink:href="#path-1"></use>
                    </mask>
                    <use id="Mask" fill="#91A7C7" xlink:href="#path-1"></use>
                    <g id="Group-57" mask="url(#mask-2)">
                        <g transform="translate(59.135489, 76.763505) rotate(6.000000) translate(-59.135489, -76.763505) translate(28.135489, 51.263505)">
                            <path d="M37.2217753,50.2040608 L36.5970239,48.0051673 L40.3599636,43.0845537 C40.3599636,43.0845537 43.0898688,46.1127166 45.5978939,50.2040608 L37.2217753,50.2040608 Z" id="Fill-1" fill="#222222"></path>
                            <polygon id="Fill-3" fill="#222222" points="20.9713837 50.2040608 21.5011296 42.0370874 40.3603244 42.0370874 40.889469 50.2040608"></polygon>
                            <g id="Group-7" stroke-width="1" fill="none" transform="translate(7.816909, 0.036892)">
                                <mask id="mask-4" fill="white">
                                    <use xlink:href="#path-3"></use>
                                </mask>
                                <g id="Clip-6"></g>
                                <path d="M0.563298485,7.13528248 C0.0840618362,11.4037228 2.9306193,15.2315382 6.92145196,15.6842516 C10.9122846,16.1375694 14.5363239,13.0441288 15.0161618,8.77568846 C15.4953985,4.50724814 12.648841,0.68003713 8.65800835,0.226719338 C4.66717568,-0.22599403 1.04313643,2.86684216 0.563298485,7.13528248" id="Fill-5" fill="#222222" mask="url(#mask-4)"></path>
                            </g>
                            <g id="Group-10" stroke-width="1" fill="none" transform="translate(46.901454, 4.267858)">
                                <mask id="mask-6" fill="white">
                                    <use xlink:href="#path-5"></use>
                                </mask>
                                <g id="Clip-9"></g>
                                <path d="M0.0729377735,7.26601933 C-0.406298875,11.5344597 2.44025858,15.3622751 6.43109125,15.8149885 C10.4213226,16.2683063 14.0459632,13.1748656 14.5251998,8.90642532 C15.0050378,4.63798499 12.1584803,0.810773981 8.16704634,0.357456189 C4.17621367,-0.0952571786 0.552174422,2.99757901 0.0729377735,7.26601933" id="Fill-8" fill="#222222" mask="url(#mask-6)"></path>
                            </g>
                            <path d="M8.30618732,24.6122164 C14.3660957,2.42623924 35.5445072,6.23108657 35.5445072,6.23108657 C35.5445072,6.23108657 57.0343925,7.27009095 58.019323,30.2551163 C58.019323,30.2551163 59.4600395,47.0883169 31.3137556,43.8933331 C3.16687034,40.6977449 8.30618732,24.6122164 8.30618732,24.6122164" id="Fill-11" fill="#FFFFFF"></path>
                            <path d="M33.0860893,28.0162703 C33.7607487,28.0706685 34.4113561,27.971543 35.0054411,27.7473018 C36.2158594,27.289753 37.5116624,28.2459514 37.4226699,29.5430447 C37.4196634,29.587772 37.4160556,29.6324994 37.4118465,29.6772267 C37.1791431,32.0465677 35.1359234,33.4065211 32.7710078,33.2705258 C30.2701982,33.1266729 28.3568594,31.3720309 28.5570926,28.8763653 C28.5582952,28.8654857 28.5588965,28.8546061 28.5600991,28.8443308 C28.6743462,27.5399845 30.1060431,26.7898946 31.2352858,27.440859 C31.785476,27.7581814 32.4120313,27.9612678 33.0860893,28.0162703" id="Fill-13" fill="#222222"></path>
                            <path d="M36.0673382,32.2740728 C35.2140925,32.986084 34.0385496,33.3432984 32.7710078,33.2701631 C31.4102643,33.1921925 30.2244994,32.6361226 29.4572397,31.7439932 C30.2972567,30.8047187 31.5479622,30.2552976 32.8972809,30.3653027 C34.2435932,30.474099 35.3878684,31.2151225 36.0673382,32.2740728" id="Fill-15" fill="#F2616B"></path>
                            <path d="M47.4245252,10.2341244 C47.2615727,10.1301636 47.0980189,10.0370823 46.9344651,9.93856124 C46.7510684,10.8536588 46.5454236,11.8140881 46.3139228,12.7841881 C44.922513,18.6198992 43.3218506,22.020387 41.6851101,22.6181621 C37.4585676,24.1612558 29.7396706,23.2860503 26.1018015,20.8502227 C23.9064526,19.3814731 23.383321,12.607092 23.3436352,7.37822236 C23.1662515,7.43866473 22.9888678,7.50212922 22.8108828,7.56740698 C22.8421504,12.8506747 23.3761054,19.7024221 25.8143797,21.3337617 C27.6874314,22.5879409 30.6109553,23.4407828 33.6096419,23.7810733 C36.6065245,24.1213639 39.6779684,23.9497075 41.8510691,23.1560992 C44.5142298,22.1841859 46.3686412,15.45151 47.4245252,10.2341244" id="Fill-17" fill="#E6E6E6"></path>
                            <path d="M45.4235769,15.5293598 C45.7639131,15.5674385 46.0928245,15.6393649 46.40971,15.7366771 L46.4103113,15.7366771 C46.4121152,15.7372815 46.4139191,15.737886 46.415723,15.7384904 C46.7259942,15.8345938 47.0242393,15.9566874 47.3080532,16.1041667 C53.4202747,18.8978132 54.2861477,26.3515665 54.2861477,26.3515665 L54.2855464,26.352171 C54.3739376,26.9148894 54.390774,27.500576 54.3234284,28.0977467 C53.9440076,31.474662 51.0776072,33.9213692 47.9201773,33.562946 L43.4549184,33.0558345 C40.2974885,32.6974112 38.0456174,29.6698528 38.4250382,26.2935419 L39.0209271,20.9939547 C39.3997466,17.6176437 42.2667483,15.1709365 45.4235769,15.5293598" id="Fill-19" fill="#222222"></path>
                            <path d="M30.8488299,23.1130038 C30.963077,22.0969675 31.8337604,21.3541308 32.7832142,21.4623226 L34.8577016,21.6974434 C35.8071553,21.8050309 36.4908342,22.7243593 36.3765871,23.7403956 L36.3687702,23.8111132 C36.3116466,24.3194335 36.0657146,24.7588496 35.7151563,25.0580393 L35.7151563,25.0580393 L35.1367051,25.5578977 L34.5678746,26.0438544 C34.2143098,26.3454619 33.7549161,26.5044253 33.2732742,26.4500272 C32.7916324,26.395629 32.3791401,26.1369357 32.1013392,25.7640062 L31.6545728,25.1626046 L31.2017934,24.545488 C30.9263977,24.1755807 30.7838894,23.6920417 30.841013,23.1837214 L30.8488299,23.1130038 Z" id="Fill-21" fill="#222222"></path>
                            <path d="M1.42766822,37.7658063 C-1.09238296,33.4725846 -0.201856641,28.6946151 3.51598552,27.3183423 C5.1611442,26.7096876 7.13521436,26.7985379 8.45386677,28.8977015 C8.45386677,28.8977015 13.5559031,39.8232647 24.082273,42.7178499 C25.3810825,43.3361753 22.2471033,49.0830361 20.9410782,49.0836405 C15.0639652,49.0836405 5.90976356,45.4008868 1.42766822,37.7658063" id="Fill-23" fill="#222222"></path>
                            <path d="M9.93072139,31.4769588 C10.0762362,31.7024089 10.231973,31.9381341 10.3991346,32.1829257 C9.22299048,36.0808543 6.07157357,38.8382353 2.40424067,39.2643541 C2.39582246,39.25287 2.38680295,39.2413859 2.37838474,39.2292975 C2.28097403,39.0926977 2.18717112,38.9530758 2.09336822,38.813454 C2.04947327,38.7487806 2.00557832,38.6853161 1.96228467,38.6200384 C5.69576064,38.365576 8.92715054,35.5151137 9.93072139,31.4769588" id="Fill-25" fill="#6D6D6D"></path>
                            <path d="M15.4243247,37.9116538 C15.6071201,38.0724305 15.7941247,38.2307895 15.984737,38.3891485 C15.2036474,41.8670026 12.7906277,44.6298234 9.66867455,45.7377321 C9.57908075,45.6857517 9.49008825,45.6355845 9.40109574,45.5823952 C9.3662203,45.5618448 9.33074356,45.5412944 9.29586812,45.5201396 C9.15997417,45.4385424 9.02528281,45.3533186 8.89059146,45.2686993 C12.1785036,44.3608549 14.7358355,41.5200634 15.4243247,37.9116538" id="Fill-27" fill="#6D6D6D"></path>
                            <path d="M41.9487804,12.2820329 C42.0504003,12.855631 41.6962342,13.4153274 41.1574687,13.5313767 C40.6193046,13.6474261 40.1003821,13.2769143 39.9987623,12.7033162 C39.8971425,12.1303225 40.2513086,11.5706262 40.790074,11.4545768 C41.3282381,11.337923 41.8471606,11.7084348 41.9487804,12.2820329" id="Fill-29" fill="#222222"></path>
                            <path d="M44.33402,11.7623494 C44.4206073,12.2519326 44.1181531,12.7288229 43.6587593,12.8279484 C43.1993656,12.9270739 42.7568083,12.6109603 42.670221,12.1219815 C42.5836337,11.6330027 42.886088,11.155508 43.3448804,11.0563825 C43.8048754,10.9566526 44.2474327,11.2733706 44.33402,11.7623494" id="Fill-31" fill="#222222"></path>
                            <polygon id="Fill-33" fill="#222222" points="43.345181 11.0563825 40.8305416 11.4468402 41.2009428 13.5212224 43.65906 12.8279484"></polygon>
                            <path d="M27.9594598,10.69397 C27.7333707,11.2306983 27.9546494,11.855068 28.453729,12.0895844 C28.9528085,12.3234964 29.5408806,12.0787048 29.7669697,11.5419765 C29.9930587,11.0058527 29.7717801,10.3808785 29.2727005,10.1469665 C28.7736209,9.91305456 28.1855489,10.1578462 27.9594598,10.69397" id="Fill-35" fill="#222222"></path>
                            <path d="M25.7498,9.65272926 C25.5567825,10.110278 25.7455909,10.6433797 26.1713118,10.8428396 C26.5970327,11.0422994 27.0985175,10.8337732 27.291535,10.3762245 C27.4845525,9.9186757 27.2957441,9.3861784 26.8700232,9.18611415 C26.4443023,8.9860499 25.9428176,9.19518051 25.7498,9.65272926" id="Fill-37" fill="#222222"></path>
                            <polygon id="Fill-39" fill="#222222" points="26.8702036 9.18617459 29.2345179 10.1302844 28.4137425 12.0692757 26.1708909 10.8429"></polygon>
                            <path d="M20.9986828,50.2040608 C25.0809131,46.8156614 30.9796729,47.2369447 30.9796729,47.2369447 C30.9796729,47.2369447 36.8086818,46.8192879 40.8879056,50.1424095 L40.8927161,50.2040608 L20.9986828,50.2040608 Z" id="Fill-41" fill="#FFFFFF"></path>
                            <path d="M23.8469239,13.0798118 C23.507189,13.0417331 23.1704606,13.0368977 22.8397452,13.0610746 L22.8391439,13.0610746 L22.8331309,13.0616791 C22.5096311,13.085856 22.1921444,13.1378364 21.8824745,13.2176204 C15.304245,14.5709251 12.8064419,21.6426826 12.8064419,21.6426826 L12.8070432,21.6432871 C12.596588,22.1721578 12.4498706,22.7397117 12.3831262,23.3368823 C12.0037055,26.7137977 14.2549753,29.7413561 17.4118039,30.0997794 L21.8782654,30.6068909 C25.035094,30.9653141 27.9014944,28.5180025 28.2809152,25.1416916 L28.8762028,19.8421044 C29.2556236,16.4657935 27.0037525,13.438235 23.8469239,13.0798118" id="Fill-43" fill="#222222"></path>
                            <path d="M43.7327193,29.8534163 L43.7327193,29.8534163 C46.4103113,30.3236579 48.9435911,28.4299984 49.2965546,25.6599245 L49.3975731,24.867525 C49.7463275,22.1343209 47.8179562,19.641073 45.1752397,19.3104533 C42.596261,18.9870866 40.2241298,20.8438763 39.8441078,23.4513602 L39.7340698,24.2068898 C39.348636,26.8476171 41.1206691,29.3946586 43.7327193,29.8534163" id="Fill-45" fill="#FFFFFF"></path>
                            <path d="M41.0145396,24.0128094 C40.7126866,26.1192261 42.0024766,28.0987137 43.9284427,28.4232893 C45.8898856,28.7545135 47.7388852,27.2458719 48.0226991,25.0645067 C48.3041078,22.9006697 46.9295344,20.9483811 44.9861306,20.6921055 C43.0782035,20.4406652 41.3145886,21.9227122 41.0145396,24.0128094" id="Fill-47" fill="#222222"></path>
                            <path d="M41.566233,21.6178408 C41.4339468,22.5825011 42.0418618,23.4728172 42.9299829,23.6045816 C43.8253196,23.7375548 44.6611276,23.0491162 44.7892046,22.0693453 C44.9166804,21.093201 44.291929,20.2083247 43.4002001,20.0910665 C42.5156867,19.9744127 41.6979178,20.6568071 41.566233,21.6178408" id="Fill-49" fill="#FFFFFF"></path>
                            <path d="M22.2750036,27.6706609 L22.2750036,27.6706609 C24.9423735,27.8525924 27.2808318,25.7558465 27.5123326,23.0347309 L27.579077,22.2556287 C27.8087738,19.5623166 25.8894221,17.1548969 23.2737641,16.8804886 C20.6112046,16.6012448 18.1711264,18.6248554 17.8933255,21.4027869 L17.8127512,22.2066704 C17.5313425,25.0154275 19.5589284,27.4851028 22.2750036,27.6706609" id="Fill-51" fill="#FFFFFF"></path>
                            <path d="M26.2753368,22.5345098 C26.0865284,24.7013689 24.3589915,26.3538633 22.3951435,26.2106149 C20.4054395,26.0649488 18.9496905,24.1362327 19.1673614,21.9186021 C19.3832283,19.7154776 21.1666862,18.1010618 23.128129,18.2974996 C25.0637159,18.4909151 26.4629426,20.3809481 26.2753368,22.5345098" id="Fill-53" fill="#222222"></path>
                            <path d="M23.018091,19.5731963 C22.932105,20.5511538 22.1540219,21.2837154 21.274319,21.2063492 C20.3898057,21.1289829 19.7434075,20.2622393 19.8354065,19.2740065 C19.9262029,18.2887958 20.716312,17.5640918 21.5948123,17.6517332 C22.4679009,17.7393747 23.1034757,18.5982608 23.018091,19.5731963" id="Fill-55" fill="#FFFFFF"></path>
                        </g>
                    </g>
                </g>
            </g>
        </g>
    </g>
</svg>