<svg height="30" viewBox="0 0 30 30" width="30" xmlns="http://www.w3.org/2000/svg"><g fill="none" fill-rule="evenodd"><path d="m0 0h30v30h-30z" fill="#5f8dc5"/><path d="m14.0908942 10.4000162c-1.2551954 0-2.2726826 1.007314-2.2726826 2.2499595s1.0174872 2.2499595 2.2726826 2.2499595c1.2551955 0 2.2727918-1.007314 2.2727918-2.2499595s-1.0175963-2.2499595-2.2727918-2.2499595m-8.18178841 0c-1.25508635 0-2.27268265 1.007314-2.27268265 2.2499595s1.01748721 2.2499595 2.27268265 2.2499595c1.25519543 0 2.27268264-1.007314 2.27268264-2.2499595s-1.01748721-2.2499595-2.27268264-2.2499595m4.09089421-9.9000162c1.0041782 0 1.8182116.80589439 1.8182116 1.8000324 0 .66592667-.3635987 1.2509615-.9090513 1.55692489v1.14306971h.9090513c3.514569 0 6.3635768 2.82052236 6.3635768 6.2999514h.9091604c.5020345 0 .9090512.4028392.9090512.8999622v2.6999946c0 .497123-.4069076.9000702-.9090512.9000702h-.9091604v.8999622c0 .994138-.8140334 1.8000324-1.8181024 1.8000324h-12.72726286c-1.00417817 0-1.81821157-.8058944-1.81821157-1.8000324v-.8999622h-.90905124c-.50214363 0-.90916033-.4029472-.90916033-.9000702v-2.6999946c0-.497123.4070167-.8999622.90916033-.8999622h.90905124c0-3.47942904 2.84911691-6.2999514 6.36357686-6.2999514h.90916033v-1.14306971c-.54545256-.30596339-.90916033-.89099822-.90916033-1.55692489 0-.99413801.8140334-1.8000324 1.81821157-1.8000324" fill="#c1ddff" transform="translate(5 4)"/></g></svg>