<?xml version="1.0" encoding="UTF-8"?>
<svg width="100px" height="100px" viewBox="0 0 100 100" version="1.1" xmlns="http://www.w3.org/2000/svg" xmlns:xlink="http://www.w3.org/1999/xlink">
    <title>mLink icon 2.0</title>
    <defs>
        <radialGradient cx="51.8398704%" cy="50%" fx="51.8398704%" fy="50%" r="53.0216719%" id="radialGradient-1">
            <stop stop-color="#FFFFFF" offset="0%"></stop>
            <stop stop-color="#F0FBFF" offset="100%"></stop>
        </radialGradient>
        <rect id="path-2" x="0" y="0" width="100" height="100" rx="21.484375"></rect>
        <filter x="-1.0%" y="-1.0%" width="102.0%" height="102.0%" filterUnits="objectBoundingBox" id="filter-4">
            <feGaussianBlur stdDeviation="0.5" in="SourceAlpha" result="shadowBlurInner1"></feGaussianBlur>
            <feOffset dx="0" dy="-1" in="shadowBlurInner1" result="shadowOffsetInner1"></feOffset>
            <feComposite in="shadowOffsetInner1" in2="SourceAlpha" operator="arithmetic" k2="-1" k3="1" result="shadowInnerInner1"></feComposite>
            <feColorMatrix values="0 0 0 0 0.851323139   0 0 0 0 0.828030001   0 0 0 0 0.888105752  0 0 0 0.5 0" type="matrix" in="shadowInnerInner1" result="shadowMatrixInner1"></feColorMatrix>
            <feGaussianBlur stdDeviation="0.5" in="SourceAlpha" result="shadowBlurInner2"></feGaussianBlur>
            <feOffset dx="0" dy="1" in="shadowBlurInner2" result="shadowOffsetInner2"></feOffset>
            <feComposite in="shadowOffsetInner2" in2="SourceAlpha" operator="arithmetic" k2="-1" k3="1" result="shadowInnerInner2"></feComposite>
            <feColorMatrix values="0 0 0 0 1   0 0 0 0 1   0 0 0 0 1  0 0 0 1 0" type="matrix" in="shadowInnerInner2" result="shadowMatrixInner2"></feColorMatrix>
            <feMerge>
                <feMergeNode in="shadowMatrixInner1"></feMergeNode>
                <feMergeNode in="shadowMatrixInner2"></feMergeNode>
            </feMerge>
        </filter>
        <linearGradient x1="53.4750758%" y1="50%" x2="7.32413021%" y2="56.4428271%" id="linearGradient-5">
            <stop stop-color="#FFFC06" offset="0%"></stop>
            <stop stop-color="#FFDC06" offset="100%"></stop>
        </linearGradient>
        <path d="M10.5330333,0.0146815912 C15.6371969,0.141841606 19.7673222,4.21696517 20.4046442,9.42654336 C28.5720072,5.67939541 36.4758387,6.02834087 37.6881806,6.10815389 L37.8484254,6.11999939 C37.8484254,6.11999939 44.6088954,5.85400345 52.1794425,8.94019965 C53.1473177,3.85666034 57.2894181,0.0351823299 62.2524076,0.0351823299 C67.9336616,0.0351823299 72.5392279,5.04282191 72.5392279,11.2200584 C72.5392279,15.4372372 70.3926898,19.1092963 67.2227774,21.0150181 L66.9654092,21.1646105 L67.2158478,21.5708934 C69.625858,25.5412459 71.4559441,30.5295552 72.2777596,36.7962811 L72.2874514,36.8577692 C72.48128,38.1618115 75.1211969,59.7639873 37.1656199,59.0643934 L37.1915709,59.0409315 C37.1206347,59.1050963 37.0283936,59.140625 36.9327428,59.140625 C36.8437329,59.140625 36.7576054,59.1102285 36.6884671,59.0548035 C36.6277756,59.0530664 36.5652097,59.051562 36.5025352,59.0499976 C-3.34212632,58.055198 1.90352965,35.0397966 1.90352965,35.0397966 C2.93601733,29.40471 4.7422498,24.8596387 7.01362679,21.1950401 C2.85160199,19.7376228 -0.0973617951,15.520077 0.0272116452,10.6211022 C0.180007895,4.62210174 4.88346435,-0.126566756 10.5330333,0.0146815912 Z" id="path-6"></path>
        <linearGradient x1="6.82115277%" y1="61.8764672%" x2="60.0901812%" y2="43.658594%" id="linearGradient-8">
            <stop stop-color="#FFF4C8" stop-opacity="0.747295673" offset="0%"></stop>
            <stop stop-color="#FFFFFF" stop-opacity="0" offset="100%"></stop>
        </linearGradient>
        <filter x="-7.8%" y="-11.3%" width="115.7%" height="122.5%" filterUnits="objectBoundingBox" id="filter-9">
            <feGaussianBlur stdDeviation="1.5625" in="SourceGraphic"></feGaussianBlur>
        </filter>
        <linearGradient x1="50%" y1="14.078463%" x2="15.0829214%" y2="27.6803697%" id="linearGradient-10">
            <stop stop-color="#FFA400" offset="0%"></stop>
            <stop stop-color="#FED622" offset="100%"></stop>
        </linearGradient>
        <linearGradient x1="74.3593731%" y1="57.8322057%" x2="7.10542736e-13%" y2="42.5462681%" id="linearGradient-11">
            <stop stop-color="#FFF4C8" stop-opacity="0.747295673" offset="0%"></stop>
            <stop stop-color="#FFFFFF" stop-opacity="0" offset="100%"></stop>
        </linearGradient>
        <filter x="-14.7%" y="-31.6%" width="129.4%" height="163.2%" filterUnits="objectBoundingBox" id="filter-12">
            <feGaussianBlur stdDeviation="1.5625" in="SourceGraphic"></feGaussianBlur>
        </filter>
        <linearGradient x1="61.5018608%" y1="94.3395366%" x2="23.0588233%" y2="68.534654%" id="linearGradient-13">
            <stop stop-color="#62F765" offset="0%"></stop>
            <stop stop-color="#00C0B1" offset="100%"></stop>
        </linearGradient>
        <linearGradient x1="42.7772722%" y1="14.8514197%" x2="79.8788035%" y2="88.4869215%" id="linearGradient-14">
            <stop stop-color="#FFFFFF" stop-opacity="0.516826923" offset="0%"></stop>
            <stop stop-color="#FFFFFF" stop-opacity="0" offset="100%"></stop>
        </linearGradient>
        <filter x="-31.6%" y="-31.6%" width="163.2%" height="163.2%" filterUnits="objectBoundingBox" id="filter-15">
            <feGaussianBlur stdDeviation="1.5625" in="SourceGraphic"></feGaussianBlur>
        </filter>
        <linearGradient x1="16.689296%" y1="66.7027539%" x2="40.2268746%" y2="24.8342812%" id="linearGradient-16">
            <stop stop-color="#4283F2" offset="0%"></stop>
            <stop stop-color="#00F1FF" offset="100%"></stop>
        </linearGradient>
        <linearGradient x1="52.4775631%" y1="102.154809%" x2="33.9962627%" y2="75.8853451%" id="linearGradient-17">
            <stop stop-color="#156AFB" offset="0%"></stop>
            <stop stop-color="#00DDFB" offset="100%"></stop>
        </linearGradient>
        <linearGradient x1="16.4351438%" y1="55.8633525%" x2="44.6026609%" y2="44.1366475%" id="linearGradient-18">
            <stop stop-color="#A772D8" stop-opacity="0.5" offset="0%"></stop>
            <stop stop-color="#3E52DB" offset="100%"></stop>
        </linearGradient>
        <path d="M58.3007813,29.4921875 C71.3320103,29.4921875 83.1366099,34.7440123 91.7134608,43.2465425 C86.008904,47.059634 78.4914546,49.3480901 68.7481998,49.3480901 C54.0440965,49.3480901 42.0783215,44.1360044 33.7303337,36.3404531 C40.8979284,31.9936981 49.3072253,29.4921875 58.3007813,29.4921875 Z" id="path-19"></path>
        <linearGradient x1="81.7717367%" y1="13.4562056%" x2="17.6320807%" y2="73.3384337%" id="linearGradient-20">
            <stop stop-color="#FFFFFF" stop-opacity="0.499863418" offset="0%"></stop>
            <stop stop-color="#FFFFFF" stop-opacity="0" offset="100%"></stop>
        </linearGradient>
        <filter x="-31.6%" y="-31.6%" width="163.2%" height="163.2%" filterUnits="objectBoundingBox" id="filter-21">
            <feGaussianBlur stdDeviation="1.5625" in="SourceGraphic"></feGaussianBlur>
        </filter>
    </defs>
    <g id="Alpha-2.0" stroke="none" stroke-width="1" fill="none" fill-rule="evenodd">
        <g id="alpha-2.0/7强制提醒" transform="translate(-675.000000, -415.000000)">
            <g id="Group-9-Copy-2" transform="translate(525.000000, 304.000000)">
                <g id="mLink-icon-2.0" transform="translate(150.000000, 111.000000)">
                    <g id="编组-9备份-11">
                        <mask id="mask-3" fill="white">
                            <use xlink:href="#path-2"></use>
                        </mask>
                        <g id="矩形">
                            <use fill="url(#radialGradient-1)" fill-rule="evenodd" xlink:href="#path-2"></use>
                            <use fill="black" fill-opacity="1" filter="url(#filter-4)" xlink:href="#path-2"></use>
                        </g>
                        <g id="编组-8" mask="url(#mask-3)">
                            <g transform="translate(13.769531, 8.984375)" id="椭圆形">
                                <g>
                                    <mask id="mask-7" fill="white">
                                        <use xlink:href="#path-6"></use>
                                    </mask>
                                    <use id="蒙版" fill="url(#linearGradient-5)" xlink:href="#path-6"></use>
                                    <ellipse fill="url(#linearGradient-8)" opacity="0.700823103" filter="url(#filter-9)" mask="url(#mask-7)" cx="34.0820312" cy="35.6445312" rx="29.8828125" ry="20.8007812"></ellipse>
                                    <circle fill="url(#linearGradient-10)" mask="url(#mask-7)" cx="58.3007812" cy="76.953125" r="47.4609375"></circle>
                                    <ellipse fill="url(#linearGradient-11)" opacity="0.564522879" filter="url(#filter-12)" mask="url(#mask-7)" transform="translate(51.953125, 47.167969) rotate(-7.000000) translate(-51.953125, -47.167969) " cx="51.953125" cy="47.1679688" rx="15.9179688" ry="7.421875"></ellipse>
                                    <circle fill="url(#linearGradient-13)" mask="url(#mask-7)" cx="18.5546875" cy="-8.10546875" r="31.5429688"></circle>
                                    <circle id="椭圆形备份" fill="url(#linearGradient-14)" filter="url(#filter-15)" mask="url(#mask-7)" cx="8.203125" cy="7.421875" r="7.421875"></circle>
                                    <path d="M68.7481998,49.3480901 C98.5362781,49.3480901 107.519531,27.9576643 107.519531,7.03125 C107.519531,-13.8951643 88.0194334,-30.859375 63.9648437,-30.859375 C39.9102541,-30.859375 20.4101562,-13.8951643 20.4101562,7.03125 C20.4101562,27.9576643 38.9601214,49.3480901 68.7481998,49.3480901 Z" fill="url(#linearGradient-16)" mask="url(#mask-7)"></path>
                                    <path d="M44.0533601,-26.6773601 C47.8544914,-21.4674478 50.0976562,-15.0484179 50.0976562,-8.10546875 C50.0976562,7.45830387 38.8256045,20.3893477 23.999931,22.9692328 C21.6485405,17.8760931 20.4101562,12.438183 20.4101562,7.03125 C20.4101562,-7.61724004 29.9652042,-20.3242503 43.9489572,-26.6300923 Z" id="形状结合" fill="url(#linearGradient-17)" opacity="0.68531436" mask="url(#mask-7)"></path>
                                    <g id="形状结合" mask="url(#mask-7)">
                                        <use fill="#5A6AD8" xlink:href="#path-19"></use>
                                        <use fill="url(#linearGradient-18)" xlink:href="#path-19"></use>
                                    </g>
                                    <circle fill="url(#linearGradient-20)" filter="url(#filter-21)" mask="url(#mask-7)" cx="63.9648438" cy="7.421875" r="7.421875"></circle>
                                </g>
                            </g>
                        </g>
                    </g>
                    <path d="M30.6517374,79.0625 C33.4957011,79.0625 35.4166667,80.9686686 35.4166667,83.7716175 L35.4166667,91.0710122 C35.4166667,91.284948 35.243069,91.4583333 35.0289685,91.4583333 L32.5612142,91.4583333 C32.3471137,91.4583333 32.1734187,91.284948 32.1734187,91.0710122 L32.1734187,84.8182501 C32.1734187,83.0739921 31.2880025,82.1147814 29.8160736,82.1147814 C28.4190166,82.1147814 27.2590377,83.0241061 27.2590377,84.8430472 L27.2590377,91.0710122 C27.2590377,91.284948 27.0854401,91.4583333 26.8712422,91.4583333 L24.3912202,91.4583333 C24.1771197,91.4583333 24.0034247,91.284948 24.0034247,91.0710122 L24.0034247,84.8182501 C24.0034247,83.0739921 23.1303736,82.1147814 21.6459823,82.1147814 C20.2490226,82.1147814 19.0890438,83.0241061 19.0890438,84.8430472 L19.0890438,91.0710122 C19.0890438,91.284948 18.9154461,91.4583333 18.7012482,91.4583333 L16.2210315,91.4583333 C16.006931,91.4583333 15.8333333,91.284948 15.8333333,91.0710122 L15.8333333,79.7736423 C15.8333333,79.5598037 16.006931,79.3864184 16.2210315,79.3864184 L18.6140113,79.3864184 C18.8281118,79.3864184 19.0016121,79.5598037 19.0016121,79.7736423 C19.0016121,80.106507 19.3959309,80.2859215 19.6444978,80.0644006 C20.456892,79.3402277 21.4917598,79.0625 22.5566154,79.0625 C24.1025399,79.0625 25.4039867,79.6775656 26.2449081,80.7090283 C26.3993253,80.8983615 26.6924843,80.8967084 26.8438833,80.7048468 C27.7966744,79.4975678 29.2242059,79.0625 30.6517374,79.0625 Z M56.2832571,79.375 C56.5524911,79.375 56.7708333,79.5950757 56.7708333,79.8665446 L56.7708333,90.9667888 C56.7708333,91.2382576 56.5524911,91.4583333 56.2832571,91.4583333 L54.0293395,91.4583333 C53.7600089,91.4583333 53.5416667,91.2382576 53.5416667,90.9667888 L53.5416667,79.8665446 C53.5416667,79.5950757 53.7600089,79.375 54.0293395,79.375 L56.2832571,79.375 Z M66.6382177,79.0625 C69.3902213,79.0625 71.3541667,80.9686686 71.3541667,83.7716175 L71.3541667,91.0710122 C71.3541667,91.284948 71.1800733,91.4583333 70.9653613,91.4583333 L68.4780617,91.4583333 C68.2633498,91.4583333 68.0892564,91.284948 68.0892564,91.0710122 L68.0892564,84.8182501 C68.0892564,83.0739921 67.2137121,82.1147814 65.7250817,82.1147814 C64.3241327,82.1147814 63.1608412,83.0241061 63.1608412,84.8430472 L63.1608412,91.0710122 C63.1608412,91.284948 62.9867478,91.4583333 62.7719383,91.4583333 L60.2846387,91.4583333 C60.0699267,91.4583333 59.8958333,91.284948 59.8958333,91.0710122 L59.8958333,79.7736423 C59.8958333,79.5598037 60.0699267,79.3864184 60.2846387,79.3864184 L62.6844522,79.3864184 C62.8722397,79.3864184 63.0290034,79.5191665 63.0652601,79.6956087 L63.0731599,79.7737395 C63.0731599,80.106507 63.4686048,80.2859215 63.7178815,80.0644006 C64.5325957,79.3402277 65.5704188,79.0625 66.6382177,79.0625 Z M77.3752637,73.4375 C77.5914682,73.4375 77.76687,73.6116705 77.76687,73.8263798 L77.76687,83.2603053 C77.76687,83.4751123 77.9420752,83.6492828 78.1582797,83.6492828 L78.7362013,83.6492828 C78.855856,83.6492828 78.9689233,83.5948728 79.0431545,83.5016823 L82.2466964,79.4793502 C82.3210259,79.3861597 82.433995,79.3318474 82.553748,79.3318474 L85.556325,79.3318474 C85.888743,79.3318474 86.0698474,79.717406 85.8563959,79.9706028 L81.7827271,84.8019534 C81.6660219,84.9404693 81.6606143,85.1406237 81.7697489,85.2850982 L85.9625809,90.8358912 C86.1562702,91.0923116 85.9721179,91.4583333 85.6494335,91.4583333 L82.5914044,91.4583333 C82.4647689,91.4583333 82.3459007,91.3974762 82.2724561,91.2950058 L78.9921267,86.7160705 C78.9186821,86.6135023 78.7999123,86.5526452 78.6731785,86.5526452 L78.1582797,86.5526452 C77.9420752,86.5526452 77.76687,86.7268157 77.76687,86.941525 L77.76687,91.0693558 C77.76687,91.2841628 77.5914682,91.4583333 77.3752637,91.4583333 L74.8706746,91.4583333 C74.6543719,91.4583333 74.4791667,91.2841628 74.4791667,91.0693558 L74.4791667,73.8263798 C74.4791667,73.6116705 74.6543719,73.4375 74.8706746,73.4375 L77.3752637,73.4375 Z M41.6927083,75.2083333 C41.9084446,75.2083333 42.0833333,75.3832221 42.0833333,75.5989583 L42.0833333,75.5989583 L42.0833333,87.734375 C42.0833333,87.9501112 42.2582221,88.125 42.4739583,88.125 L42.4739583,88.125 L49.921875,88.125 C50.1376112,88.125 50.3125,88.2998888 50.3125,88.515625 L50.3125,88.515625 L50.3125,91.0677083 C50.3125,91.2834446 50.1376112,91.4583333 49.921875,91.4583333 L49.921875,91.4583333 L38.9322917,91.4583333 C38.7165554,91.4583333 38.5416667,91.2834446 38.5416667,91.0677083 L38.5416667,91.0677083 L38.5416667,75.5989583 C38.5416667,75.3832221 38.7165554,75.2083333 38.9322917,75.2083333 L38.9322917,75.2083333 Z M55.097916,73.4375 C56.2741188,73.4375 57.1875,74.3605371 57.1875,75.5332489 C57.1875,76.7059607 56.2741188,77.6041667 55.097916,77.6041667 C53.9217131,77.6041667 53.0208333,76.7059607 53.0208333,75.5332489 C53.0208333,74.3605371 53.9217131,73.4375 55.097916,73.4375 Z" id="形状结合" fill="#4F59A5"></path>
                </g>
            </g>
        </g>
    </g>
</svg>