<?xml version="1.0" encoding="UTF-8"?>
<svg width="198px" height="50px" viewBox="0 0 198 50" version="1.1" xmlns="http://www.w3.org/2000/svg" xmlns:xlink="http://www.w3.org/1999/xlink">
    <title>logo/makeblockmblock</title>
    <g id="logo/makeblockmblock" stroke="none" stroke-width="1" fill="none" fill-rule="evenodd">
        <g id="编组" transform="translate(8.000000, 17.000000)" fill="#FFFFFF">
            <path d="M107.915192,0.937075046 L107.915192,15.8681306 L106.315436,15.8681306 L106.315436,0.937075046 L107.915192,0.937075046 Z M22.6543325,4.95704844 C24.0546522,4.95704844 25.07423,5.53402709 25.7541263,6.40909359 L25.7541263,5.21460915 L27.9063313,5.21460915 L27.9063313,15.0797708 L25.7541263,15.0797708 L25.7541263,13.8959514 C25.07423,14.7710179 24.0546522,15.3373315 22.6543325,15.3373315 C19.8942203,15.3373315 17.7212184,13.164863 17.7212184,10.14719 C17.7212184,7.13005027 19.8942203,4.95704844 22.6543325,4.95704844 Z M44.1873675,4.95678182 C46.9474798,4.95678182 48.8421241,7.05779463 48.8527891,10.1367916 C48.8527891,10.4151491 48.8319923,10.6929734 48.8111955,10.9404023 L41.5200411,10.9404023 C41.8085304,12.7113322 43.0547403,13.4530857 44.45506,13.4530857 C45.4437092,13.4530857 46.4942156,13.0616787 47.3079581,12.4132443 L48.3787281,13.9474103 C47.1741119,14.9771198 45.8148526,15.3375982 44.3212138,15.3375982 C41.3659313,15.3375982 39.2755835,13.2776458 39.2755835,10.1469234 C39.2755835,7.05779463 41.2838105,4.95678182 44.1873675,4.95678182 Z M52.6425577,0.250566443 L52.6425577,6.38883002 C53.3219207,5.52336205 54.3313667,4.95704844 55.7316864,4.95704844 C58.4917987,4.95704844 60.6642672,7.13005027 60.6642672,10.14719 C60.6642672,13.164863 58.4917987,15.3373315 55.7316864,15.3373315 C54.3313667,15.3373315 53.3219207,14.7710179 52.6425577,13.9060832 L52.6425577,15.0797708 L50.4898194,15.0797708 L50.4898194,0.250566443 L52.6425577,0.250566443 Z M71.4053486,4.95704844 C74.453417,4.95704844 76.7192046,7.1919075 76.7192046,10.14719 C76.7192046,13.1030057 74.453417,15.3373315 71.4053486,15.3373315 C68.3572803,15.3373315 66.1016244,13.1030057 66.1016244,10.14719 C66.1016244,7.1919075 68.3572803,4.95704844 71.4053486,4.95704844 Z M82.8358715,4.95688847 C84.3087135,4.95688847 85.647176,5.49227346 86.5227757,6.53264808 L85.1427196,8.0049568 C84.4526915,7.35652239 83.7216031,6.98591226 82.7740143,6.98591226 C81.1161339,6.98591226 79.8597922,8.28331434 79.8597922,10.14703 C79.8597922,12.011279 81.1161339,13.308681 82.7740143,13.308681 C83.7216031,13.308681 84.5662742,12.8655486 85.194445,12.2789714 L86.5227757,13.7619452 C85.6269124,14.8017866 84.3087135,15.3377048 82.8358715,15.3377048 C79.6950173,15.3377048 77.64573,13.1028458 77.64573,10.14703 C77.64573,7.19174753 79.6950173,4.95688847 82.8358715,4.95688847 Z M167.683155,5 C169.04772,5 170.295987,5.4651926 171.159576,6.37041714 L171.327085,6.55732168 L169.963156,8.01285764 C169.281191,7.37160753 168.558513,7.0051789 167.622084,7.0051789 C165.983334,7.0051789 164.741548,8.28767911 164.741548,10.1300008 C164.741548,11.9723226 165.983334,13.2548228 167.622084,13.2548228 C168.48648,13.2548228 169.264147,12.8818895 169.867022,12.3681889 L170.014049,12.2369655 L171.327085,13.70268 C170.441549,14.7307159 169.138691,15.2600017 167.683155,15.2600017 C164.578691,15.2600017 162.553155,13.0512513 162.553155,10.1300008 C162.553155,7.20875036 164.578691,5 167.683155,5 Z M156.158751,5 C159.171608,5 161.410894,7.20875036 161.410894,10.1300008 C161.410894,13.0512513 159.171608,15.2600017 156.158751,15.2600017 C153.145893,15.2600017 150.916786,13.0512513 150.916786,10.1300008 C150.916786,7.20875036 153.145893,5 156.158751,5 Z M139.237441,1 C142.280835,1 144.571014,2.04839303 144.571014,4.87803635 C144.571014,6.34375088 143.624406,7.56517965 142.372442,7.91125113 C143.726192,8.30821548 144.896728,9.53982283 144.896728,11.1785731 C144.896728,13.941643 142.921386,15.1822542 139.823862,15.247296 L139.563156,15.2500023 L133.710476,15.2500023 L133.710476,1 L139.237441,1 Z M12.1811036,4.95678182 C14.5290121,4.95678182 16.1868925,6.57360183 16.1868925,8.88044991 L16.1868925,15.0800375 L14.0240225,15.0800375 L14.0240225,9.5912748 C14.0240225,7.93339439 13.1697528,7.00606919 11.7278394,7.00606919 C10.3376515,7.00606919 9.17409567,7.9232626 9.17409567,9.61207163 L9.17409567,15.0800375 L7.01122563,15.0800375 L7.01122563,9.5912748 C7.01122563,7.93339439 6.1564227,7.00606919 4.71504259,7.00606919 C3.32432142,7.00606919 2.16076559,7.9232626 2.16076559,9.61207163 L2.16076559,15.0800375 L-0.00157120195,15.0800375 L-0.00157120195,5.21434253 L2.14050201,5.21434253 L2.14050201,6.41949201 C2.93344771,5.25593618 4.15886077,4.95678182 5.16777352,4.95678182 C6.67154411,4.95678182 7.89695717,5.62601306 8.57685345,6.71811312 C9.43165638,5.30712837 10.9551573,4.95678182 12.1811036,4.95678182 Z M90.0649553,0.250726419 L90.0649553,8.96299732 L91.1463904,8.96299732 L94.4008272,5.21423588 L97.1086808,5.21423588 L92.9791774,9.85886065 L97.1502744,15.0799308 L94.4210908,15.0799308 L91.1362586,10.9194988 L90.0649553,10.9194988 L90.0649553,15.0799308 L87.9026185,15.0799308 L87.9026185,0.250726419 L90.0649553,0.250726419 Z M32.4167365,0.250726419 L32.4167365,8.96299732 L33.4976383,8.96299732 L36.7520752,5.21423588 L39.460462,5.21423588 L35.3309586,9.85886065 L39.5020556,15.0799308 L36.772872,15.0799308 L33.4875065,10.9194988 L32.4167365,10.9194988 L32.4167365,15.0799308 L30.2538665,15.0799308 L30.2538665,0.250726419 L32.4167365,0.250726419 Z M64.4642209,0.250779744 L64.4642209,15.0799841 L62.3013508,15.0799841 L62.3013508,0.250779744 L64.4642209,0.250779744 Z M127.041252,5 C129.289444,5 130.897629,6.49971931 130.995945,8.66631221 L131.000717,8.87803635 L131.000717,15.0055374 L128.863217,15.0055374 L128.863217,9.58035789 C128.863217,7.94160763 128.018395,7.02553605 126.593395,7.02553605 C125.274252,7.02553605 124.161481,7.86040704 124.07457,9.40407413 L124.069109,9.60071504 L124.069109,15.0055374 L121.931608,15.0055374 L121.931608,9.58035789 C121.931608,7.94160763 121.086787,7.02553605 119.661786,7.02553605 C118.342643,7.02553605 117.229873,7.86040704 117.142962,9.40407413 L117.1375,9.60071504 L117.1375,15.0055374 L115,15.0055374 L115,5.25446433 L117.117143,5.25446433 L117.117143,6.44535738 C117.900893,5.29517862 119.112144,5 120.109644,5 C121.595715,5 122.806966,5.66160725 123.478751,6.740536 C124.323573,5.34607149 125.830002,5 127.041252,5 Z M149.072203,0.25 L149.072203,15.0055374 L146.934702,15.0055374 L146.934702,0.25 L149.072203,0.25 Z M175.054703,0.25 L175.054703,8.86107284 L176.123453,8.86107284 L179.339882,5.15607223 L182.016847,5.15607223 L177.935239,9.7466087 L182.057561,14.9071453 L179.360239,14.9071453 L176.113274,10.7950017 L175.054703,10.7950017 L175.054703,14.9071453 L172.917202,14.9071453 L172.917202,0.25 L175.054703,0.25 Z M22.9118932,6.98607224 C21.0577761,6.98607224 19.9352807,8.41732056 19.9352807,10.14719 C19.9352807,11.8775927 21.0577761,13.308841 22.9118932,13.308841 C24.6929549,13.308841 25.8879725,11.9495817 25.8879725,10.14719 C25.8879725,8.34479829 24.6929549,6.98607224 22.9118932,6.98607224 Z M55.4746589,6.98607224 C53.6925308,6.98607224 52.4980464,8.34479829 52.4980464,10.14719 C52.4980464,11.9495817 53.6925308,13.308841 55.4746589,13.308841 C57.3282428,13.308841 58.4507383,11.8775927 58.4507383,10.14719 C58.4507383,8.41732056 57.3282428,6.98607224 55.4746589,6.98607224 Z M71.4053486,6.98607224 C69.6445506,6.98607224 68.3156866,8.28294106 68.3156866,10.14719 C68.3156866,12.0114389 69.6445506,13.308841 71.4053486,13.308841 C73.1661467,13.308841 74.5046092,12.0114389 74.5046092,10.14719 C74.5046092,8.28294106 73.1661467,6.98607224 71.4053486,6.98607224 Z M156.158751,7.0051789 C154.418215,7.0051789 153.105179,8.28767911 153.105179,10.1300008 C153.105179,11.9723226 154.418215,13.2548228 156.158751,13.2548228 C157.899287,13.2548228 159.222501,11.9723226 159.222501,10.1300008 C159.222501,8.28767911 157.899287,7.0051789 156.158751,7.0051789 Z M139.46137,9.14285848 L136.010834,9.14285848 L136.010834,13.0921448 L139.46137,13.0921448 L139.840195,13.0864991 C141.440012,13.0360588 142.484406,12.6282927 142.484406,11.0971445 C142.484406,9.60380243 141.440012,9.19873677 139.840195,9.14848934 L139.46137,9.14285848 Z M44.1463071,6.87222294 C42.6121412,6.87222294 41.7573383,7.86087212 41.5307062,9.30278548 L46.6488587,9.30278548 C46.4120948,7.76861952 45.5162315,6.87222294 44.1463071,6.87222294 Z M136.010834,3.1578575 L136.010834,6.99517955 L139.166191,6.99517955 C140.764227,6.99517955 142.158692,6.7508938 142.158692,5.05107209 C142.158692,3.47084862 140.843124,3.17779919 139.316295,3.15888268 L136.010834,3.1578575 Z" id="形状结合"></path>
        </g>
    </g>
</svg>